<?xml version="1.0" encoding="utf-8" standalone="no"?>
<!DOCTYPE svg PUBLIC "-//W3C//DTD SVG 1.1//EN"
  "http://www.w3.org/Graphics/SVG/1.1/DTD/svg11.dtd">
<!-- Created with matplotlib (https://matplotlib.org/) -->
<svg height="314.667469pt" version="1.1" viewBox="0 0 417.40834 314.667469" width="417.40834pt" xmlns="http://www.w3.org/2000/svg" xmlns:xlink="http://www.w3.org/1999/xlink">
 <defs>
  <style type="text/css">
*{stroke-linecap:butt;stroke-linejoin:round;}
  </style>
 </defs>
 <g id="figure_1">
  <g id="patch_1">
   <path d="M 0 314.667469 
L 417.40834 314.667469 
L 417.40834 0 
L 0 0 
z
" style="fill:#ffffff;"/>
  </g>
  <g id="axes_1">
   <g id="patch_2">
    <path d="M 46.965625 277.111219 
L 404.085625 277.111219 
L 404.085625 10.999219 
L 46.965625 10.999219 
z
" style="fill:#ffffff;"/>
   </g>
   <g id="PathCollection_1">
    <path clip-path="url(#pc6f3000a6b)" d="M 307.461414 147.936698 
C 308.399049 147.936698 309.298406 147.564172 309.961414 146.901164 
C 310.624422 146.238157 310.996948 145.338799 310.996948 144.401164 
C 310.996948 143.46353 310.624422 142.564172 309.961414 141.901164 
C 309.298406 141.238157 308.399049 140.86563 307.461414 140.86563 
C 306.523779 140.86563 305.624422 141.238157 304.961414 141.901164 
C 304.298406 142.564172 303.92588 143.46353 303.92588 144.401164 
C 303.92588 145.338799 304.298406 146.238157 304.961414 146.901164 
C 305.624422 147.564172 306.523779 147.936698 307.461414 147.936698 
z
" style="fill:#1f77b4;stroke:#1f77b4;"/>
    <path clip-path="url(#pc6f3000a6b)" d="M 131.234469 168.605694 
C 131.972401 168.605694 132.680208 168.312511 133.202004 167.790715 
C 133.7238 167.268919 134.016983 166.561112 134.016983 165.82318 
C 134.016983 165.085249 133.7238 164.377442 133.202004 163.855646 
C 132.680208 163.33385 131.972401 163.040667 131.234469 163.040667 
C 130.496538 163.040667 129.788731 163.33385 129.266935 163.855646 
C 128.745139 164.377442 128.451956 165.085249 128.451956 165.82318 
C 128.451956 166.561112 128.745139 167.268919 129.266935 167.790715 
C 129.788731 168.312511 130.496538 168.605694 131.234469 168.605694 
z
" style="fill:#1f77b4;stroke:#1f77b4;"/>
    <path clip-path="url(#pc6f3000a6b)" d="M 308.355554 179.969628 
C 308.98082 179.969628 309.58056 179.721207 310.02269 179.279078 
C 310.464819 178.836948 310.71324 178.237208 310.71324 177.611942 
C 310.71324 176.986676 310.464819 176.386936 310.02269 175.944806 
C 309.58056 175.502677 308.98082 175.254256 308.355554 175.254256 
C 307.730289 175.254256 307.130548 175.502677 306.688419 175.944806 
C 306.246289 176.386936 305.997869 176.986676 305.997869 177.611942 
C 305.997869 178.237208 306.246289 178.836948 306.688419 179.279078 
C 307.130548 179.721207 307.730289 179.969628 308.355554 179.969628 
z
" style="fill:#1f77b4;stroke:#1f77b4;"/>
    <path clip-path="url(#pc6f3000a6b)" d="M 303.884852 139.757842 
C 304.340141 139.757842 304.776843 139.576954 305.098781 139.255016 
C 305.420719 138.933079 305.601607 138.496376 305.601607 138.041088 
C 305.601607 137.585799 305.420719 137.149096 305.098781 136.827159 
C 304.776843 136.505221 304.340141 136.324333 303.884852 136.324333 
C 303.429564 136.324333 302.992861 136.505221 302.670924 136.827159 
C 302.348986 137.149096 302.168098 137.585799 302.168098 138.041088 
C 302.168098 138.496376 302.348986 138.933079 302.670924 139.255016 
C 302.992861 139.576954 303.429564 139.757842 303.884852 139.757842 
z
" style="fill:#1f77b4;stroke:#1f77b4;"/>
    <path clip-path="url(#pc6f3000a6b)" d="M 302.990712 70.403121 
C 303.437369 70.403121 303.865793 70.225662 304.181628 69.909827 
C 304.497462 69.593993 304.674921 69.165569 304.674921 68.718912 
C 304.674921 68.272254 304.497462 67.84383 304.181628 67.527996 
C 303.865793 67.212161 303.437369 67.034703 302.990712 67.034703 
C 302.544054 67.034703 302.115631 67.212161 301.799796 67.527996 
C 301.483962 67.84383 301.306503 68.272254 301.306503 68.718912 
C 301.306503 69.165569 301.483962 69.593993 301.799796 69.909827 
C 302.115631 70.225662 302.544054 70.403121 302.990712 70.403121 
z
" style="fill:#1f77b4;stroke:#1f77b4;"/>
    <path clip-path="url(#pc6f3000a6b)" d="M 128.714619 118.282652 
C 129.134634 118.282652 129.537502 118.115779 129.834497 117.818783 
C 130.131493 117.521788 130.298366 117.11892 130.298366 116.698905 
C 130.298366 116.278891 130.131493 115.876022 129.834497 115.579027 
C 129.537502 115.282032 129.134634 115.115158 128.714619 115.115158 
C 128.294605 115.115158 127.891736 115.282032 127.594741 115.579027 
C 127.297746 115.876022 127.130872 116.278891 127.130872 116.698905 
C 127.130872 117.11892 127.297746 117.521788 127.594741 117.818783 
C 127.891736 118.115779 128.294605 118.282652 128.714619 118.282652 
z
" style="fill:#1f77b4;stroke:#1f77b4;"/>
    <path clip-path="url(#pc6f3000a6b)" d="M 288.60318 171.416491 
C 289.013823 171.416491 289.407702 171.253341 289.69807 170.962973 
C 289.988438 170.672605 290.151588 170.278725 290.151588 169.868083 
C 290.151588 169.45744 289.988438 169.063561 289.69807 168.773193 
C 289.407702 168.482824 289.013823 168.319674 288.60318 168.319674 
C 288.192537 168.319674 287.798658 168.482824 287.50829 168.773193 
C 287.217922 169.063561 287.054772 169.45744 287.054772 169.868083 
C 287.054772 170.278725 287.217922 170.672605 287.50829 170.962973 
C 287.798658 171.253341 288.192537 171.416491 288.60318 171.416491 
z
" style="fill:#1f77b4;stroke:#1f77b4;"/>
    <path clip-path="url(#pc6f3000a6b)" d="M 339.97561 220.021212 
C 340.354326 220.021212 340.717582 219.870746 340.985374 219.602954 
C 341.253167 219.335161 341.403632 218.971906 341.403632 218.59319 
C 341.403632 218.214474 341.253167 217.851219 340.985374 217.583426 
C 340.717582 217.315633 340.354326 217.165168 339.97561 217.165168 
C 339.596895 217.165168 339.233639 217.315633 338.965846 217.583426 
C 338.698054 217.851219 338.547588 218.214474 338.547588 218.59319 
C 338.547588 218.971906 338.698054 219.335161 338.965846 219.602954 
C 339.233639 219.870746 339.596895 220.021212 339.97561 220.021212 
z
" style="fill:#1f77b4;stroke:#1f77b4;"/>
    <path clip-path="url(#pc6f3000a6b)" d="M 127.170195 93.515667 
C 127.542941 93.515667 127.90047 93.367574 128.164041 93.104003 
C 128.427613 92.840432 128.575706 92.482902 128.575706 92.110156 
C 128.575706 91.73741 128.427613 91.379881 128.164041 91.11631 
C 127.90047 90.852739 127.542941 90.704645 127.170195 90.704645 
C 126.797449 90.704645 126.43992 90.852739 126.176348 91.11631 
C 125.912777 91.379881 125.764684 91.73741 125.764684 92.110156 
C 125.764684 92.482902 125.912777 92.840432 126.176348 93.104003 
C 126.43992 93.367574 126.797449 93.515667 127.170195 93.515667 
z
" style="fill:#1f77b4;stroke:#1f77b4;"/>
    <path clip-path="url(#pc6f3000a6b)" d="M 127.414051 227.640512 
C 127.766791 227.640512 128.105131 227.500367 128.354556 227.250943 
C 128.603981 227.001518 128.744126 226.663178 128.744126 226.310438 
C 128.744126 225.957698 128.603981 225.619358 128.354556 225.369933 
C 128.105131 225.120509 127.766791 224.980364 127.414051 224.980364 
C 127.061312 224.980364 126.722971 225.120509 126.473547 225.369933 
C 126.224122 225.619358 126.083977 225.957698 126.083977 226.310438 
C 126.083977 226.663178 126.224122 227.001518 126.473547 227.250943 
C 126.722971 227.500367 127.061312 227.640512 127.414051 227.640512 
z
" style="fill:#1f77b4;stroke:#1f77b4;"/>
    <path clip-path="url(#pc6f3000a6b)" d="M 333.960484 48.064067 
C 334.305088 48.064067 334.635624 47.927155 334.879295 47.683483 
C 335.122967 47.439811 335.25988 47.109275 335.25988 46.764672 
C 335.25988 46.420068 335.122967 46.089532 334.879295 45.84586 
C 334.635624 45.602189 334.305088 45.465276 333.960484 45.465276 
C 333.61588 45.465276 333.285344 45.602189 333.041673 45.84586 
C 332.798001 46.089532 332.661089 46.420068 332.661089 46.764672 
C 332.661089 47.109275 332.798001 47.439811 333.041673 47.683483 
C 333.285344 47.927155 333.61588 48.064067 333.960484 48.064067 
z
" style="fill:#1f77b4;stroke:#1f77b4;"/>
    <path clip-path="url(#pc6f3000a6b)" d="M 129.771331 214.644629 
C 130.107405 214.644629 130.42976 214.511105 130.667401 214.273465 
C 130.905041 214.035824 131.038565 213.713469 131.038565 213.377395 
C 131.038565 213.04132 130.905041 212.718965 130.667401 212.481325 
C 130.42976 212.243684 130.107405 212.11016 129.771331 212.11016 
C 129.435256 212.11016 129.112901 212.243684 128.875261 212.481325 
C 128.63762 212.718965 128.504096 213.04132 128.504096 213.377395 
C 128.504096 213.713469 128.63762 214.035824 128.875261 214.273465 
C 129.112901 214.511105 129.435256 214.644629 129.771331 214.644629 
z
" style="fill:#1f77b4;stroke:#1f77b4;"/>
    <path clip-path="url(#pc6f3000a6b)" d="M 130.340329 198.781003 
C 130.668457 198.781003 130.983191 198.650636 131.215212 198.418614 
C 131.447234 198.186592 131.577601 197.871859 131.577601 197.543731 
C 131.577601 197.215602 131.447234 196.900869 131.215212 196.668847 
C 130.983191 196.436826 130.668457 196.306459 130.340329 196.306459 
C 130.012201 196.306459 129.697467 196.436826 129.465446 196.668847 
C 129.233424 196.900869 129.103057 197.215602 129.103057 197.543731 
C 129.103057 197.871859 129.233424 198.186592 129.465446 198.418614 
C 129.697467 198.650636 130.012201 198.781003 130.340329 198.781003 
z
" style="fill:#1f77b4;stroke:#1f77b4;"/>
    <path clip-path="url(#pc6f3000a6b)" d="M 302.909426 151.215399 
C 303.22042 151.215399 303.518717 151.09184 303.738622 150.871935 
C 303.958528 150.652029 304.082086 150.353732 304.082086 150.042739 
C 304.082086 149.731746 303.958528 149.433448 303.738622 149.213543 
C 303.518717 148.993638 303.22042 148.870079 302.909426 148.870079 
C 302.598433 148.870079 302.300136 148.993638 302.080231 149.213543 
C 301.860325 149.433448 301.736767 149.731746 301.736767 150.042739 
C 301.736767 150.353732 301.860325 150.652029 302.080231 150.871935 
C 302.300136 151.09184 302.598433 151.215399 302.909426 151.215399 
z
" style="fill:#1f77b4;stroke:#1f77b4;"/>
    <path clip-path="url(#pc6f3000a6b)" d="M 305.673133 219.670853 
C 305.96599 219.670853 306.246892 219.554499 306.453973 219.347418 
C 306.661054 219.140337 306.777407 218.859436 306.777407 218.566579 
C 306.777407 218.273722 306.661054 217.99282 306.453973 217.785739 
C 306.246892 217.578658 305.96599 217.462305 305.673133 217.462305 
C 305.380276 217.462305 305.099375 217.578658 304.892294 217.785739 
C 304.685213 217.99282 304.568859 218.273722 304.568859 218.566579 
C 304.568859 218.859436 304.685213 219.140337 304.892294 219.347418 
C 305.099375 219.554499 305.380276 219.670853 305.673133 219.670853 
z
" style="fill:#1f77b4;stroke:#1f77b4;"/>
    <path clip-path="url(#pc6f3000a6b)" d="M 284.376335 241.501995 
C 284.622431 241.501995 284.858481 241.40422 285.032497 241.230204 
C 285.206513 241.056187 285.304289 240.820137 285.304289 240.574041 
C 285.304289 240.327945 285.206513 240.091895 285.032497 239.917879 
C 284.858481 239.743862 284.622431 239.646087 284.376335 239.646087 
C 284.130238 239.646087 283.894188 239.743862 283.720172 239.917879 
C 283.546156 240.091895 283.448381 240.327945 283.448381 240.574041 
C 283.448381 240.820137 283.546156 241.056187 283.720172 241.230204 
C 283.894188 241.40422 284.130238 241.501995 284.376335 241.501995 
z
" style="fill:#1f77b4;stroke:#1f77b4;"/>
    <path clip-path="url(#pc6f3000a6b)" d="M 77.586045 26.181894 
C 77.801557 26.181894 78.00827 26.096271 78.16066 25.943881 
C 78.313049 25.791492 78.398673 25.584778 78.398673 25.369267 
C 78.398673 25.153755 78.313049 24.947042 78.16066 24.794652 
C 78.00827 24.642263 77.801557 24.556639 77.586045 24.556639 
C 77.370534 24.556639 77.163821 24.642263 77.011431 24.794652 
C 76.859042 24.947042 76.773418 25.153755 76.773418 25.369267 
C 76.773418 25.584778 76.859042 25.791492 77.011431 25.943881 
C 77.163821 26.096271 77.370534 26.181894 77.586045 26.181894 
z
" style="fill:#1f77b4;stroke:#1f77b4;"/>
    <path clip-path="url(#pc6f3000a6b)" d="M 123.512348 137.280787 
C 123.705927 137.280787 123.891603 137.203877 124.028484 137.066996 
C 124.165365 136.930116 124.242275 136.744439 124.242275 136.55086 
C 124.242275 136.357282 124.165365 136.171605 124.028484 136.034724 
C 123.891603 135.897843 123.705927 135.820934 123.512348 135.820934 
C 123.318769 135.820934 123.133093 135.897843 122.996212 136.034724 
C 122.859331 136.171605 122.782421 136.357282 122.782421 136.55086 
C 122.782421 136.744439 122.859331 136.930116 122.996212 137.066996 
C 123.133093 137.203877 123.318769 137.280787 123.512348 137.280787 
z
" style="fill:#1f77b4;stroke:#1f77b4;"/>
    <path clip-path="url(#pc6f3000a6b)" d="M 76.122907 84.427655 
C 76.294441 84.427655 76.458973 84.359503 76.580266 84.23821 
C 76.701559 84.116917 76.76971 83.952385 76.76971 83.780851 
C 76.76971 83.609316 76.701559 83.444785 76.580266 83.323491 
C 76.458973 83.202198 76.294441 83.134047 76.122907 83.134047 
C 75.951372 83.134047 75.78684 83.202198 75.665547 83.323491 
C 75.544254 83.444785 75.476103 83.609316 75.476103 83.780851 
C 75.476103 83.952385 75.544254 84.116917 75.665547 84.23821 
C 75.78684 84.359503 75.951372 84.427655 76.122907 84.427655 
z
" style="fill:#1f77b4;stroke:#1f77b4;"/>
    <path clip-path="url(#pc6f3000a6b)" d="M 307.70527 194.72821 
C 307.861929 194.72821 308.012193 194.665969 308.122968 194.555194 
C 308.233742 194.44442 308.295983 194.294156 308.295983 194.137497 
C 308.295983 193.980838 308.233742 193.830575 308.122968 193.7198 
C 308.012193 193.609025 307.861929 193.546784 307.70527 193.546784 
C 307.548611 193.546784 307.398348 193.609025 307.287573 193.7198 
C 307.176799 193.830575 307.114557 193.980838 307.114557 194.137497 
C 307.114557 194.294156 307.176799 194.44442 307.287573 194.555194 
C 307.398348 194.665969 307.548611 194.72821 307.70527 194.72821 
z
" style="fill:#1f77b4;stroke:#1f77b4;"/>
    <path clip-path="url(#pc6f3000a6b)" d="M 77.586045 215.908027 
C 77.734931 215.908027 77.877739 215.848874 77.983017 215.743595 
C 78.088295 215.638317 78.147448 215.495509 78.147448 215.346624 
C 78.147448 215.197738 78.088295 215.05493 77.983017 214.949652 
C 77.877739 214.844373 77.734931 214.785221 77.586045 214.785221 
C 77.43716 214.785221 77.294352 214.844373 77.189074 214.949652 
C 77.083795 215.05493 77.024642 215.197738 77.024642 215.346624 
C 77.024642 215.495509 77.083795 215.638317 77.189074 215.743595 
C 77.294352 215.848874 77.43716 215.908027 77.586045 215.908027 
z
" style="fill:#1f77b4;stroke:#1f77b4;"/>
    <path clip-path="url(#pc6f3000a6b)" d="M 127.739193 178.480859 
C 127.884944 178.480859 128.024745 178.422952 128.127807 178.31989 
C 128.230869 178.216828 128.288776 178.077027 128.288776 177.931276 
C 128.288776 177.785525 128.230869 177.645724 128.127807 177.542663 
C 128.024745 177.439601 127.884944 177.381694 127.739193 177.381694 
C 127.593442 177.381694 127.453641 177.439601 127.35058 177.542663 
C 127.247518 177.645724 127.189611 177.785525 127.189611 177.931276 
C 127.189611 178.077027 127.247518 178.216828 127.35058 178.31989 
C 127.453641 178.422952 127.593442 178.480859 127.739193 178.480859 
z
" style="fill:#1f77b4;stroke:#1f77b4;"/>
    <path clip-path="url(#pc6f3000a6b)" d="M 79.211755 144.582146 
C 79.351498 144.582146 79.485536 144.526626 79.584349 144.427813 
C 79.683162 144.329 79.738683 144.194962 79.738683 144.055219 
C 79.738683 143.915476 79.683162 143.781438 79.584349 143.682625 
C 79.485536 143.583812 79.351498 143.528291 79.211755 143.528291 
C 79.072012 143.528291 78.937974 143.583812 78.839161 143.682625 
C 78.740348 143.781438 78.684828 143.915476 78.684828 144.055219 
C 78.684828 144.194962 78.740348 144.329 78.839161 144.427813 
C 78.937974 144.526626 79.072012 144.582146 79.211755 144.582146 
z
" style="fill:#1f77b4;stroke:#1f77b4;"/>
    <path clip-path="url(#pc6f3000a6b)" d="M 63.198514 100.186292 
C 63.328978 100.186292 63.454117 100.134457 63.54637 100.042205 
C 63.638622 99.949952 63.690457 99.824813 63.690457 99.694348 
C 63.690457 99.563883 63.638622 99.438745 63.54637 99.346492 
C 63.454117 99.254239 63.328978 99.202405 63.198514 99.202405 
C 63.068049 99.202405 62.94291 99.254239 62.850657 99.346492 
C 62.758405 99.438745 62.70657 99.563883 62.70657 99.694348 
C 62.70657 99.824813 62.758405 99.949952 62.850657 100.042205 
C 62.94291 100.134457 63.068049 100.186292 63.198514 100.186292 
z
" style="fill:#1f77b4;stroke:#1f77b4;"/>
    <path clip-path="url(#pc6f3000a6b)" d="M 102.052978 151.888025 
C 102.182428 151.888025 102.306593 151.836594 102.398127 151.745059 
C 102.489662 151.653525 102.541093 151.52936 102.541093 151.39991 
C 102.541093 151.27046 102.489662 151.146295 102.398127 151.054761 
C 102.306593 150.963226 102.182428 150.911795 102.052978 150.911795 
C 101.923529 150.911795 101.799364 150.963226 101.707829 151.054761 
C 101.616294 151.146295 101.564863 151.27046 101.564863 151.39991 
C 101.564863 151.52936 101.616294 151.653525 101.707829 151.745059 
C 101.799364 151.836594 101.923529 151.888025 102.052978 151.888025 
z
" style="fill:#1f77b4;stroke:#1f77b4;"/>
    <path clip-path="url(#pc6f3000a6b)" d="M 127.820479 196.877859 
C 127.947355 196.877859 128.069051 196.827451 128.158766 196.737736 
C 128.24848 196.648021 128.298889 196.526325 128.298889 196.399449 
C 128.298889 196.272573 128.24848 196.150877 128.158766 196.061162 
C 128.069051 195.971448 127.947355 195.921039 127.820479 195.921039 
C 127.693603 195.921039 127.571907 195.971448 127.482192 196.061162 
C 127.392477 196.150877 127.342069 196.272573 127.342069 196.399449 
C 127.342069 196.526325 127.392477 196.648021 127.482192 196.737736 
C 127.571907 196.827451 127.693603 196.877859 127.820479 196.877859 
z
" style="fill:#1f77b4;stroke:#1f77b4;"/>
    <path clip-path="url(#pc6f3000a6b)" d="M 66.368648 92.852713 
C 66.495002 92.852713 66.616199 92.802512 66.705545 92.713166 
C 66.794891 92.62382 66.845093 92.502623 66.845093 92.376268 
C 66.845093 92.249914 66.794891 92.128717 66.705545 92.039371 
C 66.616199 91.950025 66.495002 91.899823 66.368648 91.899823 
C 66.242293 91.899823 66.121096 91.950025 66.03175 92.039371 
C 65.942404 92.128717 65.892203 92.249914 65.892203 92.376268 
C 65.892203 92.502623 65.942404 92.62382 66.03175 92.713166 
C 66.121096 92.802512 66.242293 92.852713 66.368648 92.852713 
z
" style="fill:#1f77b4;stroke:#1f77b4;"/>
    <path clip-path="url(#pc6f3000a6b)" d="M 76.854476 164.960941 
C 76.971619 164.960941 77.083979 164.9144 77.166812 164.831567 
C 77.249644 164.748735 77.296186 164.636374 77.296186 164.519232 
C 77.296186 164.402089 77.249644 164.289728 77.166812 164.206896 
C 77.083979 164.124063 76.971619 164.077522 76.854476 164.077522 
C 76.737333 164.077522 76.624973 164.124063 76.54214 164.206896 
C 76.459308 164.289728 76.412766 164.402089 76.412766 164.519232 
C 76.412766 164.636374 76.459308 164.748735 76.54214 164.831567 
C 76.624973 164.9144 76.737333 164.960941 76.854476 164.960941 
z
" style="fill:#1f77b4;stroke:#1f77b4;"/>
    <path clip-path="url(#pc6f3000a6b)" d="M 123.918775 223.711988 
C 124.027141 223.711988 124.131084 223.668934 124.20771 223.592307 
C 124.284337 223.515681 124.327391 223.411739 124.327391 223.303372 
C 124.327391 223.195006 124.284337 223.091064 124.20771 223.014437 
C 124.131084 222.937811 124.027141 222.894757 123.918775 222.894757 
C 123.810409 222.894757 123.706467 222.937811 123.62984 223.014437 
C 123.553214 223.091064 123.51016 223.195006 123.51016 223.303372 
C 123.51016 223.411739 123.553214 223.515681 123.62984 223.592307 
C 123.706467 223.668934 123.810409 223.711988 123.918775 223.711988 
z
" style="fill:#1f77b4;stroke:#1f77b4;"/>
    <path clip-path="url(#pc6f3000a6b)" d="M 387.852765 259.368694 
C 387.96052 259.368694 388.063877 259.325882 388.140072 259.249688 
C 388.216266 259.173493 388.259078 259.070136 388.259078 258.96238 
C 388.259078 258.854625 388.216266 258.751268 388.140072 258.675073 
C 388.063877 258.598878 387.96052 258.556067 387.852765 258.556067 
C 387.745009 258.556067 387.641652 258.598878 387.565457 258.675073 
C 387.489263 258.751268 387.446451 258.854625 387.446451 258.96238 
C 387.446451 259.070136 387.489263 259.173493 387.565457 259.249688 
C 387.641652 259.325882 387.745009 259.368694 387.852765 259.368694 
z
" style="fill:#1f77b4;stroke:#1f77b4;"/>
   </g>
   <g id="matplotlib.axis_1">
    <g id="xtick_1">
     <g id="line2d_1">
      <defs>
       <path d="M 0 0 
L 0 3.5 
" id="m6e0f950ae8" style="stroke:#000000;stroke-width:0.8;"/>
      </defs>
      <g>
       <use style="stroke:#000000;stroke-width:0.8;" x="81.000036" xlink:href="#m6e0f950ae8" y="277.111219"/>
      </g>
     </g>
     <g id="text_1">
      <!-- 250 -->
      <defs>
       <path d="M 19.1875 8.296875 
L 53.609375 8.296875 
L 53.609375 0 
L 7.328125 0 
L 7.328125 8.296875 
Q 12.9375 14.109375 22.625 23.890625 
Q 32.328125 33.6875 34.8125 36.53125 
Q 39.546875 41.84375 41.421875 45.53125 
Q 43.3125 49.21875 43.3125 52.78125 
Q 43.3125 58.59375 39.234375 62.25 
Q 35.15625 65.921875 28.609375 65.921875 
Q 23.96875 65.921875 18.8125 64.3125 
Q 13.671875 62.703125 7.8125 59.421875 
L 7.8125 69.390625 
Q 13.765625 71.78125 18.9375 73 
Q 24.125 74.21875 28.421875 74.21875 
Q 39.75 74.21875 46.484375 68.546875 
Q 53.21875 62.890625 53.21875 53.421875 
Q 53.21875 48.921875 51.53125 44.890625 
Q 49.859375 40.875 45.40625 35.40625 
Q 44.1875 33.984375 37.640625 27.21875 
Q 31.109375 20.453125 19.1875 8.296875 
z
" id="DejaVuSans-50"/>
       <path d="M 10.796875 72.90625 
L 49.515625 72.90625 
L 49.515625 64.59375 
L 19.828125 64.59375 
L 19.828125 46.734375 
Q 21.96875 47.46875 24.109375 47.828125 
Q 26.265625 48.1875 28.421875 48.1875 
Q 40.625 48.1875 47.75 41.5 
Q 54.890625 34.8125 54.890625 23.390625 
Q 54.890625 11.625 47.5625 5.09375 
Q 40.234375 -1.421875 26.90625 -1.421875 
Q 22.3125 -1.421875 17.546875 -0.640625 
Q 12.796875 0.140625 7.71875 1.703125 
L 7.71875 11.625 
Q 12.109375 9.234375 16.796875 8.0625 
Q 21.484375 6.890625 26.703125 6.890625 
Q 35.15625 6.890625 40.078125 11.328125 
Q 45.015625 15.765625 45.015625 23.390625 
Q 45.015625 31 40.078125 35.4375 
Q 35.15625 39.890625 26.703125 39.890625 
Q 22.75 39.890625 18.8125 39.015625 
Q 14.890625 38.140625 10.796875 36.28125 
z
" id="DejaVuSans-53"/>
       <path d="M 31.78125 66.40625 
Q 24.171875 66.40625 20.328125 58.90625 
Q 16.5 51.421875 16.5 36.375 
Q 16.5 21.390625 20.328125 13.890625 
Q 24.171875 6.390625 31.78125 6.390625 
Q 39.453125 6.390625 43.28125 13.890625 
Q 47.125 21.390625 47.125 36.375 
Q 47.125 51.421875 43.28125 58.90625 
Q 39.453125 66.40625 31.78125 66.40625 
z
M 31.78125 74.21875 
Q 44.046875 74.21875 50.515625 64.515625 
Q 56.984375 54.828125 56.984375 36.375 
Q 56.984375 17.96875 50.515625 8.265625 
Q 44.046875 -1.421875 31.78125 -1.421875 
Q 19.53125 -1.421875 13.0625 8.265625 
Q 6.59375 17.96875 6.59375 36.375 
Q 6.59375 54.828125 13.0625 64.515625 
Q 19.53125 74.21875 31.78125 74.21875 
z
" id="DejaVuSans-48"/>
      </defs>
      <g transform="translate(71.456286 291.709656)scale(0.1 -0.1)">
       <use xlink:href="#DejaVuSans-50"/>
       <use x="63.623047" xlink:href="#DejaVuSans-53"/>
       <use x="127.246094" xlink:href="#DejaVuSans-48"/>
      </g>
     </g>
    </g>
    <g id="xtick_2">
     <g id="line2d_2">
      <g>
       <use style="stroke:#000000;stroke-width:0.8;" x="121.642782" xlink:href="#m6e0f950ae8" y="277.111219"/>
      </g>
     </g>
     <g id="text_2">
      <!-- 500 -->
      <g transform="translate(112.099032 291.709656)scale(0.1 -0.1)">
       <use xlink:href="#DejaVuSans-53"/>
       <use x="63.623047" xlink:href="#DejaVuSans-48"/>
       <use x="127.246094" xlink:href="#DejaVuSans-48"/>
      </g>
     </g>
    </g>
    <g id="xtick_3">
     <g id="line2d_3">
      <g>
       <use style="stroke:#000000;stroke-width:0.8;" x="162.285527" xlink:href="#m6e0f950ae8" y="277.111219"/>
      </g>
     </g>
     <g id="text_3">
      <!-- 750 -->
      <defs>
       <path d="M 8.203125 72.90625 
L 55.078125 72.90625 
L 55.078125 68.703125 
L 28.609375 0 
L 18.3125 0 
L 43.21875 64.59375 
L 8.203125 64.59375 
z
" id="DejaVuSans-55"/>
      </defs>
      <g transform="translate(152.741777 291.709656)scale(0.1 -0.1)">
       <use xlink:href="#DejaVuSans-55"/>
       <use x="63.623047" xlink:href="#DejaVuSans-53"/>
       <use x="127.246094" xlink:href="#DejaVuSans-48"/>
      </g>
     </g>
    </g>
    <g id="xtick_4">
     <g id="line2d_4">
      <g>
       <use style="stroke:#000000;stroke-width:0.8;" x="202.928273" xlink:href="#m6e0f950ae8" y="277.111219"/>
      </g>
     </g>
     <g id="text_4">
      <!-- 1000 -->
      <defs>
       <path d="M 12.40625 8.296875 
L 28.515625 8.296875 
L 28.515625 63.921875 
L 10.984375 60.40625 
L 10.984375 69.390625 
L 28.421875 72.90625 
L 38.28125 72.90625 
L 38.28125 8.296875 
L 54.390625 8.296875 
L 54.390625 0 
L 12.40625 0 
z
" id="DejaVuSans-49"/>
      </defs>
      <g transform="translate(190.203273 291.709656)scale(0.1 -0.1)">
       <use xlink:href="#DejaVuSans-49"/>
       <use x="63.623047" xlink:href="#DejaVuSans-48"/>
       <use x="127.246094" xlink:href="#DejaVuSans-48"/>
       <use x="190.869141" xlink:href="#DejaVuSans-48"/>
      </g>
     </g>
    </g>
    <g id="xtick_5">
     <g id="line2d_5">
      <g>
       <use style="stroke:#000000;stroke-width:0.8;" x="243.571018" xlink:href="#m6e0f950ae8" y="277.111219"/>
      </g>
     </g>
     <g id="text_5">
      <!-- 1250 -->
      <g transform="translate(230.846018 291.709656)scale(0.1 -0.1)">
       <use xlink:href="#DejaVuSans-49"/>
       <use x="63.623047" xlink:href="#DejaVuSans-50"/>
       <use x="127.246094" xlink:href="#DejaVuSans-53"/>
       <use x="190.869141" xlink:href="#DejaVuSans-48"/>
      </g>
     </g>
    </g>
    <g id="xtick_6">
     <g id="line2d_6">
      <g>
       <use style="stroke:#000000;stroke-width:0.8;" x="284.213764" xlink:href="#m6e0f950ae8" y="277.111219"/>
      </g>
     </g>
     <g id="text_6">
      <!-- 1500 -->
      <g transform="translate(271.488764 291.709656)scale(0.1 -0.1)">
       <use xlink:href="#DejaVuSans-49"/>
       <use x="63.623047" xlink:href="#DejaVuSans-53"/>
       <use x="127.246094" xlink:href="#DejaVuSans-48"/>
       <use x="190.869141" xlink:href="#DejaVuSans-48"/>
      </g>
     </g>
    </g>
    <g id="xtick_7">
     <g id="line2d_7">
      <g>
       <use style="stroke:#000000;stroke-width:0.8;" x="324.856509" xlink:href="#m6e0f950ae8" y="277.111219"/>
      </g>
     </g>
     <g id="text_7">
      <!-- 1750 -->
      <g transform="translate(312.131509 291.709656)scale(0.1 -0.1)">
       <use xlink:href="#DejaVuSans-49"/>
       <use x="63.623047" xlink:href="#DejaVuSans-55"/>
       <use x="127.246094" xlink:href="#DejaVuSans-53"/>
       <use x="190.869141" xlink:href="#DejaVuSans-48"/>
      </g>
     </g>
    </g>
    <g id="xtick_8">
     <g id="line2d_8">
      <g>
       <use style="stroke:#000000;stroke-width:0.8;" x="365.499255" xlink:href="#m6e0f950ae8" y="277.111219"/>
      </g>
     </g>
     <g id="text_8">
      <!-- 2000 -->
      <g transform="translate(352.774255 291.709656)scale(0.1 -0.1)">
       <use xlink:href="#DejaVuSans-50"/>
       <use x="63.623047" xlink:href="#DejaVuSans-48"/>
       <use x="127.246094" xlink:href="#DejaVuSans-48"/>
       <use x="190.869141" xlink:href="#DejaVuSans-48"/>
      </g>
     </g>
    </g>
    <g id="text_9">
     <!-- stars -->
     <defs>
      <path d="M 44.28125 53.078125 
L 44.28125 44.578125 
Q 40.484375 46.53125 36.375 47.5 
Q 32.28125 48.484375 27.875 48.484375 
Q 21.1875 48.484375 17.84375 46.4375 
Q 14.5 44.390625 14.5 40.28125 
Q 14.5 37.15625 16.890625 35.375 
Q 19.28125 33.59375 26.515625 31.984375 
L 29.59375 31.296875 
Q 39.15625 29.25 43.1875 25.515625 
Q 47.21875 21.78125 47.21875 15.09375 
Q 47.21875 7.46875 41.1875 3.015625 
Q 35.15625 -1.421875 24.609375 -1.421875 
Q 20.21875 -1.421875 15.453125 -0.5625 
Q 10.6875 0.296875 5.421875 2 
L 5.421875 11.28125 
Q 10.40625 8.6875 15.234375 7.390625 
Q 20.0625 6.109375 24.8125 6.109375 
Q 31.15625 6.109375 34.5625 8.28125 
Q 37.984375 10.453125 37.984375 14.40625 
Q 37.984375 18.0625 35.515625 20.015625 
Q 33.0625 21.96875 24.703125 23.78125 
L 21.578125 24.515625 
Q 13.234375 26.265625 9.515625 29.90625 
Q 5.8125 33.546875 5.8125 39.890625 
Q 5.8125 47.609375 11.28125 51.796875 
Q 16.75 56 26.8125 56 
Q 31.78125 56 36.171875 55.265625 
Q 40.578125 54.546875 44.28125 53.078125 
z
" id="DejaVuSans-115"/>
      <path d="M 18.3125 70.21875 
L 18.3125 54.6875 
L 36.8125 54.6875 
L 36.8125 47.703125 
L 18.3125 47.703125 
L 18.3125 18.015625 
Q 18.3125 11.328125 20.140625 9.421875 
Q 21.96875 7.515625 27.59375 7.515625 
L 36.8125 7.515625 
L 36.8125 0 
L 27.59375 0 
Q 17.1875 0 13.234375 3.875 
Q 9.28125 7.765625 9.28125 18.015625 
L 9.28125 47.703125 
L 2.6875 47.703125 
L 2.6875 54.6875 
L 9.28125 54.6875 
L 9.28125 70.21875 
z
" id="DejaVuSans-116"/>
      <path d="M 34.28125 27.484375 
Q 23.390625 27.484375 19.1875 25 
Q 14.984375 22.515625 14.984375 16.5 
Q 14.984375 11.71875 18.140625 8.90625 
Q 21.296875 6.109375 26.703125 6.109375 
Q 34.1875 6.109375 38.703125 11.40625 
Q 43.21875 16.703125 43.21875 25.484375 
L 43.21875 27.484375 
z
M 52.203125 31.203125 
L 52.203125 0 
L 43.21875 0 
L 43.21875 8.296875 
Q 40.140625 3.328125 35.546875 0.953125 
Q 30.953125 -1.421875 24.3125 -1.421875 
Q 15.921875 -1.421875 10.953125 3.296875 
Q 6 8.015625 6 15.921875 
Q 6 25.140625 12.171875 29.828125 
Q 18.359375 34.515625 30.609375 34.515625 
L 43.21875 34.515625 
L 43.21875 35.40625 
Q 43.21875 41.609375 39.140625 45 
Q 35.0625 48.390625 27.6875 48.390625 
Q 23 48.390625 18.546875 47.265625 
Q 14.109375 46.140625 10.015625 43.890625 
L 10.015625 52.203125 
Q 14.9375 54.109375 19.578125 55.046875 
Q 24.21875 56 28.609375 56 
Q 40.484375 56 46.34375 49.84375 
Q 52.203125 43.703125 52.203125 31.203125 
z
" id="DejaVuSans-97"/>
      <path d="M 41.109375 46.296875 
Q 39.59375 47.171875 37.8125 47.578125 
Q 36.03125 48 33.890625 48 
Q 26.265625 48 22.1875 43.046875 
Q 18.109375 38.09375 18.109375 28.8125 
L 18.109375 0 
L 9.078125 0 
L 9.078125 54.6875 
L 18.109375 54.6875 
L 18.109375 46.1875 
Q 20.953125 51.171875 25.484375 53.578125 
Q 30.03125 56 36.53125 56 
Q 37.453125 56 38.578125 55.875 
Q 39.703125 55.765625 41.0625 55.515625 
z
" id="DejaVuSans-114"/>
     </defs>
     <g transform="translate(213.236563 305.387781)scale(0.1 -0.1)">
      <use xlink:href="#DejaVuSans-115"/>
      <use x="52.099609" xlink:href="#DejaVuSans-116"/>
      <use x="91.308594" xlink:href="#DejaVuSans-97"/>
      <use x="152.587891" xlink:href="#DejaVuSans-114"/>
      <use x="193.701172" xlink:href="#DejaVuSans-115"/>
     </g>
    </g>
   </g>
   <g id="matplotlib.axis_2">
    <g id="ytick_1">
     <g id="line2d_9">
      <defs>
       <path d="M 0 0 
L -3.5 0 
" id="m5e6de48fdf" style="stroke:#000000;stroke-width:0.8;"/>
      </defs>
      <g>
       <use style="stroke:#000000;stroke-width:0.8;" x="46.965625" xlink:href="#m5e6de48fdf" y="277.111219"/>
      </g>
     </g>
     <g id="text_10">
      <!-- 0 -->
      <g transform="translate(33.603125 280.910437)scale(0.1 -0.1)">
       <use xlink:href="#DejaVuSans-48"/>
      </g>
     </g>
    </g>
    <g id="ytick_2">
     <g id="line2d_10">
      <g>
       <use style="stroke:#000000;stroke-width:0.8;" x="46.965625" xlink:href="#m5e6de48fdf" y="223.888819"/>
      </g>
     </g>
     <g id="text_11">
      <!-- 20 -->
      <g transform="translate(27.240625 227.688037)scale(0.1 -0.1)">
       <use xlink:href="#DejaVuSans-50"/>
       <use x="63.623047" xlink:href="#DejaVuSans-48"/>
      </g>
     </g>
    </g>
    <g id="ytick_3">
     <g id="line2d_11">
      <g>
       <use style="stroke:#000000;stroke-width:0.8;" x="46.965625" xlink:href="#m5e6de48fdf" y="170.666419"/>
      </g>
     </g>
     <g id="text_12">
      <!-- 40 -->
      <defs>
       <path d="M 37.796875 64.3125 
L 12.890625 25.390625 
L 37.796875 25.390625 
z
M 35.203125 72.90625 
L 47.609375 72.90625 
L 47.609375 25.390625 
L 58.015625 25.390625 
L 58.015625 17.1875 
L 47.609375 17.1875 
L 47.609375 0 
L 37.796875 0 
L 37.796875 17.1875 
L 4.890625 17.1875 
L 4.890625 26.703125 
z
" id="DejaVuSans-52"/>
      </defs>
      <g transform="translate(27.240625 174.465637)scale(0.1 -0.1)">
       <use xlink:href="#DejaVuSans-52"/>
       <use x="63.623047" xlink:href="#DejaVuSans-48"/>
      </g>
     </g>
    </g>
    <g id="ytick_4">
     <g id="line2d_12">
      <g>
       <use style="stroke:#000000;stroke-width:0.8;" x="46.965625" xlink:href="#m5e6de48fdf" y="117.444019"/>
      </g>
     </g>
     <g id="text_13">
      <!-- 60 -->
      <defs>
       <path d="M 33.015625 40.375 
Q 26.375 40.375 22.484375 35.828125 
Q 18.609375 31.296875 18.609375 23.390625 
Q 18.609375 15.53125 22.484375 10.953125 
Q 26.375 6.390625 33.015625 6.390625 
Q 39.65625 6.390625 43.53125 10.953125 
Q 47.40625 15.53125 47.40625 23.390625 
Q 47.40625 31.296875 43.53125 35.828125 
Q 39.65625 40.375 33.015625 40.375 
z
M 52.59375 71.296875 
L 52.59375 62.3125 
Q 48.875 64.0625 45.09375 64.984375 
Q 41.3125 65.921875 37.59375 65.921875 
Q 27.828125 65.921875 22.671875 59.328125 
Q 17.53125 52.734375 16.796875 39.40625 
Q 19.671875 43.65625 24.015625 45.921875 
Q 28.375 48.1875 33.59375 48.1875 
Q 44.578125 48.1875 50.953125 41.515625 
Q 57.328125 34.859375 57.328125 23.390625 
Q 57.328125 12.15625 50.6875 5.359375 
Q 44.046875 -1.421875 33.015625 -1.421875 
Q 20.359375 -1.421875 13.671875 8.265625 
Q 6.984375 17.96875 6.984375 36.375 
Q 6.984375 53.65625 15.1875 63.9375 
Q 23.390625 74.21875 37.203125 74.21875 
Q 40.921875 74.21875 44.703125 73.484375 
Q 48.484375 72.75 52.59375 71.296875 
z
" id="DejaVuSans-54"/>
      </defs>
      <g transform="translate(27.240625 121.243237)scale(0.1 -0.1)">
       <use xlink:href="#DejaVuSans-54"/>
       <use x="63.623047" xlink:href="#DejaVuSans-48"/>
      </g>
     </g>
    </g>
    <g id="ytick_5">
     <g id="line2d_13">
      <g>
       <use style="stroke:#000000;stroke-width:0.8;" x="46.965625" xlink:href="#m5e6de48fdf" y="64.221619"/>
      </g>
     </g>
     <g id="text_14">
      <!-- 80 -->
      <defs>
       <path d="M 31.78125 34.625 
Q 24.75 34.625 20.71875 30.859375 
Q 16.703125 27.09375 16.703125 20.515625 
Q 16.703125 13.921875 20.71875 10.15625 
Q 24.75 6.390625 31.78125 6.390625 
Q 38.8125 6.390625 42.859375 10.171875 
Q 46.921875 13.96875 46.921875 20.515625 
Q 46.921875 27.09375 42.890625 30.859375 
Q 38.875 34.625 31.78125 34.625 
z
M 21.921875 38.8125 
Q 15.578125 40.375 12.03125 44.71875 
Q 8.5 49.078125 8.5 55.328125 
Q 8.5 64.0625 14.71875 69.140625 
Q 20.953125 74.21875 31.78125 74.21875 
Q 42.671875 74.21875 48.875 69.140625 
Q 55.078125 64.0625 55.078125 55.328125 
Q 55.078125 49.078125 51.53125 44.71875 
Q 48 40.375 41.703125 38.8125 
Q 48.828125 37.15625 52.796875 32.3125 
Q 56.78125 27.484375 56.78125 20.515625 
Q 56.78125 9.90625 50.3125 4.234375 
Q 43.84375 -1.421875 31.78125 -1.421875 
Q 19.734375 -1.421875 13.25 4.234375 
Q 6.78125 9.90625 6.78125 20.515625 
Q 6.78125 27.484375 10.78125 32.3125 
Q 14.796875 37.15625 21.921875 38.8125 
z
M 18.3125 54.390625 
Q 18.3125 48.734375 21.84375 45.5625 
Q 25.390625 42.390625 31.78125 42.390625 
Q 38.140625 42.390625 41.71875 45.5625 
Q 45.3125 48.734375 45.3125 54.390625 
Q 45.3125 60.0625 41.71875 63.234375 
Q 38.140625 66.40625 31.78125 66.40625 
Q 25.390625 66.40625 21.84375 63.234375 
Q 18.3125 60.0625 18.3125 54.390625 
z
" id="DejaVuSans-56"/>
      </defs>
      <g transform="translate(27.240625 68.020837)scale(0.1 -0.1)">
       <use xlink:href="#DejaVuSans-56"/>
       <use x="63.623047" xlink:href="#DejaVuSans-48"/>
      </g>
     </g>
    </g>
    <g id="ytick_6">
     <g id="line2d_14">
      <g>
       <use style="stroke:#000000;stroke-width:0.8;" x="46.965625" xlink:href="#m5e6de48fdf" y="10.999219"/>
      </g>
     </g>
     <g id="text_15">
      <!-- 100 -->
      <g transform="translate(20.878125 14.798437)scale(0.1 -0.1)">
       <use xlink:href="#DejaVuSans-49"/>
       <use x="63.623047" xlink:href="#DejaVuSans-48"/>
       <use x="127.246094" xlink:href="#DejaVuSans-48"/>
      </g>
     </g>
    </g>
    <g id="text_16">
     <!-- percentage -->
     <defs>
      <path d="M 18.109375 8.203125 
L 18.109375 -20.796875 
L 9.078125 -20.796875 
L 9.078125 54.6875 
L 18.109375 54.6875 
L 18.109375 46.390625 
Q 20.953125 51.265625 25.265625 53.625 
Q 29.59375 56 35.59375 56 
Q 45.5625 56 51.78125 48.09375 
Q 58.015625 40.1875 58.015625 27.296875 
Q 58.015625 14.40625 51.78125 6.484375 
Q 45.5625 -1.421875 35.59375 -1.421875 
Q 29.59375 -1.421875 25.265625 0.953125 
Q 20.953125 3.328125 18.109375 8.203125 
z
M 48.6875 27.296875 
Q 48.6875 37.203125 44.609375 42.84375 
Q 40.53125 48.484375 33.40625 48.484375 
Q 26.265625 48.484375 22.1875 42.84375 
Q 18.109375 37.203125 18.109375 27.296875 
Q 18.109375 17.390625 22.1875 11.75 
Q 26.265625 6.109375 33.40625 6.109375 
Q 40.53125 6.109375 44.609375 11.75 
Q 48.6875 17.390625 48.6875 27.296875 
z
" id="DejaVuSans-112"/>
      <path d="M 56.203125 29.59375 
L 56.203125 25.203125 
L 14.890625 25.203125 
Q 15.484375 15.921875 20.484375 11.0625 
Q 25.484375 6.203125 34.421875 6.203125 
Q 39.59375 6.203125 44.453125 7.46875 
Q 49.3125 8.734375 54.109375 11.28125 
L 54.109375 2.78125 
Q 49.265625 0.734375 44.1875 -0.34375 
Q 39.109375 -1.421875 33.890625 -1.421875 
Q 20.796875 -1.421875 13.15625 6.1875 
Q 5.515625 13.8125 5.515625 26.8125 
Q 5.515625 40.234375 12.765625 48.109375 
Q 20.015625 56 32.328125 56 
Q 43.359375 56 49.78125 48.890625 
Q 56.203125 41.796875 56.203125 29.59375 
z
M 47.21875 32.234375 
Q 47.125 39.59375 43.09375 43.984375 
Q 39.0625 48.390625 32.421875 48.390625 
Q 24.90625 48.390625 20.390625 44.140625 
Q 15.875 39.890625 15.1875 32.171875 
z
" id="DejaVuSans-101"/>
      <path d="M 48.78125 52.59375 
L 48.78125 44.1875 
Q 44.96875 46.296875 41.140625 47.34375 
Q 37.3125 48.390625 33.40625 48.390625 
Q 24.65625 48.390625 19.8125 42.84375 
Q 14.984375 37.3125 14.984375 27.296875 
Q 14.984375 17.28125 19.8125 11.734375 
Q 24.65625 6.203125 33.40625 6.203125 
Q 37.3125 6.203125 41.140625 7.25 
Q 44.96875 8.296875 48.78125 10.40625 
L 48.78125 2.09375 
Q 45.015625 0.34375 40.984375 -0.53125 
Q 36.96875 -1.421875 32.421875 -1.421875 
Q 20.0625 -1.421875 12.78125 6.34375 
Q 5.515625 14.109375 5.515625 27.296875 
Q 5.515625 40.671875 12.859375 48.328125 
Q 20.21875 56 33.015625 56 
Q 37.15625 56 41.109375 55.140625 
Q 45.0625 54.296875 48.78125 52.59375 
z
" id="DejaVuSans-99"/>
      <path d="M 54.890625 33.015625 
L 54.890625 0 
L 45.90625 0 
L 45.90625 32.71875 
Q 45.90625 40.484375 42.875 44.328125 
Q 39.84375 48.1875 33.796875 48.1875 
Q 26.515625 48.1875 22.3125 43.546875 
Q 18.109375 38.921875 18.109375 30.90625 
L 18.109375 0 
L 9.078125 0 
L 9.078125 54.6875 
L 18.109375 54.6875 
L 18.109375 46.1875 
Q 21.34375 51.125 25.703125 53.5625 
Q 30.078125 56 35.796875 56 
Q 45.21875 56 50.046875 50.171875 
Q 54.890625 44.34375 54.890625 33.015625 
z
" id="DejaVuSans-110"/>
      <path d="M 45.40625 27.984375 
Q 45.40625 37.75 41.375 43.109375 
Q 37.359375 48.484375 30.078125 48.484375 
Q 22.859375 48.484375 18.828125 43.109375 
Q 14.796875 37.75 14.796875 27.984375 
Q 14.796875 18.265625 18.828125 12.890625 
Q 22.859375 7.515625 30.078125 7.515625 
Q 37.359375 7.515625 41.375 12.890625 
Q 45.40625 18.265625 45.40625 27.984375 
z
M 54.390625 6.78125 
Q 54.390625 -7.171875 48.1875 -13.984375 
Q 42 -20.796875 29.203125 -20.796875 
Q 24.46875 -20.796875 20.265625 -20.09375 
Q 16.0625 -19.390625 12.109375 -17.921875 
L 12.109375 -9.1875 
Q 16.0625 -11.328125 19.921875 -12.34375 
Q 23.78125 -13.375 27.78125 -13.375 
Q 36.625 -13.375 41.015625 -8.765625 
Q 45.40625 -4.15625 45.40625 5.171875 
L 45.40625 9.625 
Q 42.625 4.78125 38.28125 2.390625 
Q 33.9375 0 27.875 0 
Q 17.828125 0 11.671875 7.65625 
Q 5.515625 15.328125 5.515625 27.984375 
Q 5.515625 40.671875 11.671875 48.328125 
Q 17.828125 56 27.875 56 
Q 33.9375 56 38.28125 53.609375 
Q 42.625 51.21875 45.40625 46.390625 
L 45.40625 54.6875 
L 54.390625 54.6875 
z
" id="DejaVuSans-103"/>
     </defs>
     <g transform="translate(14.798438 172.629437)rotate(-90)scale(0.1 -0.1)">
      <use xlink:href="#DejaVuSans-112"/>
      <use x="63.476562" xlink:href="#DejaVuSans-101"/>
      <use x="125" xlink:href="#DejaVuSans-114"/>
      <use x="166.082031" xlink:href="#DejaVuSans-99"/>
      <use x="221.0625" xlink:href="#DejaVuSans-101"/>
      <use x="282.585938" xlink:href="#DejaVuSans-110"/>
      <use x="345.964844" xlink:href="#DejaVuSans-116"/>
      <use x="385.173828" xlink:href="#DejaVuSans-97"/>
      <use x="446.453125" xlink:href="#DejaVuSans-103"/>
      <use x="509.929688" xlink:href="#DejaVuSans-101"/>
     </g>
    </g>
   </g>
   <g id="patch_3">
    <path d="M 46.965625 277.111219 
L 46.965625 10.999219 
" style="fill:none;stroke:#000000;stroke-linecap:square;stroke-linejoin:miter;stroke-width:0.8;"/>
   </g>
   <g id="patch_4">
    <path d="M 404.085625 277.111219 
L 404.085625 10.999219 
" style="fill:none;stroke:#000000;stroke-linecap:square;stroke-linejoin:miter;stroke-width:0.8;"/>
   </g>
   <g id="patch_5">
    <path d="M 46.965625 277.111219 
L 404.085625 277.111219 
" style="fill:none;stroke:#000000;stroke-linecap:square;stroke-linejoin:miter;stroke-width:0.8;"/>
   </g>
   <g id="patch_6">
    <path d="M 46.965625 10.999219 
L 404.085625 10.999219 
" style="fill:none;stroke:#000000;stroke-linecap:square;stroke-linejoin:miter;stroke-width:0.8;"/>
   </g>
   <g id="text_17">
    <!-- JavaScript -->
    <defs>
     <path d="M 9.8125 72.90625 
L 19.671875 72.90625 
L 19.671875 5.078125 
Q 19.671875 -8.109375 14.671875 -14.0625 
Q 9.671875 -20.015625 -1.421875 -20.015625 
L -5.171875 -20.015625 
L -5.171875 -11.71875 
L -2.09375 -11.71875 
Q 4.4375 -11.71875 7.125 -8.046875 
Q 9.8125 -4.390625 9.8125 5.078125 
z
" id="DejaVuSans-74"/>
     <path d="M 2.984375 54.6875 
L 12.5 54.6875 
L 29.59375 8.796875 
L 46.6875 54.6875 
L 56.203125 54.6875 
L 35.6875 0 
L 23.484375 0 
z
" id="DejaVuSans-118"/>
     <path d="M 53.515625 70.515625 
L 53.515625 60.890625 
Q 47.90625 63.578125 42.921875 64.890625 
Q 37.9375 66.21875 33.296875 66.21875 
Q 25.25 66.21875 20.875 63.09375 
Q 16.5 59.96875 16.5 54.203125 
Q 16.5 49.359375 19.40625 46.890625 
Q 22.3125 44.4375 30.421875 42.921875 
L 36.375 41.703125 
Q 47.40625 39.59375 52.65625 34.296875 
Q 57.90625 29 57.90625 20.125 
Q 57.90625 9.515625 50.796875 4.046875 
Q 43.703125 -1.421875 29.984375 -1.421875 
Q 24.8125 -1.421875 18.96875 -0.25 
Q 13.140625 0.921875 6.890625 3.21875 
L 6.890625 13.375 
Q 12.890625 10.015625 18.65625 8.296875 
Q 24.421875 6.59375 29.984375 6.59375 
Q 38.421875 6.59375 43.015625 9.90625 
Q 47.609375 13.234375 47.609375 19.390625 
Q 47.609375 24.75 44.3125 27.78125 
Q 41.015625 30.8125 33.5 32.328125 
L 27.484375 33.5 
Q 16.453125 35.6875 11.515625 40.375 
Q 6.59375 45.0625 6.59375 53.421875 
Q 6.59375 63.09375 13.40625 68.65625 
Q 20.21875 74.21875 32.171875 74.21875 
Q 37.3125 74.21875 42.625 73.28125 
Q 47.953125 72.359375 53.515625 70.515625 
z
" id="DejaVuSans-83"/>
     <path d="M 9.421875 54.6875 
L 18.40625 54.6875 
L 18.40625 0 
L 9.421875 0 
z
M 9.421875 75.984375 
L 18.40625 75.984375 
L 18.40625 64.59375 
L 9.421875 64.59375 
z
" id="DejaVuSans-105"/>
    </defs>
    <g transform="translate(307.461414 144.401164)scale(0.09 -0.09)">
     <use xlink:href="#DejaVuSans-74"/>
     <use x="29.492188" xlink:href="#DejaVuSans-97"/>
     <use x="90.771484" xlink:href="#DejaVuSans-118"/>
     <use x="149.951172" xlink:href="#DejaVuSans-97"/>
     <use x="211.230469" xlink:href="#DejaVuSans-83"/>
     <use x="274.707031" xlink:href="#DejaVuSans-99"/>
     <use x="329.6875" xlink:href="#DejaVuSans-114"/>
     <use x="370.800781" xlink:href="#DejaVuSans-105"/>
     <use x="398.583984" xlink:href="#DejaVuSans-112"/>
     <use x="462.060547" xlink:href="#DejaVuSans-116"/>
    </g>
   </g>
   <g id="text_18">
    <!-- Python -->
    <defs>
     <path d="M 19.671875 64.796875 
L 19.671875 37.40625 
L 32.078125 37.40625 
Q 38.96875 37.40625 42.71875 40.96875 
Q 46.484375 44.53125 46.484375 51.125 
Q 46.484375 57.671875 42.71875 61.234375 
Q 38.96875 64.796875 32.078125 64.796875 
z
M 9.8125 72.90625 
L 32.078125 72.90625 
Q 44.34375 72.90625 50.609375 67.359375 
Q 56.890625 61.8125 56.890625 51.125 
Q 56.890625 40.328125 50.609375 34.8125 
Q 44.34375 29.296875 32.078125 29.296875 
L 19.671875 29.296875 
L 19.671875 0 
L 9.8125 0 
z
" id="DejaVuSans-80"/>
     <path d="M 32.171875 -5.078125 
Q 28.375 -14.84375 24.75 -17.8125 
Q 21.140625 -20.796875 15.09375 -20.796875 
L 7.90625 -20.796875 
L 7.90625 -13.28125 
L 13.1875 -13.28125 
Q 16.890625 -13.28125 18.9375 -11.515625 
Q 21 -9.765625 23.484375 -3.21875 
L 25.09375 0.875 
L 2.984375 54.6875 
L 12.5 54.6875 
L 29.59375 11.921875 
L 46.6875 54.6875 
L 56.203125 54.6875 
z
" id="DejaVuSans-121"/>
     <path d="M 54.890625 33.015625 
L 54.890625 0 
L 45.90625 0 
L 45.90625 32.71875 
Q 45.90625 40.484375 42.875 44.328125 
Q 39.84375 48.1875 33.796875 48.1875 
Q 26.515625 48.1875 22.3125 43.546875 
Q 18.109375 38.921875 18.109375 30.90625 
L 18.109375 0 
L 9.078125 0 
L 9.078125 75.984375 
L 18.109375 75.984375 
L 18.109375 46.1875 
Q 21.34375 51.125 25.703125 53.5625 
Q 30.078125 56 35.796875 56 
Q 45.21875 56 50.046875 50.171875 
Q 54.890625 44.34375 54.890625 33.015625 
z
" id="DejaVuSans-104"/>
     <path d="M 30.609375 48.390625 
Q 23.390625 48.390625 19.1875 42.75 
Q 14.984375 37.109375 14.984375 27.296875 
Q 14.984375 17.484375 19.15625 11.84375 
Q 23.34375 6.203125 30.609375 6.203125 
Q 37.796875 6.203125 41.984375 11.859375 
Q 46.1875 17.53125 46.1875 27.296875 
Q 46.1875 37.015625 41.984375 42.703125 
Q 37.796875 48.390625 30.609375 48.390625 
z
M 30.609375 56 
Q 42.328125 56 49.015625 48.375 
Q 55.71875 40.765625 55.71875 27.296875 
Q 55.71875 13.875 49.015625 6.21875 
Q 42.328125 -1.421875 30.609375 -1.421875 
Q 18.84375 -1.421875 12.171875 6.21875 
Q 5.515625 13.875 5.515625 27.296875 
Q 5.515625 40.765625 12.171875 48.375 
Q 18.84375 56 30.609375 56 
z
" id="DejaVuSans-111"/>
    </defs>
    <g transform="translate(131.234469 165.82318)scale(0.07097 -0.07097)">
     <use xlink:href="#DejaVuSans-80"/>
     <use x="60.302734" xlink:href="#DejaVuSans-121"/>
     <use x="119.482422" xlink:href="#DejaVuSans-116"/>
     <use x="158.691406" xlink:href="#DejaVuSans-104"/>
     <use x="222.070312" xlink:href="#DejaVuSans-111"/>
     <use x="283.251953" xlink:href="#DejaVuSans-110"/>
    </g>
   </g>
   <g id="text_19">
    <!-- Java -->
    <g transform="translate(308.355554 177.611942)scale(0.062235 -0.062235)">
     <use xlink:href="#DejaVuSans-74"/>
     <use x="29.492188" xlink:href="#DejaVuSans-97"/>
     <use x="90.771484" xlink:href="#DejaVuSans-118"/>
     <use x="149.951172" xlink:href="#DejaVuSans-97"/>
    </g>
   </g>
   <g id="text_20">
    <!-- C++ -->
    <defs>
     <path d="M 64.40625 67.28125 
L 64.40625 56.890625 
Q 59.421875 61.53125 53.78125 63.8125 
Q 48.140625 66.109375 41.796875 66.109375 
Q 29.296875 66.109375 22.65625 58.46875 
Q 16.015625 50.828125 16.015625 36.375 
Q 16.015625 21.96875 22.65625 14.328125 
Q 29.296875 6.6875 41.796875 6.6875 
Q 48.140625 6.6875 53.78125 8.984375 
Q 59.421875 11.28125 64.40625 15.921875 
L 64.40625 5.609375 
Q 59.234375 2.09375 53.4375 0.328125 
Q 47.65625 -1.421875 41.21875 -1.421875 
Q 24.65625 -1.421875 15.125 8.703125 
Q 5.609375 18.84375 5.609375 36.375 
Q 5.609375 53.953125 15.125 64.078125 
Q 24.65625 74.21875 41.21875 74.21875 
Q 47.75 74.21875 53.53125 72.484375 
Q 59.328125 70.75 64.40625 67.28125 
z
" id="DejaVuSans-67"/>
     <path d="M 46 62.703125 
L 46 35.5 
L 73.1875 35.5 
L 73.1875 27.203125 
L 46 27.203125 
L 46 0 
L 37.796875 0 
L 37.796875 27.203125 
L 10.59375 27.203125 
L 10.59375 35.5 
L 37.796875 35.5 
L 37.796875 62.703125 
z
" id="DejaVuSans-43"/>
    </defs>
    <g transform="translate(303.884852 138.041088)scale(0.051789 -0.051789)">
     <use xlink:href="#DejaVuSans-67"/>
     <use x="69.824219" xlink:href="#DejaVuSans-43"/>
     <use x="153.613281" xlink:href="#DejaVuSans-43"/>
    </g>
   </g>
   <g id="text_21">
    <!-- Go -->
    <defs>
     <path d="M 59.515625 10.40625 
L 59.515625 29.984375 
L 43.40625 29.984375 
L 43.40625 38.09375 
L 69.28125 38.09375 
L 69.28125 6.78125 
Q 63.578125 2.734375 56.6875 0.65625 
Q 49.8125 -1.421875 42 -1.421875 
Q 24.90625 -1.421875 15.25 8.5625 
Q 5.609375 18.5625 5.609375 36.375 
Q 5.609375 54.25 15.25 64.234375 
Q 24.90625 74.21875 42 74.21875 
Q 49.125 74.21875 55.546875 72.453125 
Q 61.96875 70.703125 67.390625 67.28125 
L 67.390625 56.78125 
Q 61.921875 61.421875 55.765625 63.765625 
Q 49.609375 66.109375 42.828125 66.109375 
Q 29.4375 66.109375 22.71875 58.640625 
Q 16.015625 51.171875 16.015625 36.375 
Q 16.015625 21.625 22.71875 14.15625 
Q 29.4375 6.6875 42.828125 6.6875 
Q 48.046875 6.6875 52.140625 7.59375 
Q 56.25 8.5 59.515625 10.40625 
z
" id="DejaVuSans-71"/>
    </defs>
    <g transform="translate(302.990712 68.718912)scale(0.051346 -0.051346)">
     <use xlink:href="#DejaVuSans-71"/>
     <use x="77.490234" xlink:href="#DejaVuSans-111"/>
    </g>
   </g>
   <g id="text_22">
    <!-- PHP -->
    <defs>
     <path d="M 9.8125 72.90625 
L 19.671875 72.90625 
L 19.671875 43.015625 
L 55.515625 43.015625 
L 55.515625 72.90625 
L 65.375 72.90625 
L 65.375 0 
L 55.515625 0 
L 55.515625 34.71875 
L 19.671875 34.71875 
L 19.671875 0 
L 9.8125 0 
z
" id="DejaVuSans-72"/>
    </defs>
    <g transform="translate(128.714619 116.698905)scale(0.050033 -0.050033)">
     <use xlink:href="#DejaVuSans-80"/>
     <use x="60.302734" xlink:href="#DejaVuSans-72"/>
     <use x="135.498047" xlink:href="#DejaVuSans-80"/>
    </g>
   </g>
   <g id="text_23">
    <!-- C -->
    <g transform="translate(288.60318 169.868083)scale(0.04959 -0.04959)">
     <use xlink:href="#DejaVuSans-67"/>
    </g>
   </g>
   <g id="text_24">
    <!-- Objective-C -->
    <defs>
     <path d="M 39.40625 66.21875 
Q 28.65625 66.21875 22.328125 58.203125 
Q 16.015625 50.203125 16.015625 36.375 
Q 16.015625 22.609375 22.328125 14.59375 
Q 28.65625 6.59375 39.40625 6.59375 
Q 50.140625 6.59375 56.421875 14.59375 
Q 62.703125 22.609375 62.703125 36.375 
Q 62.703125 50.203125 56.421875 58.203125 
Q 50.140625 66.21875 39.40625 66.21875 
z
M 39.40625 74.21875 
Q 54.734375 74.21875 63.90625 63.9375 
Q 73.09375 53.65625 73.09375 36.375 
Q 73.09375 19.140625 63.90625 8.859375 
Q 54.734375 -1.421875 39.40625 -1.421875 
Q 24.03125 -1.421875 14.8125 8.828125 
Q 5.609375 19.09375 5.609375 36.375 
Q 5.609375 53.65625 14.8125 63.9375 
Q 24.03125 74.21875 39.40625 74.21875 
z
" id="DejaVuSans-79"/>
     <path d="M 48.6875 27.296875 
Q 48.6875 37.203125 44.609375 42.84375 
Q 40.53125 48.484375 33.40625 48.484375 
Q 26.265625 48.484375 22.1875 42.84375 
Q 18.109375 37.203125 18.109375 27.296875 
Q 18.109375 17.390625 22.1875 11.75 
Q 26.265625 6.109375 33.40625 6.109375 
Q 40.53125 6.109375 44.609375 11.75 
Q 48.6875 17.390625 48.6875 27.296875 
z
M 18.109375 46.390625 
Q 20.953125 51.265625 25.265625 53.625 
Q 29.59375 56 35.59375 56 
Q 45.5625 56 51.78125 48.09375 
Q 58.015625 40.1875 58.015625 27.296875 
Q 58.015625 14.40625 51.78125 6.484375 
Q 45.5625 -1.421875 35.59375 -1.421875 
Q 29.59375 -1.421875 25.265625 0.953125 
Q 20.953125 3.328125 18.109375 8.203125 
L 18.109375 0 
L 9.078125 0 
L 9.078125 75.984375 
L 18.109375 75.984375 
z
" id="DejaVuSans-98"/>
     <path d="M 9.421875 54.6875 
L 18.40625 54.6875 
L 18.40625 -0.984375 
Q 18.40625 -11.421875 14.421875 -16.109375 
Q 10.453125 -20.796875 1.609375 -20.796875 
L -1.8125 -20.796875 
L -1.8125 -13.1875 
L 0.59375 -13.1875 
Q 5.71875 -13.1875 7.5625 -10.8125 
Q 9.421875 -8.453125 9.421875 -0.984375 
z
M 9.421875 75.984375 
L 18.40625 75.984375 
L 18.40625 64.59375 
L 9.421875 64.59375 
z
" id="DejaVuSans-106"/>
     <path d="M 4.890625 31.390625 
L 31.203125 31.390625 
L 31.203125 23.390625 
L 4.890625 23.390625 
z
" id="DejaVuSans-45"/>
    </defs>
    <g transform="translate(339.97561 218.59319)scale(0.048157 -0.048157)">
     <use xlink:href="#DejaVuSans-79"/>
     <use x="78.710938" xlink:href="#DejaVuSans-98"/>
     <use x="142.1875" xlink:href="#DejaVuSans-106"/>
     <use x="169.970703" xlink:href="#DejaVuSans-101"/>
     <use x="231.494141" xlink:href="#DejaVuSans-99"/>
     <use x="286.474609" xlink:href="#DejaVuSans-116"/>
     <use x="325.683594" xlink:href="#DejaVuSans-105"/>
     <use x="353.466797" xlink:href="#DejaVuSans-118"/>
     <use x="412.646484" xlink:href="#DejaVuSans-101"/>
     <use x="474.169922" xlink:href="#DejaVuSans-45"/>
     <use x="510.253906" xlink:href="#DejaVuSans-67"/>
    </g>
   </g>
   <g id="text_25">
    <!-- Ruby -->
    <defs>
     <path d="M 44.390625 34.1875 
Q 47.5625 33.109375 50.5625 29.59375 
Q 53.5625 26.078125 56.59375 19.921875 
L 66.609375 0 
L 56 0 
L 46.6875 18.703125 
Q 43.0625 26.03125 39.671875 28.421875 
Q 36.28125 30.8125 30.421875 30.8125 
L 19.671875 30.8125 
L 19.671875 0 
L 9.8125 0 
L 9.8125 72.90625 
L 32.078125 72.90625 
Q 44.578125 72.90625 50.734375 67.671875 
Q 56.890625 62.453125 56.890625 51.90625 
Q 56.890625 45.015625 53.6875 40.46875 
Q 50.484375 35.9375 44.390625 34.1875 
z
M 19.671875 64.796875 
L 19.671875 38.921875 
L 32.078125 38.921875 
Q 39.203125 38.921875 42.84375 42.21875 
Q 46.484375 45.515625 46.484375 51.90625 
Q 46.484375 58.296875 42.84375 61.546875 
Q 39.203125 64.796875 32.078125 64.796875 
z
" id="DejaVuSans-82"/>
     <path d="M 8.5 21.578125 
L 8.5 54.6875 
L 17.484375 54.6875 
L 17.484375 21.921875 
Q 17.484375 14.15625 20.5 10.265625 
Q 23.53125 6.390625 29.59375 6.390625 
Q 36.859375 6.390625 41.078125 11.03125 
Q 45.3125 15.671875 45.3125 23.6875 
L 45.3125 54.6875 
L 54.296875 54.6875 
L 54.296875 0 
L 45.3125 0 
L 45.3125 8.40625 
Q 42.046875 3.421875 37.71875 1 
Q 33.40625 -1.421875 27.6875 -1.421875 
Q 18.265625 -1.421875 13.375 4.4375 
Q 8.5 10.296875 8.5 21.578125 
z
M 31.109375 56 
z
" id="DejaVuSans-117"/>
    </defs>
    <g transform="translate(127.170195 92.110156)scale(0.047902 -0.047902)">
     <use xlink:href="#DejaVuSans-82"/>
     <use x="69.419922" xlink:href="#DejaVuSans-117"/>
     <use x="132.798828" xlink:href="#DejaVuSans-98"/>
     <use x="196.275391" xlink:href="#DejaVuSans-121"/>
    </g>
   </g>
   <g id="text_26">
    <!-- C# -->
    <defs>
     <path d="M 51.125 44 
L 36.921875 44 
L 32.8125 27.6875 
L 47.125 27.6875 
z
M 43.796875 71.78125 
L 38.71875 51.515625 
L 52.984375 51.515625 
L 58.109375 71.78125 
L 65.921875 71.78125 
L 60.890625 51.515625 
L 76.125 51.515625 
L 76.125 44 
L 58.984375 44 
L 54.984375 27.6875 
L 70.515625 27.6875 
L 70.515625 20.21875 
L 53.078125 20.21875 
L 48 0 
L 40.1875 0 
L 45.21875 20.21875 
L 30.90625 20.21875 
L 25.875 0 
L 18.015625 0 
L 23.09375 20.21875 
L 7.71875 20.21875 
L 7.71875 27.6875 
L 24.90625 27.6875 
L 29 44 
L 13.28125 44 
L 13.28125 51.515625 
L 30.90625 51.515625 
L 35.890625 71.78125 
z
" id="DejaVuSans-35"/>
    </defs>
    <g transform="translate(127.414051 226.310438)scale(0.047076 -0.047076)">
     <use xlink:href="#DejaVuSans-67"/>
     <use x="69.824219" xlink:href="#DejaVuSans-35"/>
    </g>
   </g>
   <g id="text_27">
    <!-- TypeScript -->
    <defs>
     <path d="M -0.296875 72.90625 
L 61.375 72.90625 
L 61.375 64.59375 
L 35.5 64.59375 
L 35.5 0 
L 25.59375 0 
L 25.59375 64.59375 
L -0.296875 64.59375 
z
" id="DejaVuSans-84"/>
    </defs>
    <g transform="translate(333.960484 46.764672)scale(0.046754 -0.046754)">
     <use xlink:href="#DejaVuSans-84"/>
     <use x="60.849609" xlink:href="#DejaVuSans-121"/>
     <use x="120.029297" xlink:href="#DejaVuSans-112"/>
     <use x="183.505859" xlink:href="#DejaVuSans-101"/>
     <use x="245.029297" xlink:href="#DejaVuSans-83"/>
     <use x="308.505859" xlink:href="#DejaVuSans-99"/>
     <use x="363.486328" xlink:href="#DejaVuSans-114"/>
     <use x="404.599609" xlink:href="#DejaVuSans-105"/>
     <use x="432.382812" xlink:href="#DejaVuSans-112"/>
     <use x="495.859375" xlink:href="#DejaVuSans-116"/>
    </g>
   </g>
   <g id="text_28">
    <!-- HTML -->
    <defs>
     <path d="M 9.8125 72.90625 
L 24.515625 72.90625 
L 43.109375 23.296875 
L 61.8125 72.90625 
L 76.515625 72.90625 
L 76.515625 0 
L 66.890625 0 
L 66.890625 64.015625 
L 48.09375 14.015625 
L 38.1875 14.015625 
L 19.390625 64.015625 
L 19.390625 0 
L 9.8125 0 
z
" id="DejaVuSans-77"/>
     <path d="M 9.8125 72.90625 
L 19.671875 72.90625 
L 19.671875 8.296875 
L 55.171875 8.296875 
L 55.171875 0 
L 9.8125 0 
z
" id="DejaVuSans-76"/>
    </defs>
    <g transform="translate(129.771331 213.377395)scale(0.046424 -0.046424)">
     <use xlink:href="#DejaVuSans-72"/>
     <use x="75.195312" xlink:href="#DejaVuSans-84"/>
     <use x="136.279297" xlink:href="#DejaVuSans-77"/>
     <use x="222.558594" xlink:href="#DejaVuSans-76"/>
    </g>
   </g>
   <g id="text_29">
    <!-- Shell -->
    <defs>
     <path d="M 9.421875 75.984375 
L 18.40625 75.984375 
L 18.40625 0 
L 9.421875 0 
z
" id="DejaVuSans-108"/>
    </defs>
    <g transform="translate(130.340329 197.543731)scale(0.046123 -0.046123)">
     <use xlink:href="#DejaVuSans-83"/>
     <use x="63.476562" xlink:href="#DejaVuSans-104"/>
     <use x="126.855469" xlink:href="#DejaVuSans-101"/>
     <use x="188.378906" xlink:href="#DejaVuSans-108"/>
     <use x="216.162109" xlink:href="#DejaVuSans-108"/>
    </g>
   </g>
   <g id="text_30">
    <!-- Swift -->
    <defs>
     <path d="M 4.203125 54.6875 
L 13.1875 54.6875 
L 24.421875 12.015625 
L 35.59375 54.6875 
L 46.1875 54.6875 
L 57.421875 12.015625 
L 68.609375 54.6875 
L 77.59375 54.6875 
L 63.28125 0 
L 52.6875 0 
L 40.921875 44.828125 
L 29.109375 0 
L 18.5 0 
z
" id="DejaVuSans-119"/>
     <path d="M 37.109375 75.984375 
L 37.109375 68.5 
L 28.515625 68.5 
Q 23.6875 68.5 21.796875 66.546875 
Q 19.921875 64.59375 19.921875 59.515625 
L 19.921875 54.6875 
L 34.71875 54.6875 
L 34.71875 47.703125 
L 19.921875 47.703125 
L 19.921875 0 
L 10.890625 0 
L 10.890625 47.703125 
L 2.296875 47.703125 
L 2.296875 54.6875 
L 10.890625 54.6875 
L 10.890625 58.5 
Q 10.890625 67.625 15.140625 71.796875 
Q 19.390625 75.984375 28.609375 75.984375 
z
" id="DejaVuSans-102"/>
    </defs>
    <g transform="translate(302.909426 150.042739)scale(0.045501 -0.045501)">
     <use xlink:href="#DejaVuSans-83"/>
     <use x="63.476562" xlink:href="#DejaVuSans-119"/>
     <use x="145.263672" xlink:href="#DejaVuSans-105"/>
     <use x="173.046875" xlink:href="#DejaVuSans-102"/>
     <use x="208.236328" xlink:href="#DejaVuSans-116"/>
    </g>
   </g>
   <g id="text_31">
    <!-- CSS -->
    <g transform="translate(305.673133 218.566579)scale(0.044878 -0.044878)">
     <use xlink:href="#DejaVuSans-67"/>
     <use x="69.824219" xlink:href="#DejaVuSans-83"/>
     <use x="133.300781" xlink:href="#DejaVuSans-83"/>
    </g>
   </g>
   <g id="text_32">
    <!-- Jupyter Notebook -->
    <defs>
     <path id="DejaVuSans-32"/>
     <path d="M 9.8125 72.90625 
L 23.09375 72.90625 
L 55.421875 11.921875 
L 55.421875 72.90625 
L 64.984375 72.90625 
L 64.984375 0 
L 51.703125 0 
L 19.390625 60.984375 
L 19.390625 0 
L 9.8125 0 
z
" id="DejaVuSans-78"/>
     <path d="M 9.078125 75.984375 
L 18.109375 75.984375 
L 18.109375 31.109375 
L 44.921875 54.6875 
L 56.390625 54.6875 
L 27.390625 29.109375 
L 57.625 0 
L 45.90625 0 
L 18.109375 26.703125 
L 18.109375 0 
L 9.078125 0 
z
" id="DejaVuSans-107"/>
    </defs>
    <g transform="translate(284.376335 240.574041)scale(0.043444 -0.043444)">
     <use xlink:href="#DejaVuSans-74"/>
     <use x="29.492188" xlink:href="#DejaVuSans-117"/>
     <use x="92.871094" xlink:href="#DejaVuSans-112"/>
     <use x="156.347656" xlink:href="#DejaVuSans-121"/>
     <use x="215.527344" xlink:href="#DejaVuSans-116"/>
     <use x="254.736328" xlink:href="#DejaVuSans-101"/>
     <use x="316.259766" xlink:href="#DejaVuSans-114"/>
     <use x="357.373047" xlink:href="#DejaVuSans-32"/>
     <use x="389.160156" xlink:href="#DejaVuSans-78"/>
     <use x="463.964844" xlink:href="#DejaVuSans-111"/>
     <use x="525.146484" xlink:href="#DejaVuSans-116"/>
     <use x="564.355469" xlink:href="#DejaVuSans-101"/>
     <use x="625.878906" xlink:href="#DejaVuSans-98"/>
     <use x="689.355469" xlink:href="#DejaVuSans-111"/>
     <use x="750.537109" xlink:href="#DejaVuSans-111"/>
     <use x="811.71875" xlink:href="#DejaVuSans-107"/>
    </g>
   </g>
   <g id="text_33">
    <!-- Rust -->
    <g transform="translate(77.586045 25.369267)scale(0.042641 -0.042641)">
     <use xlink:href="#DejaVuSans-82"/>
     <use x="69.419922" xlink:href="#DejaVuSans-117"/>
     <use x="132.798828" xlink:href="#DejaVuSans-115"/>
     <use x="184.898438" xlink:href="#DejaVuSans-116"/>
    </g>
   </g>
   <g id="text_34">
    <!-- Kotlin -->
    <defs>
     <path d="M 9.8125 72.90625 
L 19.671875 72.90625 
L 19.671875 42.09375 
L 52.390625 72.90625 
L 65.09375 72.90625 
L 28.90625 38.921875 
L 67.671875 0 
L 54.6875 0 
L 19.671875 35.109375 
L 19.671875 0 
L 9.8125 0 
z
" id="DejaVuSans-75"/>
    </defs>
    <g transform="translate(123.512348 136.55086)scale(0.042131 -0.042131)">
     <use xlink:href="#DejaVuSans-75"/>
     <use x="65.498047" xlink:href="#DejaVuSans-111"/>
     <use x="126.679688" xlink:href="#DejaVuSans-116"/>
     <use x="165.888672" xlink:href="#DejaVuSans-108"/>
     <use x="193.671875" xlink:href="#DejaVuSans-105"/>
     <use x="221.455078" xlink:href="#DejaVuSans-110"/>
    </g>
   </g>
   <g id="text_35">
    <!-- Scala -->
    <g transform="translate(76.122907 83.780851)scale(0.041673 -0.041673)">
     <use xlink:href="#DejaVuSans-83"/>
     <use x="63.476562" xlink:href="#DejaVuSans-99"/>
     <use x="118.457031" xlink:href="#DejaVuSans-97"/>
     <use x="179.736328" xlink:href="#DejaVuSans-108"/>
     <use x="207.519531" xlink:href="#DejaVuSans-97"/>
    </g>
   </g>
   <g id="text_36">
    <!-- Vue -->
    <defs>
     <path d="M 28.609375 0 
L 0.78125 72.90625 
L 11.078125 72.90625 
L 34.1875 11.53125 
L 57.328125 72.90625 
L 67.578125 72.90625 
L 39.796875 0 
z
" id="DejaVuSans-86"/>
    </defs>
    <g transform="translate(307.70527 194.137497)scale(0.041396 -0.041396)">
     <use xlink:href="#DejaVuSans-86"/>
     <use x="68.314453" xlink:href="#DejaVuSans-117"/>
     <use x="131.693359" xlink:href="#DejaVuSans-101"/>
    </g>
   </g>
   <g id="text_37">
    <!-- Dart -->
    <defs>
     <path d="M 19.671875 64.796875 
L 19.671875 8.109375 
L 31.59375 8.109375 
Q 46.6875 8.109375 53.6875 14.9375 
Q 60.6875 21.78125 60.6875 36.53125 
Q 60.6875 51.171875 53.6875 57.984375 
Q 46.6875 64.796875 31.59375 64.796875 
z
M 9.8125 72.90625 
L 30.078125 72.90625 
Q 51.265625 72.90625 61.171875 64.09375 
Q 71.09375 55.28125 71.09375 36.53125 
Q 71.09375 17.671875 61.125 8.828125 
Q 51.171875 0 30.078125 0 
L 9.8125 0 
z
" id="DejaVuSans-68"/>
    </defs>
    <g transform="translate(77.586045 215.346624)scale(0.041261 -0.041261)">
     <use xlink:href="#DejaVuSans-68"/>
     <use x="77.001953" xlink:href="#DejaVuSans-97"/>
     <use x="138.28125" xlink:href="#DejaVuSans-114"/>
     <use x="179.394531" xlink:href="#DejaVuSans-116"/>
    </g>
   </g>
   <g id="text_38">
    <!-- Vim script -->
    <defs>
     <path d="M 52 44.1875 
Q 55.375 50.25 60.0625 53.125 
Q 64.75 56 71.09375 56 
Q 79.640625 56 84.28125 50.015625 
Q 88.921875 44.046875 88.921875 33.015625 
L 88.921875 0 
L 79.890625 0 
L 79.890625 32.71875 
Q 79.890625 40.578125 77.09375 44.375 
Q 74.3125 48.1875 68.609375 48.1875 
Q 61.625 48.1875 57.5625 43.546875 
Q 53.515625 38.921875 53.515625 30.90625 
L 53.515625 0 
L 44.484375 0 
L 44.484375 32.71875 
Q 44.484375 40.625 41.703125 44.40625 
Q 38.921875 48.1875 33.109375 48.1875 
Q 26.21875 48.1875 22.15625 43.53125 
Q 18.109375 38.875 18.109375 30.90625 
L 18.109375 0 
L 9.078125 0 
L 9.078125 54.6875 
L 18.109375 54.6875 
L 18.109375 46.1875 
Q 21.1875 51.21875 25.484375 53.609375 
Q 29.78125 56 35.6875 56 
Q 41.65625 56 45.828125 52.96875 
Q 50 49.953125 52 44.1875 
z
" id="DejaVuSans-109"/>
    </defs>
    <g transform="translate(127.739193 177.931276)scale(0.041208 -0.041208)">
     <use xlink:href="#DejaVuSans-86"/>
     <use x="68.376953" xlink:href="#DejaVuSans-105"/>
     <use x="96.160156" xlink:href="#DejaVuSans-109"/>
     <use x="193.572266" xlink:href="#DejaVuSans-32"/>
     <use x="225.359375" xlink:href="#DejaVuSans-115"/>
     <use x="277.458984" xlink:href="#DejaVuSans-99"/>
     <use x="332.439453" xlink:href="#DejaVuSans-114"/>
     <use x="373.552734" xlink:href="#DejaVuSans-105"/>
     <use x="401.335938" xlink:href="#DejaVuSans-112"/>
     <use x="464.8125" xlink:href="#DejaVuSans-116"/>
    </g>
   </g>
   <g id="text_39">
    <!-- Clojure -->
    <g transform="translate(79.211755 144.055219)scale(0.041111 -0.041111)">
     <use xlink:href="#DejaVuSans-67"/>
     <use x="69.824219" xlink:href="#DejaVuSans-108"/>
     <use x="97.607422" xlink:href="#DejaVuSans-111"/>
     <use x="158.789062" xlink:href="#DejaVuSans-106"/>
     <use x="186.572266" xlink:href="#DejaVuSans-117"/>
     <use x="249.951172" xlink:href="#DejaVuSans-114"/>
     <use x="291.033203" xlink:href="#DejaVuSans-101"/>
    </g>
   </g>
   <g id="text_40">
    <!-- R -->
    <g transform="translate(63.198514 99.694348)scale(0.040968 -0.040968)">
     <use xlink:href="#DejaVuSans-82"/>
    </g>
   </g>
   <g id="text_41">
    <!-- CoffeeScript -->
    <g transform="translate(102.052978 151.39991)scale(0.040953 -0.040953)">
     <use xlink:href="#DejaVuSans-67"/>
     <use x="69.824219" xlink:href="#DejaVuSans-111"/>
     <use x="131.005859" xlink:href="#DejaVuSans-102"/>
     <use x="166.210938" xlink:href="#DejaVuSans-102"/>
     <use x="201.416016" xlink:href="#DejaVuSans-101"/>
     <use x="262.939453" xlink:href="#DejaVuSans-101"/>
     <use x="324.462891" xlink:href="#DejaVuSans-83"/>
     <use x="387.939453" xlink:href="#DejaVuSans-99"/>
     <use x="442.919922" xlink:href="#DejaVuSans-114"/>
     <use x="484.033203" xlink:href="#DejaVuSans-105"/>
     <use x="511.816406" xlink:href="#DejaVuSans-112"/>
     <use x="575.292969" xlink:href="#DejaVuSans-116"/>
    </g>
   </g>
   <g id="text_42">
    <!-- Lua -->
    <g transform="translate(127.820479 196.399449)scale(0.040916 -0.040916)">
     <use xlink:href="#DejaVuSans-76"/>
     <use x="55.697266" xlink:href="#DejaVuSans-117"/>
     <use x="119.076172" xlink:href="#DejaVuSans-97"/>
    </g>
   </g>
   <g id="text_43">
    <!-- Haskell -->
    <g transform="translate(66.368648 92.376268)scale(0.040908 -0.040908)">
     <use xlink:href="#DejaVuSans-72"/>
     <use x="75.195312" xlink:href="#DejaVuSans-97"/>
     <use x="136.474609" xlink:href="#DejaVuSans-115"/>
     <use x="188.574219" xlink:href="#DejaVuSans-107"/>
     <use x="246.4375" xlink:href="#DejaVuSans-101"/>
     <use x="307.960938" xlink:href="#DejaVuSans-108"/>
     <use x="335.744141" xlink:href="#DejaVuSans-108"/>
    </g>
   </g>
   <g id="text_44">
    <!-- Emacs Lisp -->
    <defs>
     <path d="M 9.8125 72.90625 
L 55.90625 72.90625 
L 55.90625 64.59375 
L 19.671875 64.59375 
L 19.671875 43.015625 
L 54.390625 43.015625 
L 54.390625 34.71875 
L 19.671875 34.71875 
L 19.671875 8.296875 
L 56.78125 8.296875 
L 56.78125 0 
L 9.8125 0 
z
" id="DejaVuSans-69"/>
    </defs>
    <g transform="translate(76.854476 164.519232)scale(0.04078 -0.04078)">
     <use xlink:href="#DejaVuSans-69"/>
     <use x="63.183594" xlink:href="#DejaVuSans-109"/>
     <use x="160.595703" xlink:href="#DejaVuSans-97"/>
     <use x="221.875" xlink:href="#DejaVuSans-99"/>
     <use x="276.855469" xlink:href="#DejaVuSans-115"/>
     <use x="328.955078" xlink:href="#DejaVuSans-32"/>
     <use x="360.742188" xlink:href="#DejaVuSans-76"/>
     <use x="416.455078" xlink:href="#DejaVuSans-105"/>
     <use x="444.238281" xlink:href="#DejaVuSans-115"/>
     <use x="496.337891" xlink:href="#DejaVuSans-112"/>
    </g>
   </g>
   <g id="text_45">
    <!-- TeX -->
    <defs>
     <path d="M 6.296875 72.90625 
L 16.890625 72.90625 
L 35.015625 45.796875 
L 53.21875 72.90625 
L 63.8125 72.90625 
L 40.375 37.890625 
L 65.375 0 
L 54.78125 0 
L 34.28125 31 
L 13.625 0 
L 2.984375 0 
L 29 38.921875 
z
" id="DejaVuSans-88"/>
    </defs>
    <g transform="translate(123.918775 223.303372)scale(0.040668 -0.040668)">
     <use xlink:href="#DejaVuSans-84"/>
     <use x="60.818359" xlink:href="#DejaVuSans-101"/>
     <use x="122.341797" xlink:href="#DejaVuSans-88"/>
    </g>
   </g>
   <g id="text_46">
    <!-- PowerShell -->
    <g transform="translate(387.852765 258.96238)scale(0.04066 -0.04066)">
     <use xlink:href="#DejaVuSans-80"/>
     <use x="60.255859" xlink:href="#DejaVuSans-111"/>
     <use x="121.4375" xlink:href="#DejaVuSans-119"/>
     <use x="203.224609" xlink:href="#DejaVuSans-101"/>
     <use x="264.748047" xlink:href="#DejaVuSans-114"/>
     <use x="305.861328" xlink:href="#DejaVuSans-83"/>
     <use x="369.337891" xlink:href="#DejaVuSans-104"/>
     <use x="432.716797" xlink:href="#DejaVuSans-101"/>
     <use x="494.240234" xlink:href="#DejaVuSans-108"/>
     <use x="522.023438" xlink:href="#DejaVuSans-108"/>
    </g>
   </g>
  </g>
 </g>
 <defs>
  <clipPath id="pc6f3000a6b">
   <rect height="266.112" width="357.12" x="46.965625" y="10.999219"/>
  </clipPath>
 </defs>
</svg>
