<svg class="main-svg" xmlns="http://www.w3.org/2000/svg" xmlns:xlink="http://www.w3.org/1999/xlink" width="700" height="500" viewBox="0 0 700 500"><rect x="0" y="0" width="700" height="500" style="fill: rgb(255, 255, 255); fill-opacity: 1;"/><defs id="defs-4b7a2d"><g class="clips"/><g class="gradients"/></defs><g class="bglayer"/><g class="layer-below"><g class="imagelayer"/><g class="shapelayer"/></g><g class="cartesianlayer"/><g class="polarlayer"/><g class="ternarylayer"/><g class="geolayer"/><g class="funnelarealayer"/><g class="pielayer"/><g class="treemaplayer"/><g class="sunburstlayer"/><g class="glimages"/><g class="sankey" transform="translate(80,100)matrix(1 0 0 1 0 0)" style="box-sizing: content-box; position: absolute; left: 0px; shape-rendering: geometricPrecision; pointer-events: auto;"><g class="sankey-links" style="fill: none;"><path class="sankey-link" d="M20,318.5060975609756C140,318.5060975609756 140,0.10799294739935356 260,0.10799294739935356L260,0.6479576843961212C140,0.6479576843961212 140,319.0460622979724 20,319.0460622979724Z" style="stroke: rgb(0, 0, 0); stroke-opacity: 0.2; fill: rgb(0, 0, 0); fill-opacity: 0.2; stroke-width: 1; opacity: 1;"/><path class="sankey-link" d="M20,30.000000000000178C140,30.000000000000178 140,0 260,0L260,0.10799294739935353C140,0.10799294739935353 140,30.10799294739953 20,30.10799294739953Z" style="stroke: rgb(0, 0, 0); stroke-opacity: 0.2; fill: rgb(0, 0, 0); fill-opacity: 0.2; stroke-width: 1; opacity: 1;"/><path class="sankey-link" d="M20,30.485968263297266C140,30.485968263297266 140,31.097928298560078 260,31.097928298560078L260,31.27791654422567C140,31.27791654422567 140,30.665956508962857 20,30.665956508962857Z" style="stroke: rgb(0, 0, 0); stroke-opacity: 0.2; fill: rgb(0, 0, 0); fill-opacity: 0.2; stroke-width: 1; opacity: 1;"/><path class="sankey-link" d="M20,284.3193505730238C140,284.3193505730238 140,16.07992947399356 260,16.07992947399356L260,16.09792829856012C140,16.09792829856012 140,284.3373493975904 20,284.3373493975904Z" style="stroke: rgb(0, 0, 0); stroke-opacity: 0.2; fill: rgb(0, 0, 0); fill-opacity: 0.2; stroke-width: 1; opacity: 1;"/><path class="sankey-link" d="M20,229.9019247722599C140,229.9019247722599 140,16.025933000293882 260,16.025933000293882L260,16.07992947399356C140,16.07992947399356 140,229.95592124595956 20,229.95592124595956Z" style="stroke: rgb(0, 0, 0); stroke-opacity: 0.2; fill: rgb(0, 0, 0); fill-opacity: 0.2; stroke-width: 1; opacity: 1;"/><path class="sankey-link" d="M20,30.10799294739953C140,30.10799294739953 140,15.647957684396147 260,15.647957684396147L260,16.025933000293882C140,16.025933000293882 140,30.485968263297266 20,30.485968263297266Z" style="stroke: rgb(0, 0, 0); stroke-opacity: 0.2; fill: rgb(0, 0, 0); fill-opacity: 0.2; stroke-width: 1; opacity: 1;"/><path class="sankey-link" d="M20,284.3373493975904C140,284.3373493975904 140,299.87731413458744 260,299.87731413458744L260,319.04606229797264C140,319.04606229797264 140,303.5060975609756 20,303.5060975609756Z" style="stroke: rgb(68, 68, 68); stroke-opacity: 1; fill: rgb(0, 0, 0); fill-opacity: 0.2; stroke-width: 0; opacity: 1;"/><path class="sankey-link" d="M20,319.04606229797236C140,319.04606229797236 140,334.0460622979727 260,334.0460622979727L260,335.0000000000003C140,335.0000000000003 140,319.99999999999994 20,319.99999999999994Z" style="stroke: rgb(0, 0, 0); stroke-opacity: 0.2; fill: rgb(0, 0, 0); fill-opacity: 0.2; stroke-width: 1; opacity: 1;"/><path class="sankey-link" d="M20,229.95592124595956C140,229.95592124595956 140,245.51388480752294 260,245.51388480752294L260,284.8773141345873C140,284.8773141345873 140,269.31935057302394 20,269.31935057302394Z" style="stroke: rgb(68, 68, 68); stroke-opacity: 1; fill: rgb(0, 0, 0); fill-opacity: 0.2; stroke-width: 0; opacity: 1;"/><path class="sankey-link" d="M20,30.66595650896285C140,30.66595650896285 140,46.27791654422565 260,46.27791654422565L260,230.51388480752274C140,230.51388480752274 140,214.90192477225997 20,214.90192477225997Z" style="stroke: rgb(68, 68, 68); stroke-opacity: 1; fill: rgb(0, 0, 0); fill-opacity: 0.2; stroke-width: 0; opacity: 1;"/><path class="sankey-link" d="M280,318.0424903364674C400,318.0424903364674 400,287.8561025087334 520,287.8561025087334L520,288.85967447023864C400,288.85967447023864 400,319.04606229797264 280,319.04606229797264Z" style="stroke: rgb(68, 68, 68); stroke-opacity: 1; fill: rgb(0, 0, 0); fill-opacity: 0.2; stroke-width: 0; opacity: 1;"/><path class="sankey-link" d="M280,334.9576027687991C400,334.9576027687991 400,288.8596744702387 520,288.8596744702387L520,288.9020717014399C400,288.9020717014399 400,335.00000000000034 280,335.00000000000034Z" style="stroke: rgb(0, 0, 0); stroke-opacity: 0.2; fill: rgb(0, 0, 0); fill-opacity: 0.2; stroke-width: 1; opacity: 1;"/><path class="sankey-link" d="M280,283.3824838442078C400,283.3824838442078 400,286.3612722183539 520,286.3612722183539L520,287.8561025087334C400,287.8561025087334 400,284.87731413458727 280,284.87731413458727Z" style="stroke: rgb(68, 68, 68); stroke-opacity: 1; fill: rgb(0, 0, 0); fill-opacity: 0.2; stroke-width: 0; opacity: 1;"/><path class="sankey-link" d="M280,217.96903148112847C400,217.96903148112847 400,273.81641889195964 520,273.81641889195964L520,286.361272218354C400,286.361272218354 400,230.51388480752274 280,230.51388480752274Z" style="stroke: rgb(68, 68, 68); stroke-opacity: 1; fill: rgb(0, 0, 0); fill-opacity: 0.2; stroke-width: 0; opacity: 1;"/><path class="sankey-link" d="M280,316.543334088561C400,316.543334088561 400,257.2220688607902 520,257.2220688607902L520,258.7212251086966C400,258.7212251086966 400,318.0424903364674 280,318.0424903364674Z" style="stroke: rgb(68, 68, 68); stroke-opacity: 1; fill: rgb(0, 0, 0); fill-opacity: 0.2; stroke-width: 0; opacity: 1;"/><path class="sankey-link" d="M280,334.862408985536C400,334.862408985536 400,258.7212251086966 520,258.7212251086966L520,258.8164188919597C400,258.8164188919597 400,334.95760276879906 280,334.95760276879906Z" style="stroke: rgb(0, 0, 0); stroke-opacity: 0.2; fill: rgb(0, 0, 0); fill-opacity: 0.2; stroke-width: 1; opacity: 1;"/><path class="sankey-link" d="M280,278.5632710442327C400,278.5632710442327 400,252.4028560608151 520,252.4028560608151L520,257.2220688607902C400,257.2220688607902 400,283.38248384420774 280,283.38248384420774Z" style="stroke: rgb(68, 68, 68); stroke-opacity: 1; fill: rgb(0, 0, 0); fill-opacity: 0.2; stroke-width: 0; opacity: 1;"/><path class="sankey-link" d="M280,195.33224959358017C400,195.33224959358017 400,229.76607417326682 520,229.76607417326682L520,252.4028560608151C400,252.4028560608151 400,217.96903148112847 280,217.96903148112847Z" style="stroke: rgb(68, 68, 68); stroke-opacity: 1; fill: rgb(0, 0, 0); fill-opacity: 0.2; stroke-width: 0; opacity: 1;"/><path class="sankey-link" d="M280,299.87731413458744C400,299.87731413458744 400,182.1037192860644 520,182.1037192860644L520,198.76973924003795C400,198.76973924003795 400,316.543334088561 280,316.543334088561Z" style="stroke: rgb(68, 68, 68); stroke-opacity: 1; fill: rgb(0, 0, 0); fill-opacity: 0.2; stroke-width: 0; opacity: 1;"/><path class="sankey-link" d="M280,334.0460622979727C400,334.0460622979727 400,198.76973924003795 520,198.76973924003795L520,199.58608592760123C400,199.58608592760123 400,334.862408985536 280,334.862408985536Z" style="stroke: rgb(0, 0, 0); stroke-opacity: 0.2; fill: rgb(0, 0, 0); fill-opacity: 0.2; stroke-width: 1; opacity: 1;"/><path class="sankey-link" d="M280,245.5138848075229C400,245.5138848075229 400,149.05433304935463 520,149.05433304935463L520,182.1037192860644C400,182.1037192860644 400,278.5632710442327 280,278.5632710442327Z" style="stroke: rgb(68, 68, 68); stroke-opacity: 1; fill: rgb(0, 0, 0); fill-opacity: 0.2; stroke-width: 0; opacity: 1;"/><path class="sankey-link" d="M280,46.27791654422566C400,46.27791654422566 400,1.1368683772161603e-13 520,1.1368683772161603e-13L520,149.05433304935463C400,149.05433304935463 400,195.33224959358017 280,195.33224959358017Z" style="stroke: rgb(68, 68, 68); stroke-opacity: 1; fill: rgb(0, 0, 0); fill-opacity: 0.2; stroke-width: 0; opacity: 1;"/></g><g class="sankey-node-set" style="cursor: move;"><g class="sankey-node" transform="translate(260.000, 0.000)" style="opacity: 1;"><rect class="node-rect" width="20" height="0.6479576843961468" style="stroke-width: 0.5; stroke: rgb(0, 0, 0); stroke-opacity: 1; fill: rgb(0, 0, 255); fill-opacity: 1;"/><rect class="node-capture" x="-10" y="-7.5" width="40" height="15.647957684396147" style="fill-opacity: 0;"/><g class="node-entered" transform="translate(0 1.3239788421980734)"><path class="node-label-guide" id="78600f_0_node_0" d="M24,0L540,0" transform="matrix(1 0 0 1 0 0)"/><text class="node-label" transform="scale(1 1)" style="user-select: none; cursor: default; fill: rgb(42, 63, 95); text-shadow: rgb(255, 255, 255) -1px 1px 1px, rgb(255, 255, 255) 1px 1px 1px, rgb(255, 255, 255) 1px -1px 1px, rgb(255, 255, 255) -1px -1px 1px; font-family: 'Open Sans', verdana, arial, sans-serif; font-size: 10px; fill-opacity: 1;"><textPath class="node-label-text-path" alignment-baseline="middle" xlink:href="#78600f_0_node_0" startOffset="0%" text-anchor="start" style="fill: rgb(0, 0, 0);">composer error</textPath></text></g></g><g class="sankey-node" transform="translate(260.000, 31.098)" style="opacity: 1;"><rect class="node-rect" width="20" height="0.5" style="stroke-width: 0.5; stroke: rgb(0, 0, 0); stroke-opacity: 1; fill: rgb(0, 0, 255); fill-opacity: 1;"/><rect class="node-capture" x="-10" y="-7.5" width="40" height="15.5" style="fill-opacity: 0;"/><g class="node-entered" transform="translate(0 1.0899941228327918)"><path class="node-label-guide" id="78600f_0_node_1" d="M24,0L540,0" transform="matrix(1 0 0 1 0 0)"/><text class="node-label" transform="scale(1 1)" style="user-select: none; cursor: default; fill: rgb(42, 63, 95); text-shadow: rgb(255, 255, 255) -1px 1px 1px, rgb(255, 255, 255) 1px 1px 1px, rgb(255, 255, 255) 1px -1px 1px, rgb(255, 255, 255) -1px -1px 1px; font-family: 'Open Sans', verdana, arial, sans-serif; font-size: 10px; fill-opacity: 1;"><textPath class="node-label-text-path" alignment-baseline="middle" xlink:href="#78600f_0_node_1" startOffset="0%" text-anchor="start" style="fill: rgb(0, 0, 0);">parse error</textPath></text></g></g><g class="sankey-node" transform="translate(260.000, 15.648)" style="opacity: 1;"><rect class="node-rect" width="20" height="0.5" style="stroke-width: 0.5; stroke: rgb(0, 0, 0); stroke-opacity: 1; fill: rgb(0, 0, 255); fill-opacity: 1;"/><rect class="node-capture" x="-10" y="-7.5" width="40" height="15.5" style="fill-opacity: 0;"/><g class="node-entered" transform="translate(0 1.2249853070819654)"><path class="node-label-guide" id="78600f_0_node_2" d="M24,0L540,0" transform="matrix(1 0 0 1 0 0)"/><text class="node-label" transform="scale(1 1)" style="user-select: none; cursor: default; fill: rgb(42, 63, 95); text-shadow: rgb(255, 255, 255) -1px 1px 1px, rgb(255, 255, 255) 1px 1px 1px, rgb(255, 255, 255) 1px -1px 1px, rgb(255, 255, 255) -1px -1px 1px; font-family: 'Open Sans', verdana, arial, sans-serif; font-size: 10px; fill-opacity: 1;"><textPath class="node-label-text-path" alignment-baseline="middle" xlink:href="#78600f_0_node_2" startOffset="0%" text-anchor="start" style="fill: rgb(0, 0, 0);">scanner error</textPath></text></g></g><g class="sankey-node" transform="translate(0.000, 284.319)" style="opacity: 1;"><rect class="node-rect" width="20" height="19.18674698795178" style="stroke-width: 0.5; stroke: rgb(0, 0, 0); stroke-opacity: 1; fill: rgb(0, 0, 255); fill-opacity: 1;"/><rect class="node-capture" x="-10" y="-7.5" width="40" height="34.18674698795178" style="fill-opacity: 0;"/><g class="node-entered" transform="translate(0 10.59337349397589)"><path class="node-label-guide" id="78600f_0_node_4" d="M24,0L540,0" transform="matrix(1 0 0 1 0 0)"/><text class="node-label" transform="scale(1 1)" style="user-select: none; cursor: default; fill: rgb(42, 63, 95); text-shadow: rgb(255, 255, 255) -1px 1px 1px, rgb(255, 255, 255) 1px 1px 1px, rgb(255, 255, 255) 1px -1px 1px, rgb(255, 255, 255) -1px -1px 1px; font-family: 'Open Sans', verdana, arial, sans-serif; font-size: 10px; fill-opacity: 1;"><textPath class="node-label-text-path" alignment-baseline="middle" xlink:href="#78600f_0_node_4" startOffset="0%" text-anchor="start" style="fill: rgb(0, 0, 0);">drone</textPath></text></g></g><g class="sankey-node" transform="translate(0.000, 318.506)" style="opacity: 1;"><rect class="node-rect" width="20" height="1.4939024390243958" style="stroke-width: 0.5; stroke: rgb(0, 0, 0); stroke-opacity: 1; fill: rgb(0, 0, 255); fill-opacity: 1;"/><rect class="node-capture" x="-10" y="-7.5" width="40" height="16.493902439024396" style="fill-opacity: 0;"/><g class="node-entered" transform="translate(0 1.746951219512198)"><path class="node-label-guide" id="78600f_0_node_5" d="M24,0L540,0" transform="matrix(1 0 0 1 0 0)"/><text class="node-label" transform="scale(1 1)" style="user-select: none; cursor: default; fill: rgb(42, 63, 95); text-shadow: rgb(255, 255, 255) -1px 1px 1px, rgb(255, 255, 255) 1px 1px 1px, rgb(255, 255, 255) 1px -1px 1px, rgb(255, 255, 255) -1px -1px 1px; font-family: 'Open Sans', verdana, arial, sans-serif; font-size: 10px; fill-opacity: 1;"><textPath class="node-label-text-path" alignment-baseline="middle" xlink:href="#78600f_0_node_5" startOffset="0%" text-anchor="start" style="fill: rgb(0, 0, 0);">github</textPath></text></g></g><g class="sankey-node" transform="translate(0.000, 229.902)" style="opacity: 1;"><rect class="node-rect" width="20" height="39.41742580076394" style="stroke-width: 0.5; stroke: rgb(0, 0, 0); stroke-opacity: 1; fill: rgb(0, 0, 255); fill-opacity: 1;"/><rect class="node-capture" x="-10" y="-7.5" width="40" height="54.41742580076394" style="fill-opacity: 0;"/><g class="node-entered" transform="translate(0 20.70871290038197)"><path class="node-label-guide" id="78600f_0_node_6" d="M24,0L540,0" transform="matrix(1 0 0 1 0 0)"/><text class="node-label" transform="scale(1 1)" style="user-select: none; cursor: default; fill: rgb(42, 63, 95); text-shadow: rgb(255, 255, 255) -1px 1px 1px, rgb(255, 255, 255) 1px 1px 1px, rgb(255, 255, 255) 1px -1px 1px, rgb(255, 255, 255) -1px -1px 1px; font-family: 'Open Sans', verdana, arial, sans-serif; font-size: 10px; fill-opacity: 1;"><textPath class="node-label-text-path" alignment-baseline="middle" xlink:href="#78600f_0_node_6" startOffset="0%" text-anchor="start" style="fill: rgb(0, 0, 0);">travis</textPath></text></g></g><g class="sankey-node" transform="translate(0.000, 30.000)" style="opacity: 1;"><rect class="node-rect" width="20" height="184.90192477225972" style="stroke-width: 0.5; stroke: rgb(0, 0, 0); stroke-opacity: 1; fill: rgb(0, 0, 255); fill-opacity: 1;"/><rect class="node-capture" x="-10" y="-7.5" width="40" height="199.90192477225972" style="fill-opacity: 0;"/><g class="node-entered" transform="translate(0 93.45096238612986)"><path class="node-label-guide" id="78600f_0_node_7" d="M24,0L540,0" transform="matrix(1 0 0 1 0 0)"/><text class="node-label" transform="scale(1 1)" style="user-select: none; cursor: default; fill: rgb(42, 63, 95); text-shadow: rgb(255, 255, 255) -1px 1px 1px, rgb(255, 255, 255) 1px 1px 1px, rgb(255, 255, 255) 1px -1px 1px, rgb(255, 255, 255) -1px -1px 1px; font-family: 'Open Sans', verdana, arial, sans-serif; font-size: 10px; fill-opacity: 1;"><textPath class="node-label-text-path" alignment-baseline="middle" xlink:href="#78600f_0_node_7" startOffset="0%" text-anchor="start" style="fill: rgb(0, 0, 0);">circleci valid</textPath></text></g></g><g class="sankey-node" transform="translate(260.000, 299.877)" style="opacity: 1;"><rect class="node-rect" width="20" height="19.16874816338526" style="stroke-width: 0.5; stroke: rgb(0, 0, 0); stroke-opacity: 1; fill: rgb(0, 0, 255); fill-opacity: 1;"/><rect class="node-capture" x="-10" y="-7.5" width="40" height="34.16874816338526" style="fill-opacity: 0;"/><g class="node-entered" transform="translate(0 10.58437408169263)"><path class="node-label-guide" id="78600f_0_node_8" d="M24,0L540,0" transform="matrix(1 0 0 1 0 0)"/><text class="node-label" transform="scale(1 1)" style="user-select: none; cursor: default; fill: rgb(42, 63, 95); text-shadow: rgb(255, 255, 255) -1px 1px 1px, rgb(255, 255, 255) 1px 1px 1px, rgb(255, 255, 255) 1px -1px 1px, rgb(255, 255, 255) -1px -1px 1px; font-family: 'Open Sans', verdana, arial, sans-serif; font-size: 10px; fill-opacity: 1;"><textPath class="node-label-text-path" alignment-baseline="middle" xlink:href="#78600f_0_node_8" startOffset="0%" text-anchor="start" style="fill: rgb(0, 0, 0);">drone valid</textPath></text></g></g><g class="sankey-node" transform="translate(260.000, 334.046)" style="opacity: 1;"><rect class="node-rect" width="20" height="0.9539377020276447" style="stroke-width: 0.5; stroke: rgb(0, 0, 0); stroke-opacity: 1; fill: rgb(0, 0, 255); fill-opacity: 1;"/><rect class="node-capture" x="-10" y="-7.5" width="40" height="15.953937702027645" style="fill-opacity: 0;"/><g class="node-entered" transform="translate(0 1.4769688510138224)"><path class="node-label-guide" id="78600f_0_node_9" d="M24,0L540,0" transform="matrix(1 0 0 1 0 0)"/><text class="node-label" transform="scale(1 1)" style="user-select: none; cursor: default; fill: rgb(42, 63, 95); text-shadow: rgb(255, 255, 255) -1px 1px 1px, rgb(255, 255, 255) 1px 1px 1px, rgb(255, 255, 255) 1px -1px 1px, rgb(255, 255, 255) -1px -1px 1px; font-family: 'Open Sans', verdana, arial, sans-serif; font-size: 10px; fill-opacity: 1;"><textPath class="node-label-text-path" alignment-baseline="middle" xlink:href="#78600f_0_node_9" startOffset="0%" text-anchor="start" style="fill: rgb(0, 0, 0);">github valid</textPath></text></g></g><g class="sankey-node" transform="translate(260.000, 245.514)" style="opacity: 1;"><rect class="node-rect" width="20" height="39.36342932706452" style="stroke-width: 0.5; stroke: rgb(0, 0, 0); stroke-opacity: 1; fill: rgb(0, 0, 255); fill-opacity: 1;"/><rect class="node-capture" x="-10" y="-7.5" width="40" height="54.36342932706452" style="fill-opacity: 0;"/><g class="node-entered" transform="translate(0 20.68171466353226)"><path class="node-label-guide" id="78600f_0_node_10" d="M24,0L540,0" transform="matrix(1 0 0 1 0 0)"/><text class="node-label" transform="scale(1 1)" style="user-select: none; cursor: default; fill: rgb(42, 63, 95); text-shadow: rgb(255, 255, 255) -1px 1px 1px, rgb(255, 255, 255) 1px 1px 1px, rgb(255, 255, 255) 1px -1px 1px, rgb(255, 255, 255) -1px -1px 1px; font-family: 'Open Sans', verdana, arial, sans-serif; font-size: 10px; fill-opacity: 1;"><textPath class="node-label-text-path" alignment-baseline="middle" xlink:href="#78600f_0_node_10" startOffset="0%" text-anchor="start" style="fill: rgb(0, 0, 0);">travis valid</textPath></text></g></g><g class="sankey-node" transform="translate(260.000, 46.278)" style="opacity: 1;"><rect class="node-rect" width="20" height="184.23596826329725" style="stroke-width: 0.5; stroke: rgb(0, 0, 0); stroke-opacity: 1; fill: rgb(0, 0, 255); fill-opacity: 1;"/><rect class="node-capture" x="-10" y="-7.5" width="40" height="199.23596826329725" style="fill-opacity: 0;"/><g class="node-entered" transform="translate(0 93.11798413164863)"><path class="node-label-guide" id="78600f_0_node_11" d="M24,0L540,0" transform="matrix(1 0 0 1 0 0)"/><text class="node-label" transform="scale(1 1)" style="user-select: none; cursor: default; fill: rgb(42, 63, 95); text-shadow: rgb(255, 255, 255) -1px 1px 1px, rgb(255, 255, 255) 1px 1px 1px, rgb(255, 255, 255) 1px -1px 1px, rgb(255, 255, 255) -1px -1px 1px; font-family: 'Open Sans', verdana, arial, sans-serif; font-size: 10px; fill-opacity: 1;"><textPath class="node-label-text-path" alignment-baseline="middle" xlink:href="#78600f_0_node_11" startOffset="0%" text-anchor="start" style="fill: rgb(0, 0, 0);">comments</textPath></text></g></g><g class="sankey-node" transform="translate(520.000, 273.816)" style="opacity: 1;"><rect class="node-rect" width="20" height="15.08565280948028" style="stroke-width: 0.5; stroke: rgb(0, 0, 0); stroke-opacity: 1; fill: rgb(0, 0, 255); fill-opacity: 1;"/><rect class="node-capture" x="-10" y="-7.5" width="40" height="30.08565280948028" style="fill-opacity: 0;"/><g class="node-entered" transform="translate(0 8.54282640474014)"><path class="node-label-guide" id="78600f_0_node_12" d="M-540,0L-4,0" transform="matrix(1 0 0 1 0 0)"/><text class="node-label" transform="scale(1 1)" style="user-select: none; cursor: default; fill: rgb(42, 63, 95); text-shadow: rgb(255, 255, 255) -1px 1px 1px, rgb(255, 255, 255) 1px 1px 1px, rgb(255, 255, 255) 1px -1px 1px, rgb(255, 255, 255) -1px -1px 1px; font-family: 'Open Sans', verdana, arial, sans-serif; font-size: 10px; fill-opacity: 1;"><textPath class="node-label-text-path" alignment-baseline="middle" xlink:href="#78600f_0_node_12" startOffset="100%" text-anchor="end" style="fill: rgb(0, 0, 0);">blank lines</textPath></text></g></g><g class="sankey-node" transform="translate(520.000, 229.766)" style="opacity: 1;"><rect class="node-rect" width="20" height="29.050344718692827" style="stroke-width: 0.5; stroke: rgb(0, 0, 0); stroke-opacity: 1; fill: rgb(0, 0, 255); fill-opacity: 1;"/><rect class="node-capture" x="-10" y="-7.5" width="40" height="44.05034471869283" style="fill-opacity: 0;"/><g class="node-entered" transform="translate(0 15.525172359346413)"><path class="node-label-guide" id="78600f_0_node_13" d="M-540,0L-4,0" transform="matrix(1 0 0 1 0 0)"/><text class="node-label" transform="scale(1 1)" style="user-select: none; cursor: default; fill: rgb(42, 63, 95); text-shadow: rgb(255, 255, 255) -1px 1px 1px, rgb(255, 255, 255) 1px 1px 1px, rgb(255, 255, 255) 1px -1px 1px, rgb(255, 255, 255) -1px -1px 1px; font-family: 'Open Sans', verdana, arial, sans-serif; font-size: 10px; fill-opacity: 1;"><textPath class="node-label-text-path" alignment-baseline="middle" xlink:href="#78600f_0_node_13" startOffset="100%" text-anchor="end" style="fill: rgb(0, 0, 0);">code</textPath></text></g></g><g class="sankey-node" transform="translate(520.000, 0.000)" style="opacity: 1;"><rect class="node-rect" width="20" height="199.58608592760112" style="stroke-width: 0.5; stroke: rgb(0, 0, 0); stroke-opacity: 1; fill: rgb(0, 0, 255); fill-opacity: 1;"/><rect class="node-capture" x="-10" y="-7.5" width="40" height="214.58608592760112" style="fill-opacity: 0;"/><g class="node-entered" transform="translate(0 100.79304296380056)"><path class="node-label-guide" id="78600f_0_node_14" d="M-540,0L-4,0" transform="matrix(1 0 0 1 0 0)"/><text class="node-label" transform="scale(1 1)" style="user-select: none; cursor: default; fill: rgb(42, 63, 95); text-shadow: rgb(255, 255, 255) -1px 1px 1px, rgb(255, 255, 255) 1px 1px 1px, rgb(255, 255, 255) 1px -1px 1px, rgb(255, 255, 255) -1px -1px 1px; font-family: 'Open Sans', verdana, arial, sans-serif; font-size: 10px; fill-opacity: 1;"><textPath class="node-label-text-path" alignment-baseline="middle" xlink:href="#78600f_0_node_14" startOffset="100%" text-anchor="end" style="fill: rgb(0, 0, 0);"/></text></g></g></g></g><defs id="topdefs-4b7a2d"><g class="clips"/></defs><g class="layer-above"><g class="imagelayer"/><g class="shapelayer"/></g><g class="infolayer"><g class="g-gtitle"><text class="gtitle" x="35" y="50" text-anchor="start" dy="0em" style="font-family: 'Open Sans', verdana, arial, sans-serif; font-size: 14px; fill: rgb(42, 63, 95); opacity: 1; font-weight: normal; white-space: pre;">Analysis of yaml continous integeration file formats</text></g><g class="first-render"/></g></svg>