<?xml version="1.0" encoding="utf-8" standalone="no"?>
<!DOCTYPE svg PUBLIC "-//W3C//DTD SVG 1.1//EN"
  "http://www.w3.org/Graphics/SVG/1.1/DTD/svg11.dtd">
<!-- Created with matplotlib (https://matplotlib.org/) -->
<svg height="310.86825pt" version="1.1" viewBox="0 0 418.279456 310.86825" width="418.279456pt" xmlns="http://www.w3.org/2000/svg" xmlns:xlink="http://www.w3.org/1999/xlink">
 <defs>
  <style type="text/css">
*{stroke-linecap:butt;stroke-linejoin:round;}
  </style>
 </defs>
 <g id="figure_1">
  <g id="patch_1">
   <path d="M 0 310.86825 
L 418.279456 310.86825 
L 418.279456 0 
L 0 0 
z
" style="fill:#ffffff;"/>
  </g>
  <g id="axes_1">
   <g id="patch_2">
    <path d="M 46.965625 273.312 
L 404.085625 273.312 
L 404.085625 7.2 
L 46.965625 7.2 
z
" style="fill:#ffffff;"/>
   </g>
   <g id="matplotlib.axis_1">
    <g id="xtick_1">
     <g id="line2d_1">
      <defs>
       <path d="M 0 0 
L 0 3.5 
" id="md2fede0af2" style="stroke:#000000;stroke-width:0.8;"/>
      </defs>
      <g>
       <use style="stroke:#000000;stroke-width:0.8;" x="63.198352" xlink:href="#md2fede0af2" y="273.312"/>
      </g>
     </g>
     <g id="text_1">
      <!-- 0 -->
      <defs>
       <path d="M 31.78125 66.40625 
Q 24.171875 66.40625 20.328125 58.90625 
Q 16.5 51.421875 16.5 36.375 
Q 16.5 21.390625 20.328125 13.890625 
Q 24.171875 6.390625 31.78125 6.390625 
Q 39.453125 6.390625 43.28125 13.890625 
Q 47.125 21.390625 47.125 36.375 
Q 47.125 51.421875 43.28125 58.90625 
Q 39.453125 66.40625 31.78125 66.40625 
z
M 31.78125 74.21875 
Q 44.046875 74.21875 50.515625 64.515625 
Q 56.984375 54.828125 56.984375 36.375 
Q 56.984375 17.96875 50.515625 8.265625 
Q 44.046875 -1.421875 31.78125 -1.421875 
Q 19.53125 -1.421875 13.0625 8.265625 
Q 6.59375 17.96875 6.59375 36.375 
Q 6.59375 54.828125 13.0625 64.515625 
Q 19.53125 74.21875 31.78125 74.21875 
z
" id="DejaVuSans-48"/>
      </defs>
      <g transform="translate(60.017102 287.910437)scale(0.1 -0.1)">
       <use xlink:href="#DejaVuSans-48"/>
      </g>
     </g>
    </g>
    <g id="xtick_2">
     <g id="line2d_2">
      <g>
       <use style="stroke:#000000;stroke-width:0.8;" x="119.057703" xlink:href="#md2fede0af2" y="273.312"/>
      </g>
     </g>
     <g id="text_2">
      <!-- 1000 -->
      <defs>
       <path d="M 12.40625 8.296875 
L 28.515625 8.296875 
L 28.515625 63.921875 
L 10.984375 60.40625 
L 10.984375 69.390625 
L 28.421875 72.90625 
L 38.28125 72.90625 
L 38.28125 8.296875 
L 54.390625 8.296875 
L 54.390625 0 
L 12.40625 0 
z
" id="DejaVuSans-49"/>
      </defs>
      <g transform="translate(106.332703 287.910437)scale(0.1 -0.1)">
       <use xlink:href="#DejaVuSans-49"/>
       <use x="63.623047" xlink:href="#DejaVuSans-48"/>
       <use x="127.246094" xlink:href="#DejaVuSans-48"/>
       <use x="190.869141" xlink:href="#DejaVuSans-48"/>
      </g>
     </g>
    </g>
    <g id="xtick_3">
     <g id="line2d_3">
      <g>
       <use style="stroke:#000000;stroke-width:0.8;" x="174.917053" xlink:href="#md2fede0af2" y="273.312"/>
      </g>
     </g>
     <g id="text_3">
      <!-- 2000 -->
      <defs>
       <path d="M 19.1875 8.296875 
L 53.609375 8.296875 
L 53.609375 0 
L 7.328125 0 
L 7.328125 8.296875 
Q 12.9375 14.109375 22.625 23.890625 
Q 32.328125 33.6875 34.8125 36.53125 
Q 39.546875 41.84375 41.421875 45.53125 
Q 43.3125 49.21875 43.3125 52.78125 
Q 43.3125 58.59375 39.234375 62.25 
Q 35.15625 65.921875 28.609375 65.921875 
Q 23.96875 65.921875 18.8125 64.3125 
Q 13.671875 62.703125 7.8125 59.421875 
L 7.8125 69.390625 
Q 13.765625 71.78125 18.9375 73 
Q 24.125 74.21875 28.421875 74.21875 
Q 39.75 74.21875 46.484375 68.546875 
Q 53.21875 62.890625 53.21875 53.421875 
Q 53.21875 48.921875 51.53125 44.890625 
Q 49.859375 40.875 45.40625 35.40625 
Q 44.1875 33.984375 37.640625 27.21875 
Q 31.109375 20.453125 19.1875 8.296875 
z
" id="DejaVuSans-50"/>
      </defs>
      <g transform="translate(162.192053 287.910437)scale(0.1 -0.1)">
       <use xlink:href="#DejaVuSans-50"/>
       <use x="63.623047" xlink:href="#DejaVuSans-48"/>
       <use x="127.246094" xlink:href="#DejaVuSans-48"/>
       <use x="190.869141" xlink:href="#DejaVuSans-48"/>
      </g>
     </g>
    </g>
    <g id="xtick_4">
     <g id="line2d_4">
      <g>
       <use style="stroke:#000000;stroke-width:0.8;" x="230.776404" xlink:href="#md2fede0af2" y="273.312"/>
      </g>
     </g>
     <g id="text_4">
      <!-- 3000 -->
      <defs>
       <path d="M 40.578125 39.3125 
Q 47.65625 37.796875 51.625 33 
Q 55.609375 28.21875 55.609375 21.1875 
Q 55.609375 10.40625 48.1875 4.484375 
Q 40.765625 -1.421875 27.09375 -1.421875 
Q 22.515625 -1.421875 17.65625 -0.515625 
Q 12.796875 0.390625 7.625 2.203125 
L 7.625 11.71875 
Q 11.71875 9.328125 16.59375 8.109375 
Q 21.484375 6.890625 26.8125 6.890625 
Q 36.078125 6.890625 40.9375 10.546875 
Q 45.796875 14.203125 45.796875 21.1875 
Q 45.796875 27.640625 41.28125 31.265625 
Q 36.765625 34.90625 28.71875 34.90625 
L 20.21875 34.90625 
L 20.21875 43.015625 
L 29.109375 43.015625 
Q 36.375 43.015625 40.234375 45.921875 
Q 44.09375 48.828125 44.09375 54.296875 
Q 44.09375 59.90625 40.109375 62.90625 
Q 36.140625 65.921875 28.71875 65.921875 
Q 24.65625 65.921875 20.015625 65.03125 
Q 15.375 64.15625 9.8125 62.3125 
L 9.8125 71.09375 
Q 15.4375 72.65625 20.34375 73.4375 
Q 25.25 74.21875 29.59375 74.21875 
Q 40.828125 74.21875 47.359375 69.109375 
Q 53.90625 64.015625 53.90625 55.328125 
Q 53.90625 49.265625 50.4375 45.09375 
Q 46.96875 40.921875 40.578125 39.3125 
z
" id="DejaVuSans-51"/>
      </defs>
      <g transform="translate(218.051404 287.910437)scale(0.1 -0.1)">
       <use xlink:href="#DejaVuSans-51"/>
       <use x="63.623047" xlink:href="#DejaVuSans-48"/>
       <use x="127.246094" xlink:href="#DejaVuSans-48"/>
       <use x="190.869141" xlink:href="#DejaVuSans-48"/>
      </g>
     </g>
    </g>
    <g id="xtick_5">
     <g id="line2d_5">
      <g>
       <use style="stroke:#000000;stroke-width:0.8;" x="286.635755" xlink:href="#md2fede0af2" y="273.312"/>
      </g>
     </g>
     <g id="text_5">
      <!-- 4000 -->
      <defs>
       <path d="M 37.796875 64.3125 
L 12.890625 25.390625 
L 37.796875 25.390625 
z
M 35.203125 72.90625 
L 47.609375 72.90625 
L 47.609375 25.390625 
L 58.015625 25.390625 
L 58.015625 17.1875 
L 47.609375 17.1875 
L 47.609375 0 
L 37.796875 0 
L 37.796875 17.1875 
L 4.890625 17.1875 
L 4.890625 26.703125 
z
" id="DejaVuSans-52"/>
      </defs>
      <g transform="translate(273.910755 287.910437)scale(0.1 -0.1)">
       <use xlink:href="#DejaVuSans-52"/>
       <use x="63.623047" xlink:href="#DejaVuSans-48"/>
       <use x="127.246094" xlink:href="#DejaVuSans-48"/>
       <use x="190.869141" xlink:href="#DejaVuSans-48"/>
      </g>
     </g>
    </g>
    <g id="xtick_6">
     <g id="line2d_6">
      <g>
       <use style="stroke:#000000;stroke-width:0.8;" x="342.495105" xlink:href="#md2fede0af2" y="273.312"/>
      </g>
     </g>
     <g id="text_6">
      <!-- 5000 -->
      <defs>
       <path d="M 10.796875 72.90625 
L 49.515625 72.90625 
L 49.515625 64.59375 
L 19.828125 64.59375 
L 19.828125 46.734375 
Q 21.96875 47.46875 24.109375 47.828125 
Q 26.265625 48.1875 28.421875 48.1875 
Q 40.625 48.1875 47.75 41.5 
Q 54.890625 34.8125 54.890625 23.390625 
Q 54.890625 11.625 47.5625 5.09375 
Q 40.234375 -1.421875 26.90625 -1.421875 
Q 22.3125 -1.421875 17.546875 -0.640625 
Q 12.796875 0.140625 7.71875 1.703125 
L 7.71875 11.625 
Q 12.109375 9.234375 16.796875 8.0625 
Q 21.484375 6.890625 26.703125 6.890625 
Q 35.15625 6.890625 40.078125 11.328125 
Q 45.015625 15.765625 45.015625 23.390625 
Q 45.015625 31 40.078125 35.4375 
Q 35.15625 39.890625 26.703125 39.890625 
Q 22.75 39.890625 18.8125 39.015625 
Q 14.890625 38.140625 10.796875 36.28125 
z
" id="DejaVuSans-53"/>
      </defs>
      <g transform="translate(329.770105 287.910437)scale(0.1 -0.1)">
       <use xlink:href="#DejaVuSans-53"/>
       <use x="63.623047" xlink:href="#DejaVuSans-48"/>
       <use x="127.246094" xlink:href="#DejaVuSans-48"/>
       <use x="190.869141" xlink:href="#DejaVuSans-48"/>
      </g>
     </g>
    </g>
    <g id="xtick_7">
     <g id="line2d_7">
      <g>
       <use style="stroke:#000000;stroke-width:0.8;" x="398.354456" xlink:href="#md2fede0af2" y="273.312"/>
      </g>
     </g>
     <g id="text_7">
      <!-- 6000 -->
      <defs>
       <path d="M 33.015625 40.375 
Q 26.375 40.375 22.484375 35.828125 
Q 18.609375 31.296875 18.609375 23.390625 
Q 18.609375 15.53125 22.484375 10.953125 
Q 26.375 6.390625 33.015625 6.390625 
Q 39.65625 6.390625 43.53125 10.953125 
Q 47.40625 15.53125 47.40625 23.390625 
Q 47.40625 31.296875 43.53125 35.828125 
Q 39.65625 40.375 33.015625 40.375 
z
M 52.59375 71.296875 
L 52.59375 62.3125 
Q 48.875 64.0625 45.09375 64.984375 
Q 41.3125 65.921875 37.59375 65.921875 
Q 27.828125 65.921875 22.671875 59.328125 
Q 17.53125 52.734375 16.796875 39.40625 
Q 19.671875 43.65625 24.015625 45.921875 
Q 28.375 48.1875 33.59375 48.1875 
Q 44.578125 48.1875 50.953125 41.515625 
Q 57.328125 34.859375 57.328125 23.390625 
Q 57.328125 12.15625 50.6875 5.359375 
Q 44.046875 -1.421875 33.015625 -1.421875 
Q 20.359375 -1.421875 13.671875 8.265625 
Q 6.984375 17.96875 6.984375 36.375 
Q 6.984375 53.65625 15.1875 63.9375 
Q 23.390625 74.21875 37.203125 74.21875 
Q 40.921875 74.21875 44.703125 73.484375 
Q 48.484375 72.75 52.59375 71.296875 
z
" id="DejaVuSans-54"/>
      </defs>
      <g transform="translate(385.629456 287.910437)scale(0.1 -0.1)">
       <use xlink:href="#DejaVuSans-54"/>
       <use x="63.623047" xlink:href="#DejaVuSans-48"/>
       <use x="127.246094" xlink:href="#DejaVuSans-48"/>
       <use x="190.869141" xlink:href="#DejaVuSans-48"/>
      </g>
     </g>
    </g>
    <g id="text_8">
     <!-- no. lines in file -->
     <defs>
      <path d="M 54.890625 33.015625 
L 54.890625 0 
L 45.90625 0 
L 45.90625 32.71875 
Q 45.90625 40.484375 42.875 44.328125 
Q 39.84375 48.1875 33.796875 48.1875 
Q 26.515625 48.1875 22.3125 43.546875 
Q 18.109375 38.921875 18.109375 30.90625 
L 18.109375 0 
L 9.078125 0 
L 9.078125 54.6875 
L 18.109375 54.6875 
L 18.109375 46.1875 
Q 21.34375 51.125 25.703125 53.5625 
Q 30.078125 56 35.796875 56 
Q 45.21875 56 50.046875 50.171875 
Q 54.890625 44.34375 54.890625 33.015625 
z
" id="DejaVuSans-110"/>
      <path d="M 30.609375 48.390625 
Q 23.390625 48.390625 19.1875 42.75 
Q 14.984375 37.109375 14.984375 27.296875 
Q 14.984375 17.484375 19.15625 11.84375 
Q 23.34375 6.203125 30.609375 6.203125 
Q 37.796875 6.203125 41.984375 11.859375 
Q 46.1875 17.53125 46.1875 27.296875 
Q 46.1875 37.015625 41.984375 42.703125 
Q 37.796875 48.390625 30.609375 48.390625 
z
M 30.609375 56 
Q 42.328125 56 49.015625 48.375 
Q 55.71875 40.765625 55.71875 27.296875 
Q 55.71875 13.875 49.015625 6.21875 
Q 42.328125 -1.421875 30.609375 -1.421875 
Q 18.84375 -1.421875 12.171875 6.21875 
Q 5.515625 13.875 5.515625 27.296875 
Q 5.515625 40.765625 12.171875 48.375 
Q 18.84375 56 30.609375 56 
z
" id="DejaVuSans-111"/>
      <path d="M 10.6875 12.40625 
L 21 12.40625 
L 21 0 
L 10.6875 0 
z
" id="DejaVuSans-46"/>
      <path id="DejaVuSans-32"/>
      <path d="M 9.421875 75.984375 
L 18.40625 75.984375 
L 18.40625 0 
L 9.421875 0 
z
" id="DejaVuSans-108"/>
      <path d="M 9.421875 54.6875 
L 18.40625 54.6875 
L 18.40625 0 
L 9.421875 0 
z
M 9.421875 75.984375 
L 18.40625 75.984375 
L 18.40625 64.59375 
L 9.421875 64.59375 
z
" id="DejaVuSans-105"/>
      <path d="M 56.203125 29.59375 
L 56.203125 25.203125 
L 14.890625 25.203125 
Q 15.484375 15.921875 20.484375 11.0625 
Q 25.484375 6.203125 34.421875 6.203125 
Q 39.59375 6.203125 44.453125 7.46875 
Q 49.3125 8.734375 54.109375 11.28125 
L 54.109375 2.78125 
Q 49.265625 0.734375 44.1875 -0.34375 
Q 39.109375 -1.421875 33.890625 -1.421875 
Q 20.796875 -1.421875 13.15625 6.1875 
Q 5.515625 13.8125 5.515625 26.8125 
Q 5.515625 40.234375 12.765625 48.109375 
Q 20.015625 56 32.328125 56 
Q 43.359375 56 49.78125 48.890625 
Q 56.203125 41.796875 56.203125 29.59375 
z
M 47.21875 32.234375 
Q 47.125 39.59375 43.09375 43.984375 
Q 39.0625 48.390625 32.421875 48.390625 
Q 24.90625 48.390625 20.390625 44.140625 
Q 15.875 39.890625 15.1875 32.171875 
z
" id="DejaVuSans-101"/>
      <path d="M 44.28125 53.078125 
L 44.28125 44.578125 
Q 40.484375 46.53125 36.375 47.5 
Q 32.28125 48.484375 27.875 48.484375 
Q 21.1875 48.484375 17.84375 46.4375 
Q 14.5 44.390625 14.5 40.28125 
Q 14.5 37.15625 16.890625 35.375 
Q 19.28125 33.59375 26.515625 31.984375 
L 29.59375 31.296875 
Q 39.15625 29.25 43.1875 25.515625 
Q 47.21875 21.78125 47.21875 15.09375 
Q 47.21875 7.46875 41.1875 3.015625 
Q 35.15625 -1.421875 24.609375 -1.421875 
Q 20.21875 -1.421875 15.453125 -0.5625 
Q 10.6875 0.296875 5.421875 2 
L 5.421875 11.28125 
Q 10.40625 8.6875 15.234375 7.390625 
Q 20.0625 6.109375 24.8125 6.109375 
Q 31.15625 6.109375 34.5625 8.28125 
Q 37.984375 10.453125 37.984375 14.40625 
Q 37.984375 18.0625 35.515625 20.015625 
Q 33.0625 21.96875 24.703125 23.78125 
L 21.578125 24.515625 
Q 13.234375 26.265625 9.515625 29.90625 
Q 5.8125 33.546875 5.8125 39.890625 
Q 5.8125 47.609375 11.28125 51.796875 
Q 16.75 56 26.8125 56 
Q 31.78125 56 36.171875 55.265625 
Q 40.578125 54.546875 44.28125 53.078125 
z
" id="DejaVuSans-115"/>
      <path d="M 37.109375 75.984375 
L 37.109375 68.5 
L 28.515625 68.5 
Q 23.6875 68.5 21.796875 66.546875 
Q 19.921875 64.59375 19.921875 59.515625 
L 19.921875 54.6875 
L 34.71875 54.6875 
L 34.71875 47.703125 
L 19.921875 47.703125 
L 19.921875 0 
L 10.890625 0 
L 10.890625 47.703125 
L 2.296875 47.703125 
L 2.296875 54.6875 
L 10.890625 54.6875 
L 10.890625 58.5 
Q 10.890625 67.625 15.140625 71.796875 
Q 19.390625 75.984375 28.609375 75.984375 
z
" id="DejaVuSans-102"/>
     </defs>
     <g transform="translate(189.14125 301.588562)scale(0.1 -0.1)">
      <use xlink:href="#DejaVuSans-110"/>
      <use x="63.378906" xlink:href="#DejaVuSans-111"/>
      <use x="124.544922" xlink:href="#DejaVuSans-46"/>
      <use x="156.332031" xlink:href="#DejaVuSans-32"/>
      <use x="188.119141" xlink:href="#DejaVuSans-108"/>
      <use x="215.902344" xlink:href="#DejaVuSans-105"/>
      <use x="243.685547" xlink:href="#DejaVuSans-110"/>
      <use x="307.064453" xlink:href="#DejaVuSans-101"/>
      <use x="368.587891" xlink:href="#DejaVuSans-115"/>
      <use x="420.6875" xlink:href="#DejaVuSans-32"/>
      <use x="452.474609" xlink:href="#DejaVuSans-105"/>
      <use x="480.257812" xlink:href="#DejaVuSans-110"/>
      <use x="543.636719" xlink:href="#DejaVuSans-32"/>
      <use x="575.423828" xlink:href="#DejaVuSans-102"/>
      <use x="610.628906" xlink:href="#DejaVuSans-105"/>
      <use x="638.412109" xlink:href="#DejaVuSans-108"/>
      <use x="666.195312" xlink:href="#DejaVuSans-101"/>
     </g>
    </g>
   </g>
   <g id="matplotlib.axis_2">
    <g id="ytick_1">
     <g id="line2d_8">
      <defs>
       <path d="M 0 0 
L -3.5 0 
" id="m5edd7da22e" style="stroke:#000000;stroke-width:0.8;"/>
      </defs>
      <g>
       <use style="stroke:#000000;stroke-width:0.8;" x="46.965625" xlink:href="#m5edd7da22e" y="261.216"/>
      </g>
     </g>
     <g id="text_9">
      <!-- 0 -->
      <g transform="translate(33.603125 265.015219)scale(0.1 -0.1)">
       <use xlink:href="#DejaVuSans-48"/>
      </g>
     </g>
    </g>
    <g id="ytick_2">
     <g id="line2d_9">
      <g>
       <use style="stroke:#000000;stroke-width:0.8;" x="46.965625" xlink:href="#m5edd7da22e" y="206.482968"/>
      </g>
     </g>
     <g id="text_10">
      <!-- 50 -->
      <g transform="translate(27.240625 210.282187)scale(0.1 -0.1)">
       <use xlink:href="#DejaVuSans-53"/>
       <use x="63.623047" xlink:href="#DejaVuSans-48"/>
      </g>
     </g>
    </g>
    <g id="ytick_3">
     <g id="line2d_10">
      <g>
       <use style="stroke:#000000;stroke-width:0.8;" x="46.965625" xlink:href="#m5edd7da22e" y="151.749937"/>
      </g>
     </g>
     <g id="text_11">
      <!-- 100 -->
      <g transform="translate(20.878125 155.549155)scale(0.1 -0.1)">
       <use xlink:href="#DejaVuSans-49"/>
       <use x="63.623047" xlink:href="#DejaVuSans-48"/>
       <use x="127.246094" xlink:href="#DejaVuSans-48"/>
      </g>
     </g>
    </g>
    <g id="ytick_4">
     <g id="line2d_11">
      <g>
       <use style="stroke:#000000;stroke-width:0.8;" x="46.965625" xlink:href="#m5edd7da22e" y="97.016905"/>
      </g>
     </g>
     <g id="text_12">
      <!-- 150 -->
      <g transform="translate(20.878125 100.816124)scale(0.1 -0.1)">
       <use xlink:href="#DejaVuSans-49"/>
       <use x="63.623047" xlink:href="#DejaVuSans-53"/>
       <use x="127.246094" xlink:href="#DejaVuSans-48"/>
      </g>
     </g>
    </g>
    <g id="ytick_5">
     <g id="line2d_12">
      <g>
       <use style="stroke:#000000;stroke-width:0.8;" x="46.965625" xlink:href="#m5edd7da22e" y="42.283873"/>
      </g>
     </g>
     <g id="text_13">
      <!-- 200 -->
      <g transform="translate(20.878125 46.083092)scale(0.1 -0.1)">
       <use xlink:href="#DejaVuSans-50"/>
       <use x="63.623047" xlink:href="#DejaVuSans-48"/>
       <use x="127.246094" xlink:href="#DejaVuSans-48"/>
      </g>
     </g>
    </g>
    <g id="text_14">
     <!-- no. scripts used in file -->
     <defs>
      <path d="M 48.78125 52.59375 
L 48.78125 44.1875 
Q 44.96875 46.296875 41.140625 47.34375 
Q 37.3125 48.390625 33.40625 48.390625 
Q 24.65625 48.390625 19.8125 42.84375 
Q 14.984375 37.3125 14.984375 27.296875 
Q 14.984375 17.28125 19.8125 11.734375 
Q 24.65625 6.203125 33.40625 6.203125 
Q 37.3125 6.203125 41.140625 7.25 
Q 44.96875 8.296875 48.78125 10.40625 
L 48.78125 2.09375 
Q 45.015625 0.34375 40.984375 -0.53125 
Q 36.96875 -1.421875 32.421875 -1.421875 
Q 20.0625 -1.421875 12.78125 6.34375 
Q 5.515625 14.109375 5.515625 27.296875 
Q 5.515625 40.671875 12.859375 48.328125 
Q 20.21875 56 33.015625 56 
Q 37.15625 56 41.109375 55.140625 
Q 45.0625 54.296875 48.78125 52.59375 
z
" id="DejaVuSans-99"/>
      <path d="M 41.109375 46.296875 
Q 39.59375 47.171875 37.8125 47.578125 
Q 36.03125 48 33.890625 48 
Q 26.265625 48 22.1875 43.046875 
Q 18.109375 38.09375 18.109375 28.8125 
L 18.109375 0 
L 9.078125 0 
L 9.078125 54.6875 
L 18.109375 54.6875 
L 18.109375 46.1875 
Q 20.953125 51.171875 25.484375 53.578125 
Q 30.03125 56 36.53125 56 
Q 37.453125 56 38.578125 55.875 
Q 39.703125 55.765625 41.0625 55.515625 
z
" id="DejaVuSans-114"/>
      <path d="M 18.109375 8.203125 
L 18.109375 -20.796875 
L 9.078125 -20.796875 
L 9.078125 54.6875 
L 18.109375 54.6875 
L 18.109375 46.390625 
Q 20.953125 51.265625 25.265625 53.625 
Q 29.59375 56 35.59375 56 
Q 45.5625 56 51.78125 48.09375 
Q 58.015625 40.1875 58.015625 27.296875 
Q 58.015625 14.40625 51.78125 6.484375 
Q 45.5625 -1.421875 35.59375 -1.421875 
Q 29.59375 -1.421875 25.265625 0.953125 
Q 20.953125 3.328125 18.109375 8.203125 
z
M 48.6875 27.296875 
Q 48.6875 37.203125 44.609375 42.84375 
Q 40.53125 48.484375 33.40625 48.484375 
Q 26.265625 48.484375 22.1875 42.84375 
Q 18.109375 37.203125 18.109375 27.296875 
Q 18.109375 17.390625 22.1875 11.75 
Q 26.265625 6.109375 33.40625 6.109375 
Q 40.53125 6.109375 44.609375 11.75 
Q 48.6875 17.390625 48.6875 27.296875 
z
" id="DejaVuSans-112"/>
      <path d="M 18.3125 70.21875 
L 18.3125 54.6875 
L 36.8125 54.6875 
L 36.8125 47.703125 
L 18.3125 47.703125 
L 18.3125 18.015625 
Q 18.3125 11.328125 20.140625 9.421875 
Q 21.96875 7.515625 27.59375 7.515625 
L 36.8125 7.515625 
L 36.8125 0 
L 27.59375 0 
Q 17.1875 0 13.234375 3.875 
Q 9.28125 7.765625 9.28125 18.015625 
L 9.28125 47.703125 
L 2.6875 47.703125 
L 2.6875 54.6875 
L 9.28125 54.6875 
L 9.28125 70.21875 
z
" id="DejaVuSans-116"/>
      <path d="M 8.5 21.578125 
L 8.5 54.6875 
L 17.484375 54.6875 
L 17.484375 21.921875 
Q 17.484375 14.15625 20.5 10.265625 
Q 23.53125 6.390625 29.59375 6.390625 
Q 36.859375 6.390625 41.078125 11.03125 
Q 45.3125 15.671875 45.3125 23.6875 
L 45.3125 54.6875 
L 54.296875 54.6875 
L 54.296875 0 
L 45.3125 0 
L 45.3125 8.40625 
Q 42.046875 3.421875 37.71875 1 
Q 33.40625 -1.421875 27.6875 -1.421875 
Q 18.265625 -1.421875 13.375 4.4375 
Q 8.5 10.296875 8.5 21.578125 
z
M 31.109375 56 
z
" id="DejaVuSans-117"/>
      <path d="M 45.40625 46.390625 
L 45.40625 75.984375 
L 54.390625 75.984375 
L 54.390625 0 
L 45.40625 0 
L 45.40625 8.203125 
Q 42.578125 3.328125 38.25 0.953125 
Q 33.9375 -1.421875 27.875 -1.421875 
Q 17.96875 -1.421875 11.734375 6.484375 
Q 5.515625 14.40625 5.515625 27.296875 
Q 5.515625 40.1875 11.734375 48.09375 
Q 17.96875 56 27.875 56 
Q 33.9375 56 38.25 53.625 
Q 42.578125 51.265625 45.40625 46.390625 
z
M 14.796875 27.296875 
Q 14.796875 17.390625 18.875 11.75 
Q 22.953125 6.109375 30.078125 6.109375 
Q 37.203125 6.109375 41.296875 11.75 
Q 45.40625 17.390625 45.40625 27.296875 
Q 45.40625 37.203125 41.296875 42.84375 
Q 37.203125 48.484375 30.078125 48.484375 
Q 22.953125 48.484375 18.875 42.84375 
Q 14.796875 37.203125 14.796875 27.296875 
z
" id="DejaVuSans-100"/>
     </defs>
     <g transform="translate(14.798438 195.163031)rotate(-90)scale(0.1 -0.1)">
      <use xlink:href="#DejaVuSans-110"/>
      <use x="63.378906" xlink:href="#DejaVuSans-111"/>
      <use x="124.544922" xlink:href="#DejaVuSans-46"/>
      <use x="156.332031" xlink:href="#DejaVuSans-32"/>
      <use x="188.119141" xlink:href="#DejaVuSans-115"/>
      <use x="240.21875" xlink:href="#DejaVuSans-99"/>
      <use x="295.199219" xlink:href="#DejaVuSans-114"/>
      <use x="336.3125" xlink:href="#DejaVuSans-105"/>
      <use x="364.095703" xlink:href="#DejaVuSans-112"/>
      <use x="427.572266" xlink:href="#DejaVuSans-116"/>
      <use x="466.78125" xlink:href="#DejaVuSans-115"/>
      <use x="518.880859" xlink:href="#DejaVuSans-32"/>
      <use x="550.667969" xlink:href="#DejaVuSans-117"/>
      <use x="614.046875" xlink:href="#DejaVuSans-115"/>
      <use x="666.146484" xlink:href="#DejaVuSans-101"/>
      <use x="727.669922" xlink:href="#DejaVuSans-100"/>
      <use x="791.146484" xlink:href="#DejaVuSans-32"/>
      <use x="822.933594" xlink:href="#DejaVuSans-105"/>
      <use x="850.716797" xlink:href="#DejaVuSans-110"/>
      <use x="914.095703" xlink:href="#DejaVuSans-32"/>
      <use x="945.882812" xlink:href="#DejaVuSans-102"/>
      <use x="981.087891" xlink:href="#DejaVuSans-105"/>
      <use x="1008.871094" xlink:href="#DejaVuSans-108"/>
      <use x="1036.654297" xlink:href="#DejaVuSans-101"/>
     </g>
    </g>
   </g>
   <g id="line2d_13">
    <path clip-path="url(#pad61b3e0c3)" d="M 63.198352 261.216 
L 63.254212 261.216 
L 63.254212 261.216 
L 63.254212 260.121339 
L 63.310071 261.216 
L 63.36593 261.216 
L 63.36593 261.216 
L 63.36593 259.026679 
L 63.42179 261.216 
L 63.477649 261.216 
L 63.477649 261.216 
L 63.477649 259.026679 
L 63.533508 261.216 
L 63.589368 261.216 
L 63.589368 261.216 
L 63.589368 256.837357 
L 63.645227 261.216 
L 63.701086 261.216 
L 63.701086 261.216 
L 63.701086 256.837357 
L 63.756946 261.216 
L 63.812805 261.216 
L 63.812805 261.216 
L 63.812805 255.742697 
L 63.868664 261.216 
L 63.924524 261.216 
L 63.980383 254.648036 
L 63.980383 261.216 
L 64.036243 261.216 
L 64.036243 254.648036 
L 64.092102 261.216 
L 64.147961 261.216 
L 64.147961 261.216 
L 64.203821 254.648036 
L 64.203821 261.216 
L 64.25968 261.216 
L 64.25968 261.216 
L 64.25968 250.269394 
L 64.315539 261.216 
L 64.371399 261.216 
L 64.371399 261.216 
L 64.371399 256.837357 
L 64.427258 261.216 
L 64.483117 259.026679 
L 64.483117 261.216 
L 64.538977 252.458715 
L 64.538977 260.121339 
L 64.594836 261.216 
L 64.594836 261.216 
L 64.594836 251.364054 
L 64.650695 261.216 
L 64.706555 261.216 
L 64.706555 261.216 
L 64.762414 252.458715 
L 64.762414 261.216 
L 64.818273 261.216 
L 64.818273 261.216 
L 64.818273 254.648036 
L 64.874133 259.026679 
L 64.929992 261.216 
L 64.929992 257.932018 
L 64.929992 259.026679 
L 64.985851 250.269394 
L 64.929992 261.216 
L 64.985851 260.121339 
L 65.041711 261.216 
L 65.041711 261.216 
L 65.041711 253.553376 
L 65.09757 261.216 
L 65.15343 261.216 
L 65.15343 252.458715 
L 65.209289 261.216 
L 65.265148 261.216 
L 65.321008 242.606769 
L 65.321008 256.837357 
L 65.376867 261.216 
L 65.376867 253.553376 
L 65.376867 261.216 
L 65.432726 249.174733 
L 65.432726 261.216 
L 65.488586 261.216 
L 65.488586 261.216 
L 65.544445 253.553376 
L 65.544445 256.837357 
L 65.656164 261.216 
L 65.600304 254.648036 
L 65.656164 261.216 
L 65.656164 249.174733 
L 65.712023 260.121339 
L 65.767882 260.121339 
L 65.767882 260.121339 
L 65.823742 238.228127 
L 65.767882 261.216 
L 65.823742 261.216 
L 65.879601 261.216 
L 65.879601 261.216 
L 65.879601 255.742697 
L 65.93546 257.932018 
L 65.99132 261.216 
L 65.99132 261.216 
L 65.99132 250.269394 
L 66.047179 261.216 
L 66.103039 261.216 
L 66.103039 261.216 
L 66.158898 252.458715 
L 66.158898 261.216 
L 66.214757 261.216 
L 66.214757 261.216 
L 66.214757 249.174733 
L 66.270617 261.216 
L 66.326476 260.121339 
L 66.326476 261.216 
L 66.382335 237.133466 
L 66.382335 249.174733 
L 66.494054 261.216 
L 66.494054 261.216 
L 66.549913 256.837357 
L 66.549913 261.216 
L 66.605773 246.985412 
L 66.605773 259.026679 
L 66.661632 259.026679 
L 66.661632 261.216 
L 66.661632 237.133466 
L 66.717491 260.121339 
L 66.773351 261.216 
L 66.773351 261.216 
L 66.773351 248.080072 
L 66.82921 261.216 
L 66.885069 261.216 
L 66.885069 245.890751 
L 66.940929 261.216 
L 66.996788 261.216 
L 66.996788 241.512109 
L 67.052647 261.216 
L 67.108507 261.216 
L 67.108507 261.216 
L 67.164366 241.512109 
L 67.164366 261.216 
L 67.220226 261.216 
L 67.220226 261.216 
L 67.276085 252.458715 
L 67.276085 261.216 
L 67.331944 261.216 
L 67.331944 206.482968 
L 67.387804 261.216 
L 67.443663 256.837357 
L 67.443663 261.216 
L 67.443663 250.269394 
L 67.499522 257.932018 
L 67.555382 261.216 
L 67.555382 256.837357 
L 67.611241 236.038805 
L 67.555382 261.216 
L 67.611241 261.216 
L 67.6671 261.216 
L 67.6671 261.216 
L 67.6671 254.648036 
L 67.72296 261.216 
L 67.778819 261.216 
L 67.778819 261.216 
L 67.834678 253.553376 
L 67.834678 261.216 
L 67.890538 257.932018 
L 67.890538 261.216 
L 67.890538 242.606769 
L 67.946397 261.216 
L 68.002256 261.216 
L 68.002256 261.216 
L 68.002256 254.648036 
L 68.058116 260.121339 
L 68.113975 261.216 
L 68.113975 261.216 
L 68.169834 253.553376 
L 68.169834 261.216 
L 68.225694 252.458715 
L 68.281553 257.932018 
L 68.281553 261.216 
L 68.337413 248.080072 
L 68.337413 261.216 
L 68.393272 261.216 
L 68.393272 251.364054 
L 68.449131 252.458715 
L 68.504991 261.216 
L 68.504991 261.216 
L 68.504991 241.512109 
L 68.56085 261.216 
L 68.616709 256.837357 
L 68.616709 261.216 
L 68.672569 261.216 
L 68.672569 261.216 
L 68.728428 243.70143 
L 68.840147 261.216 
L 68.840147 260.121339 
L 68.896006 252.458715 
L 68.896006 261.216 
L 68.951865 257.932018 
L 68.951865 261.216 
L 68.951865 243.70143 
L 69.007725 261.216 
L 69.063584 261.216 
L 69.063584 261.216 
L 69.063584 250.269394 
L 69.119443 261.216 
L 69.175303 249.174733 
L 69.175303 257.932018 
L 69.231162 261.216 
L 69.231162 255.742697 
L 69.231162 261.216 
L 69.231162 254.648036 
L 69.287021 261.216 
L 69.342881 261.216 
L 69.39874 248.080072 
L 69.39874 257.932018 
L 69.4546 261.216 
L 69.4546 257.932018 
L 69.4546 238.228127 
L 69.4546 261.216 
L 69.510459 256.837357 
L 69.622178 261.216 
L 69.566318 254.648036 
L 69.622178 261.216 
L 69.622178 253.553376 
L 69.678037 256.837357 
L 69.789756 261.216 
L 69.789756 261.216 
L 69.789756 246.985412 
L 69.845615 256.837357 
L 69.901474 261.216 
L 69.901474 255.742697 
L 69.957334 260.121339 
L 69.957334 239.322787 
L 69.957334 261.216 
L 70.013193 261.216 
L 70.069052 261.216 
L 70.069052 261.216 
L 70.069052 251.364054 
L 70.124912 260.121339 
L 70.180771 261.216 
L 70.180771 251.364054 
L 70.23663 261.216 
L 70.29249 255.742697 
L 70.29249 256.837357 
L 70.29249 246.985412 
L 70.29249 261.216 
L 70.348349 259.026679 
L 70.404208 261.216 
L 70.404208 260.121339 
L 70.460068 253.553376 
L 70.404208 261.216 
L 70.460068 261.216 
L 70.515927 261.216 
L 70.571787 234.944145 
L 70.571787 241.512109 
L 70.739365 261.216 
L 70.739365 261.216 
L 70.739365 252.458715 
L 70.795224 261.216 
L 70.906943 246.985412 
L 70.906943 261.216 
L 70.962802 245.890751 
L 71.074521 261.216 
L 71.074521 256.837357 
L 71.13038 237.133466 
L 71.074521 261.216 
L 71.13038 259.026679 
L 71.186239 255.742697 
L 71.186239 261.216 
L 71.186239 257.932018 
L 71.242099 260.121339 
L 71.242099 256.837357 
L 71.242099 260.121339 
L 71.242099 261.216 
L 71.297958 240.417448 
L 71.409677 261.216 
L 71.409677 261.216 
L 71.465536 259.026679 
L 71.465536 261.216 
L 71.465536 256.837357 
L 71.521396 260.121339 
L 71.577255 260.121339 
L 71.577255 261.216 
L 71.577255 248.080072 
L 71.633114 261.216 
L 71.688974 260.121339 
L 71.688974 261.216 
L 71.688974 243.70143 
L 71.744833 257.932018 
L 71.856552 261.216 
L 71.800692 255.742697 
L 71.856552 260.121339 
L 71.912411 261.216 
L 71.912411 245.890751 
L 71.96827 261.216 
L 71.96827 261.216 
L 72.02413 238.228127 
L 72.02413 261.216 
L 72.079989 261.216 
L 72.079989 261.216 
L 72.079989 238.228127 
L 72.135848 261.216 
L 72.191708 261.216 
L 72.191708 261.216 
L 72.247567 260.121339 
L 72.247567 261.216 
L 72.247567 257.932018 
L 72.303426 261.216 
L 72.359286 256.837357 
L 72.415145 257.932018 
L 72.471004 259.026679 
L 72.526864 255.742697 
L 72.526864 261.216 
L 72.582723 257.932018 
L 72.582723 261.216 
L 72.638583 228.376181 
L 72.638583 261.216 
L 72.694442 249.174733 
L 72.750301 260.121339 
L 72.750301 261.216 
L 72.750301 250.269394 
L 72.806161 261.216 
L 72.86202 260.121339 
L 72.917879 261.216 
L 72.917879 261.216 
L 72.917879 237.133466 
L 72.973739 261.216 
L 73.085457 260.121339 
L 73.085457 261.216 
L 73.085457 251.364054 
L 73.141317 261.216 
L 73.253035 232.754824 
L 73.308895 261.216 
L 73.308895 261.216 
L 73.420613 260.121339 
L 73.420613 261.216 
L 73.420613 252.458715 
L 73.476473 260.121339 
L 73.532332 251.364054 
L 73.532332 261.216 
L 73.588191 253.553376 
L 73.588191 261.216 
L 73.644051 261.216 
L 73.75577 261.216 
L 73.811629 249.174733 
L 73.811629 261.216 
L 73.867488 261.216 
L 73.867488 261.216 
L 73.923348 254.648036 
L 73.923348 261.216 
L 73.979207 261.216 
L 74.035066 253.553376 
L 74.035066 261.216 
L 74.090926 261.216 
L 74.090926 244.79609 
L 74.146785 260.121339 
L 74.202644 259.026679 
L 74.202644 261.216 
L 74.258504 261.216 
L 74.314363 261.216 
L 74.370222 254.648036 
L 74.370222 260.121339 
L 74.426082 253.553376 
L 74.426082 254.648036 
L 74.5378 261.216 
L 74.5378 260.121339 
L 74.649519 261.216 
L 74.705378 241.512109 
L 74.705378 248.080072 
L 74.872957 261.216 
L 74.928816 249.174733 
L 75.096394 261.216 
L 75.096394 259.026679 
L 75.152253 261.216 
L 75.208113 251.364054 
L 75.319831 261.216 
L 75.263972 245.890751 
L 75.319831 252.458715 
L 75.375691 250.269394 
L 75.375691 261.216 
L 75.375691 260.121339 
L 75.487409 261.216 
L 75.599128 261.216 
L 75.654987 254.648036 
L 75.654987 260.121339 
L 75.766706 261.216 
L 75.822565 259.026679 
L 75.822565 261.216 
L 75.878425 261.216 
L 75.934284 246.985412 
L 75.990144 261.216 
L 76.157722 261.216 
L 76.213581 256.837357 
L 76.26944 261.216 
L 76.3253 211.956271 
L 76.381159 261.216 
L 76.381159 261.216 
L 76.492878 257.932018 
L 76.492878 244.79609 
L 76.548737 261.216 
L 76.604596 261.216 
L 76.660456 229.470842 
L 76.660456 261.216 
L 76.772174 261.216 
L 76.772174 243.70143 
L 76.828034 253.553376 
L 76.939753 261.216 
L 76.939753 255.742697 
L 77.051471 261.216 
L 77.16319 259.026679 
L 77.219049 241.512109 
L 77.330768 260.121339 
L 77.330768 259.026679 
L 77.498346 257.932018 
L 77.554205 261.216 
L 77.610065 238.228127 
L 77.721783 261.216 
L 77.777643 259.026679 
L 77.777643 192.25238 
L 77.833502 261.216 
L 77.833502 261.216 
L 77.945221 261.216 
L 77.945221 260.121339 
L 78.05694 257.932018 
L 78.05694 255.742697 
L 78.112799 261.216 
L 78.112799 261.216 
L 78.168658 253.553376 
L 78.168658 261.216 
L 78.224518 261.216 
L 78.280377 242.606769 
L 78.280377 255.742697 
L 78.392096 250.269394 
L 78.392096 260.121339 
L 78.503814 259.026679 
L 78.615533 261.216 
L 78.671392 253.553376 
L 78.671392 257.932018 
L 78.83897 261.216 
L 78.83897 256.837357 
L 78.950689 256.837357 
L 78.950689 260.121339 
L 79.062408 260.121339 
L 79.062408 261.216 
L 79.118267 261.216 
L 79.174127 252.458715 
L 79.229986 261.216 
L 79.285845 259.026679 
L 79.341705 261.216 
L 79.397564 249.174733 
L 79.621001 261.216 
L 79.73272 257.932018 
L 79.844439 261.216 
L 79.844439 260.121339 
L 80.012017 252.458715 
L 80.067876 260.121339 
L 80.123735 241.512109 
L 80.179595 253.553376 
L 80.235454 261.216 
L 80.291314 254.648036 
L 80.458892 249.174733 
L 80.57061 259.026679 
L 80.62647 220.713557 
L 80.682329 259.026679 
L 80.849907 254.648036 
L 80.961626 261.216 
L 80.961626 237.133466 
L 81.017485 261.216 
L 81.073344 261.216 
L 81.073344 261.216 
L 81.129204 241.512109 
L 81.185063 250.269394 
L 81.352641 261.216 
L 81.408501 254.648036 
L 81.520219 261.216 
L 81.576079 261.216 
L 81.631938 256.837357 
L 81.687797 257.932018 
L 81.743657 261.216 
L 81.743657 261.216 
L 81.855375 216.334914 
L 81.967094 261.216 
L 82.022953 256.837357 
L 82.134672 261.216 
L 82.134672 256.837357 
L 82.246391 261.216 
L 82.246391 261.216 
L 82.413969 261.216 
L 82.413969 259.026679 
L 82.804984 253.553376 
L 82.916703 261.216 
L 82.916703 259.026679 
L 83.028422 261.216 
L 83.028422 261.216 
L 83.14014 255.742697 
L 83.251859 260.121339 
L 83.307718 260.121339 
L 83.419437 261.216 
L 83.475297 253.553376 
L 83.531156 185.684416 
L 83.531156 252.458715 
L 83.642875 214.145593 
L 83.922171 261.216 
L 84.145609 256.837357 
L 84.145609 254.648036 
L 84.201468 257.932018 
L 84.257327 252.458715 
L 84.424905 250.269394 
L 84.480765 259.026679 
L 84.983499 261.216 
L 85.430374 261.216 
L 85.542092 259.026679 
L 85.542092 261.216 
L 85.933108 254.648036 
L 85.988967 259.026679 
L 86.435842 257.932018 
L 86.491701 248.080072 
L 86.715139 260.121339 
L 87.106154 256.837357 
L 87.162014 259.026679 
L 88.055763 260.121339 
L 88.279201 250.269394 
L 88.446779 261.216 
L 88.781935 259.026679 
L 88.949513 261.216 
L 89.005372 248.080072 
L 89.619825 261.216 
L 90.122559 260.121339 
L 90.122559 251.364054 
L 90.178419 260.121339 
L 90.234278 257.932018 
L 90.234278 250.269394 
L 90.290137 256.837357 
L 90.513575 260.121339 
L 90.681153 260.121339 
L 90.737012 254.648036 
L 90.792871 261.216 
L 91.407324 249.174733 
L 91.686621 251.364054 
L 91.74248 259.026679 
L 91.910058 261.216 
L 91.965918 137.519348 
L 92.077637 199.915005 
L 93.083105 253.553376 
L 93.194824 198.820344 
L 93.306542 261.216 
L 94.032714 254.648036 
L 95.149901 253.553376 
L 95.820213 249.174733 
L 96.434666 261.216 
L 96.658103 260.121339 
L 97.160837 261.216 
L 97.384275 239.322787 
L 97.551853 260.121339 
L 97.551853 260.121339 
L 98.110446 260.121339 
L 98.278024 256.837357 
L 98.333884 257.932018 
L 98.501462 255.742697 
L 99.618649 261.216 
L 99.953805 254.648036 
L 100.177242 246.985412 
L 101.629585 260.121339 
L 102.635054 261.216 
L 102.858491 236.038805 
L 102.97021 241.512109 
L 103.249507 211.956271 
L 104.869428 261.216 
L 105.707318 255.742697 
L 106.768646 261.216 
L 107.383099 257.932018 
L 107.718255 251.364054 
L 107.941692 249.174733 
L 108.556145 241.512109 
L 108.667864 255.742697 
L 110.064347 261.216 
L 113.136612 249.174733 
L 114.030361 246.985412 
L 116.71161 261.216 
L 123.805748 249.174733 
L 142.183474 261.216 
L 167.934635 88.25962 
L 174.079163 261.216 
L 177.989318 257.932018 
L 196.869778 19.296 
L 227.201406 261.216 
L 387.852898 175.832471 
L 387.852898 175.832471 
" style="fill:none;stroke:#1f77b4;stroke-linecap:square;stroke-width:1.5;"/>
   </g>
   <g id="patch_3">
    <path d="M 46.965625 273.312 
L 46.965625 7.2 
" style="fill:none;stroke:#000000;stroke-linecap:square;stroke-linejoin:miter;stroke-width:0.8;"/>
   </g>
   <g id="patch_4">
    <path d="M 404.085625 273.312 
L 404.085625 7.2 
" style="fill:none;stroke:#000000;stroke-linecap:square;stroke-linejoin:miter;stroke-width:0.8;"/>
   </g>
   <g id="patch_5">
    <path d="M 46.965625 273.312 
L 404.085625 273.312 
" style="fill:none;stroke:#000000;stroke-linecap:square;stroke-linejoin:miter;stroke-width:0.8;"/>
   </g>
   <g id="patch_6">
    <path d="M 46.965625 7.2 
L 404.085625 7.2 
" style="fill:none;stroke:#000000;stroke-linecap:square;stroke-linejoin:miter;stroke-width:0.8;"/>
   </g>
   <g id="legend_1">
    <g id="patch_7">
     <path d="M 393.085625 20.2 
L 397.085625 20.2 
Q 399.085625 20.2 399.085625 18.2 
L 399.085625 14.2 
Q 399.085625 12.2 397.085625 12.2 
L 393.085625 12.2 
Q 391.085625 12.2 391.085625 14.2 
L 391.085625 18.2 
Q 391.085625 20.2 393.085625 20.2 
z
" style="fill:#ffffff;opacity:0.8;stroke:#cccccc;stroke-linejoin:miter;"/>
    </g>
   </g>
  </g>
 </g>
 <defs>
  <clipPath id="pad61b3e0c3">
   <rect height="266.112" width="357.12" x="46.965625" y="7.2"/>
  </clipPath>
 </defs>
</svg>
