<?xml version="1.0" encoding="utf-8" standalone="no"?>
<!DOCTYPE svg PUBLIC "-//W3C//DTD SVG 1.1//EN"
  "http://www.w3.org/Graphics/SVG/1.1/DTD/svg11.dtd">
<!-- Created with matplotlib (https://matplotlib.org/) -->
<svg height="310.86825pt" version="1.1" viewBox="0 0 411.285625 310.86825" width="411.285625pt" xmlns="http://www.w3.org/2000/svg" xmlns:xlink="http://www.w3.org/1999/xlink">
 <defs>
  <style type="text/css">
*{stroke-linecap:butt;stroke-linejoin:round;}
  </style>
 </defs>
 <g id="figure_1">
  <g id="patch_1">
   <path d="M 0 310.86825 
L 411.285625 310.86825 
L 411.285625 0 
L 0 0 
z
" style="fill:#ffffff;"/>
  </g>
  <g id="axes_1">
   <g id="patch_2">
    <path d="M 46.965625 273.312 
L 404.085625 273.312 
L 404.085625 7.2 
L 46.965625 7.2 
z
" style="fill:#ffffff;"/>
   </g>
   <g id="matplotlib.axis_1">
    <g id="xtick_1">
     <g id="line2d_1">
      <defs>
       <path d="M 0 0 
L 0 3.5 
" id="m813ae37738" style="stroke:#000000;stroke-width:0.8;"/>
      </defs>
      <g>
       <use style="stroke:#000000;stroke-width:0.8;" x="63.163109" xlink:href="#m813ae37738" y="273.312"/>
      </g>
     </g>
     <g id="text_1">
      <!-- 0 -->
      <defs>
       <path d="M 31.78125 66.40625 
Q 24.171875 66.40625 20.328125 58.90625 
Q 16.5 51.421875 16.5 36.375 
Q 16.5 21.390625 20.328125 13.890625 
Q 24.171875 6.390625 31.78125 6.390625 
Q 39.453125 6.390625 43.28125 13.890625 
Q 47.125 21.390625 47.125 36.375 
Q 47.125 51.421875 43.28125 58.90625 
Q 39.453125 66.40625 31.78125 66.40625 
z
M 31.78125 74.21875 
Q 44.046875 74.21875 50.515625 64.515625 
Q 56.984375 54.828125 56.984375 36.375 
Q 56.984375 17.96875 50.515625 8.265625 
Q 44.046875 -1.421875 31.78125 -1.421875 
Q 19.53125 -1.421875 13.0625 8.265625 
Q 6.59375 17.96875 6.59375 36.375 
Q 6.59375 54.828125 13.0625 64.515625 
Q 19.53125 74.21875 31.78125 74.21875 
z
" id="DejaVuSans-48"/>
      </defs>
      <g transform="translate(59.981859 287.910437)scale(0.1 -0.1)">
       <use xlink:href="#DejaVuSans-48"/>
      </g>
     </g>
    </g>
    <g id="xtick_2">
     <g id="line2d_2">
      <g>
       <use style="stroke:#000000;stroke-width:0.8;" x="133.650542" xlink:href="#m813ae37738" y="273.312"/>
      </g>
     </g>
     <g id="text_2">
      <!-- 20000 -->
      <defs>
       <path d="M 19.1875 8.296875 
L 53.609375 8.296875 
L 53.609375 0 
L 7.328125 0 
L 7.328125 8.296875 
Q 12.9375 14.109375 22.625 23.890625 
Q 32.328125 33.6875 34.8125 36.53125 
Q 39.546875 41.84375 41.421875 45.53125 
Q 43.3125 49.21875 43.3125 52.78125 
Q 43.3125 58.59375 39.234375 62.25 
Q 35.15625 65.921875 28.609375 65.921875 
Q 23.96875 65.921875 18.8125 64.3125 
Q 13.671875 62.703125 7.8125 59.421875 
L 7.8125 69.390625 
Q 13.765625 71.78125 18.9375 73 
Q 24.125 74.21875 28.421875 74.21875 
Q 39.75 74.21875 46.484375 68.546875 
Q 53.21875 62.890625 53.21875 53.421875 
Q 53.21875 48.921875 51.53125 44.890625 
Q 49.859375 40.875 45.40625 35.40625 
Q 44.1875 33.984375 37.640625 27.21875 
Q 31.109375 20.453125 19.1875 8.296875 
z
" id="DejaVuSans-50"/>
      </defs>
      <g transform="translate(117.744292 287.910437)scale(0.1 -0.1)">
       <use xlink:href="#DejaVuSans-50"/>
       <use x="63.623047" xlink:href="#DejaVuSans-48"/>
       <use x="127.246094" xlink:href="#DejaVuSans-48"/>
       <use x="190.869141" xlink:href="#DejaVuSans-48"/>
       <use x="254.492188" xlink:href="#DejaVuSans-48"/>
      </g>
     </g>
    </g>
    <g id="xtick_3">
     <g id="line2d_3">
      <g>
       <use style="stroke:#000000;stroke-width:0.8;" x="204.137975" xlink:href="#m813ae37738" y="273.312"/>
      </g>
     </g>
     <g id="text_3">
      <!-- 40000 -->
      <defs>
       <path d="M 37.796875 64.3125 
L 12.890625 25.390625 
L 37.796875 25.390625 
z
M 35.203125 72.90625 
L 47.609375 72.90625 
L 47.609375 25.390625 
L 58.015625 25.390625 
L 58.015625 17.1875 
L 47.609375 17.1875 
L 47.609375 0 
L 37.796875 0 
L 37.796875 17.1875 
L 4.890625 17.1875 
L 4.890625 26.703125 
z
" id="DejaVuSans-52"/>
      </defs>
      <g transform="translate(188.231725 287.910437)scale(0.1 -0.1)">
       <use xlink:href="#DejaVuSans-52"/>
       <use x="63.623047" xlink:href="#DejaVuSans-48"/>
       <use x="127.246094" xlink:href="#DejaVuSans-48"/>
       <use x="190.869141" xlink:href="#DejaVuSans-48"/>
       <use x="254.492188" xlink:href="#DejaVuSans-48"/>
      </g>
     </g>
    </g>
    <g id="xtick_4">
     <g id="line2d_4">
      <g>
       <use style="stroke:#000000;stroke-width:0.8;" x="274.625409" xlink:href="#m813ae37738" y="273.312"/>
      </g>
     </g>
     <g id="text_4">
      <!-- 60000 -->
      <defs>
       <path d="M 33.015625 40.375 
Q 26.375 40.375 22.484375 35.828125 
Q 18.609375 31.296875 18.609375 23.390625 
Q 18.609375 15.53125 22.484375 10.953125 
Q 26.375 6.390625 33.015625 6.390625 
Q 39.65625 6.390625 43.53125 10.953125 
Q 47.40625 15.53125 47.40625 23.390625 
Q 47.40625 31.296875 43.53125 35.828125 
Q 39.65625 40.375 33.015625 40.375 
z
M 52.59375 71.296875 
L 52.59375 62.3125 
Q 48.875 64.0625 45.09375 64.984375 
Q 41.3125 65.921875 37.59375 65.921875 
Q 27.828125 65.921875 22.671875 59.328125 
Q 17.53125 52.734375 16.796875 39.40625 
Q 19.671875 43.65625 24.015625 45.921875 
Q 28.375 48.1875 33.59375 48.1875 
Q 44.578125 48.1875 50.953125 41.515625 
Q 57.328125 34.859375 57.328125 23.390625 
Q 57.328125 12.15625 50.6875 5.359375 
Q 44.046875 -1.421875 33.015625 -1.421875 
Q 20.359375 -1.421875 13.671875 8.265625 
Q 6.984375 17.96875 6.984375 36.375 
Q 6.984375 53.65625 15.1875 63.9375 
Q 23.390625 74.21875 37.203125 74.21875 
Q 40.921875 74.21875 44.703125 73.484375 
Q 48.484375 72.75 52.59375 71.296875 
z
" id="DejaVuSans-54"/>
      </defs>
      <g transform="translate(258.719159 287.910437)scale(0.1 -0.1)">
       <use xlink:href="#DejaVuSans-54"/>
       <use x="63.623047" xlink:href="#DejaVuSans-48"/>
       <use x="127.246094" xlink:href="#DejaVuSans-48"/>
       <use x="190.869141" xlink:href="#DejaVuSans-48"/>
       <use x="254.492188" xlink:href="#DejaVuSans-48"/>
      </g>
     </g>
    </g>
    <g id="xtick_5">
     <g id="line2d_5">
      <g>
       <use style="stroke:#000000;stroke-width:0.8;" x="345.112842" xlink:href="#m813ae37738" y="273.312"/>
      </g>
     </g>
     <g id="text_5">
      <!-- 80000 -->
      <defs>
       <path d="M 31.78125 34.625 
Q 24.75 34.625 20.71875 30.859375 
Q 16.703125 27.09375 16.703125 20.515625 
Q 16.703125 13.921875 20.71875 10.15625 
Q 24.75 6.390625 31.78125 6.390625 
Q 38.8125 6.390625 42.859375 10.171875 
Q 46.921875 13.96875 46.921875 20.515625 
Q 46.921875 27.09375 42.890625 30.859375 
Q 38.875 34.625 31.78125 34.625 
z
M 21.921875 38.8125 
Q 15.578125 40.375 12.03125 44.71875 
Q 8.5 49.078125 8.5 55.328125 
Q 8.5 64.0625 14.71875 69.140625 
Q 20.953125 74.21875 31.78125 74.21875 
Q 42.671875 74.21875 48.875 69.140625 
Q 55.078125 64.0625 55.078125 55.328125 
Q 55.078125 49.078125 51.53125 44.71875 
Q 48 40.375 41.703125 38.8125 
Q 48.828125 37.15625 52.796875 32.3125 
Q 56.78125 27.484375 56.78125 20.515625 
Q 56.78125 9.90625 50.3125 4.234375 
Q 43.84375 -1.421875 31.78125 -1.421875 
Q 19.734375 -1.421875 13.25 4.234375 
Q 6.78125 9.90625 6.78125 20.515625 
Q 6.78125 27.484375 10.78125 32.3125 
Q 14.796875 37.15625 21.921875 38.8125 
z
M 18.3125 54.390625 
Q 18.3125 48.734375 21.84375 45.5625 
Q 25.390625 42.390625 31.78125 42.390625 
Q 38.140625 42.390625 41.71875 45.5625 
Q 45.3125 48.734375 45.3125 54.390625 
Q 45.3125 60.0625 41.71875 63.234375 
Q 38.140625 66.40625 31.78125 66.40625 
Q 25.390625 66.40625 21.84375 63.234375 
Q 18.3125 60.0625 18.3125 54.390625 
z
" id="DejaVuSans-56"/>
      </defs>
      <g transform="translate(329.206592 287.910437)scale(0.1 -0.1)">
       <use xlink:href="#DejaVuSans-56"/>
       <use x="63.623047" xlink:href="#DejaVuSans-48"/>
       <use x="127.246094" xlink:href="#DejaVuSans-48"/>
       <use x="190.869141" xlink:href="#DejaVuSans-48"/>
       <use x="254.492188" xlink:href="#DejaVuSans-48"/>
      </g>
     </g>
    </g>
    <g id="text_6">
     <!-- stars -->
     <defs>
      <path d="M 44.28125 53.078125 
L 44.28125 44.578125 
Q 40.484375 46.53125 36.375 47.5 
Q 32.28125 48.484375 27.875 48.484375 
Q 21.1875 48.484375 17.84375 46.4375 
Q 14.5 44.390625 14.5 40.28125 
Q 14.5 37.15625 16.890625 35.375 
Q 19.28125 33.59375 26.515625 31.984375 
L 29.59375 31.296875 
Q 39.15625 29.25 43.1875 25.515625 
Q 47.21875 21.78125 47.21875 15.09375 
Q 47.21875 7.46875 41.1875 3.015625 
Q 35.15625 -1.421875 24.609375 -1.421875 
Q 20.21875 -1.421875 15.453125 -0.5625 
Q 10.6875 0.296875 5.421875 2 
L 5.421875 11.28125 
Q 10.40625 8.6875 15.234375 7.390625 
Q 20.0625 6.109375 24.8125 6.109375 
Q 31.15625 6.109375 34.5625 8.28125 
Q 37.984375 10.453125 37.984375 14.40625 
Q 37.984375 18.0625 35.515625 20.015625 
Q 33.0625 21.96875 24.703125 23.78125 
L 21.578125 24.515625 
Q 13.234375 26.265625 9.515625 29.90625 
Q 5.8125 33.546875 5.8125 39.890625 
Q 5.8125 47.609375 11.28125 51.796875 
Q 16.75 56 26.8125 56 
Q 31.78125 56 36.171875 55.265625 
Q 40.578125 54.546875 44.28125 53.078125 
z
" id="DejaVuSans-115"/>
      <path d="M 18.3125 70.21875 
L 18.3125 54.6875 
L 36.8125 54.6875 
L 36.8125 47.703125 
L 18.3125 47.703125 
L 18.3125 18.015625 
Q 18.3125 11.328125 20.140625 9.421875 
Q 21.96875 7.515625 27.59375 7.515625 
L 36.8125 7.515625 
L 36.8125 0 
L 27.59375 0 
Q 17.1875 0 13.234375 3.875 
Q 9.28125 7.765625 9.28125 18.015625 
L 9.28125 47.703125 
L 2.6875 47.703125 
L 2.6875 54.6875 
L 9.28125 54.6875 
L 9.28125 70.21875 
z
" id="DejaVuSans-116"/>
      <path d="M 34.28125 27.484375 
Q 23.390625 27.484375 19.1875 25 
Q 14.984375 22.515625 14.984375 16.5 
Q 14.984375 11.71875 18.140625 8.90625 
Q 21.296875 6.109375 26.703125 6.109375 
Q 34.1875 6.109375 38.703125 11.40625 
Q 43.21875 16.703125 43.21875 25.484375 
L 43.21875 27.484375 
z
M 52.203125 31.203125 
L 52.203125 0 
L 43.21875 0 
L 43.21875 8.296875 
Q 40.140625 3.328125 35.546875 0.953125 
Q 30.953125 -1.421875 24.3125 -1.421875 
Q 15.921875 -1.421875 10.953125 3.296875 
Q 6 8.015625 6 15.921875 
Q 6 25.140625 12.171875 29.828125 
Q 18.359375 34.515625 30.609375 34.515625 
L 43.21875 34.515625 
L 43.21875 35.40625 
Q 43.21875 41.609375 39.140625 45 
Q 35.0625 48.390625 27.6875 48.390625 
Q 23 48.390625 18.546875 47.265625 
Q 14.109375 46.140625 10.015625 43.890625 
L 10.015625 52.203125 
Q 14.9375 54.109375 19.578125 55.046875 
Q 24.21875 56 28.609375 56 
Q 40.484375 56 46.34375 49.84375 
Q 52.203125 43.703125 52.203125 31.203125 
z
" id="DejaVuSans-97"/>
      <path d="M 41.109375 46.296875 
Q 39.59375 47.171875 37.8125 47.578125 
Q 36.03125 48 33.890625 48 
Q 26.265625 48 22.1875 43.046875 
Q 18.109375 38.09375 18.109375 28.8125 
L 18.109375 0 
L 9.078125 0 
L 9.078125 54.6875 
L 18.109375 54.6875 
L 18.109375 46.1875 
Q 20.953125 51.171875 25.484375 53.578125 
Q 30.03125 56 36.53125 56 
Q 37.453125 56 38.578125 55.875 
Q 39.703125 55.765625 41.0625 55.515625 
z
" id="DejaVuSans-114"/>
     </defs>
     <g transform="translate(213.236563 301.588562)scale(0.1 -0.1)">
      <use xlink:href="#DejaVuSans-115"/>
      <use x="52.099609" xlink:href="#DejaVuSans-116"/>
      <use x="91.308594" xlink:href="#DejaVuSans-97"/>
      <use x="152.587891" xlink:href="#DejaVuSans-114"/>
      <use x="193.701172" xlink:href="#DejaVuSans-115"/>
     </g>
    </g>
   </g>
   <g id="matplotlib.axis_2">
    <g id="ytick_1">
     <g id="line2d_6">
      <defs>
       <path d="M 0 0 
L -3.5 0 
" id="m4bd0755868" style="stroke:#000000;stroke-width:0.8;"/>
      </defs>
      <g>
       <use style="stroke:#000000;stroke-width:0.8;" x="46.965625" xlink:href="#m4bd0755868" y="261.216"/>
      </g>
     </g>
     <g id="text_7">
      <!-- 0 -->
      <g transform="translate(33.603125 265.015219)scale(0.1 -0.1)">
       <use xlink:href="#DejaVuSans-48"/>
      </g>
     </g>
    </g>
    <g id="ytick_2">
     <g id="line2d_7">
      <g>
       <use style="stroke:#000000;stroke-width:0.8;" x="46.965625" xlink:href="#m4bd0755868" y="206.482968"/>
      </g>
     </g>
     <g id="text_8">
      <!-- 50 -->
      <defs>
       <path d="M 10.796875 72.90625 
L 49.515625 72.90625 
L 49.515625 64.59375 
L 19.828125 64.59375 
L 19.828125 46.734375 
Q 21.96875 47.46875 24.109375 47.828125 
Q 26.265625 48.1875 28.421875 48.1875 
Q 40.625 48.1875 47.75 41.5 
Q 54.890625 34.8125 54.890625 23.390625 
Q 54.890625 11.625 47.5625 5.09375 
Q 40.234375 -1.421875 26.90625 -1.421875 
Q 22.3125 -1.421875 17.546875 -0.640625 
Q 12.796875 0.140625 7.71875 1.703125 
L 7.71875 11.625 
Q 12.109375 9.234375 16.796875 8.0625 
Q 21.484375 6.890625 26.703125 6.890625 
Q 35.15625 6.890625 40.078125 11.328125 
Q 45.015625 15.765625 45.015625 23.390625 
Q 45.015625 31 40.078125 35.4375 
Q 35.15625 39.890625 26.703125 39.890625 
Q 22.75 39.890625 18.8125 39.015625 
Q 14.890625 38.140625 10.796875 36.28125 
z
" id="DejaVuSans-53"/>
      </defs>
      <g transform="translate(27.240625 210.282187)scale(0.1 -0.1)">
       <use xlink:href="#DejaVuSans-53"/>
       <use x="63.623047" xlink:href="#DejaVuSans-48"/>
      </g>
     </g>
    </g>
    <g id="ytick_3">
     <g id="line2d_8">
      <g>
       <use style="stroke:#000000;stroke-width:0.8;" x="46.965625" xlink:href="#m4bd0755868" y="151.749937"/>
      </g>
     </g>
     <g id="text_9">
      <!-- 100 -->
      <defs>
       <path d="M 12.40625 8.296875 
L 28.515625 8.296875 
L 28.515625 63.921875 
L 10.984375 60.40625 
L 10.984375 69.390625 
L 28.421875 72.90625 
L 38.28125 72.90625 
L 38.28125 8.296875 
L 54.390625 8.296875 
L 54.390625 0 
L 12.40625 0 
z
" id="DejaVuSans-49"/>
      </defs>
      <g transform="translate(20.878125 155.549155)scale(0.1 -0.1)">
       <use xlink:href="#DejaVuSans-49"/>
       <use x="63.623047" xlink:href="#DejaVuSans-48"/>
       <use x="127.246094" xlink:href="#DejaVuSans-48"/>
      </g>
     </g>
    </g>
    <g id="ytick_4">
     <g id="line2d_9">
      <g>
       <use style="stroke:#000000;stroke-width:0.8;" x="46.965625" xlink:href="#m4bd0755868" y="97.016905"/>
      </g>
     </g>
     <g id="text_10">
      <!-- 150 -->
      <g transform="translate(20.878125 100.816124)scale(0.1 -0.1)">
       <use xlink:href="#DejaVuSans-49"/>
       <use x="63.623047" xlink:href="#DejaVuSans-53"/>
       <use x="127.246094" xlink:href="#DejaVuSans-48"/>
      </g>
     </g>
    </g>
    <g id="ytick_5">
     <g id="line2d_10">
      <g>
       <use style="stroke:#000000;stroke-width:0.8;" x="46.965625" xlink:href="#m4bd0755868" y="42.283873"/>
      </g>
     </g>
     <g id="text_11">
      <!-- 200 -->
      <g transform="translate(20.878125 46.083092)scale(0.1 -0.1)">
       <use xlink:href="#DejaVuSans-50"/>
       <use x="63.623047" xlink:href="#DejaVuSans-48"/>
       <use x="127.246094" xlink:href="#DejaVuSans-48"/>
      </g>
     </g>
    </g>
    <g id="text_12">
     <!-- no. scripts used in file -->
     <defs>
      <path d="M 54.890625 33.015625 
L 54.890625 0 
L 45.90625 0 
L 45.90625 32.71875 
Q 45.90625 40.484375 42.875 44.328125 
Q 39.84375 48.1875 33.796875 48.1875 
Q 26.515625 48.1875 22.3125 43.546875 
Q 18.109375 38.921875 18.109375 30.90625 
L 18.109375 0 
L 9.078125 0 
L 9.078125 54.6875 
L 18.109375 54.6875 
L 18.109375 46.1875 
Q 21.34375 51.125 25.703125 53.5625 
Q 30.078125 56 35.796875 56 
Q 45.21875 56 50.046875 50.171875 
Q 54.890625 44.34375 54.890625 33.015625 
z
" id="DejaVuSans-110"/>
      <path d="M 30.609375 48.390625 
Q 23.390625 48.390625 19.1875 42.75 
Q 14.984375 37.109375 14.984375 27.296875 
Q 14.984375 17.484375 19.15625 11.84375 
Q 23.34375 6.203125 30.609375 6.203125 
Q 37.796875 6.203125 41.984375 11.859375 
Q 46.1875 17.53125 46.1875 27.296875 
Q 46.1875 37.015625 41.984375 42.703125 
Q 37.796875 48.390625 30.609375 48.390625 
z
M 30.609375 56 
Q 42.328125 56 49.015625 48.375 
Q 55.71875 40.765625 55.71875 27.296875 
Q 55.71875 13.875 49.015625 6.21875 
Q 42.328125 -1.421875 30.609375 -1.421875 
Q 18.84375 -1.421875 12.171875 6.21875 
Q 5.515625 13.875 5.515625 27.296875 
Q 5.515625 40.765625 12.171875 48.375 
Q 18.84375 56 30.609375 56 
z
" id="DejaVuSans-111"/>
      <path d="M 10.6875 12.40625 
L 21 12.40625 
L 21 0 
L 10.6875 0 
z
" id="DejaVuSans-46"/>
      <path id="DejaVuSans-32"/>
      <path d="M 48.78125 52.59375 
L 48.78125 44.1875 
Q 44.96875 46.296875 41.140625 47.34375 
Q 37.3125 48.390625 33.40625 48.390625 
Q 24.65625 48.390625 19.8125 42.84375 
Q 14.984375 37.3125 14.984375 27.296875 
Q 14.984375 17.28125 19.8125 11.734375 
Q 24.65625 6.203125 33.40625 6.203125 
Q 37.3125 6.203125 41.140625 7.25 
Q 44.96875 8.296875 48.78125 10.40625 
L 48.78125 2.09375 
Q 45.015625 0.34375 40.984375 -0.53125 
Q 36.96875 -1.421875 32.421875 -1.421875 
Q 20.0625 -1.421875 12.78125 6.34375 
Q 5.515625 14.109375 5.515625 27.296875 
Q 5.515625 40.671875 12.859375 48.328125 
Q 20.21875 56 33.015625 56 
Q 37.15625 56 41.109375 55.140625 
Q 45.0625 54.296875 48.78125 52.59375 
z
" id="DejaVuSans-99"/>
      <path d="M 9.421875 54.6875 
L 18.40625 54.6875 
L 18.40625 0 
L 9.421875 0 
z
M 9.421875 75.984375 
L 18.40625 75.984375 
L 18.40625 64.59375 
L 9.421875 64.59375 
z
" id="DejaVuSans-105"/>
      <path d="M 18.109375 8.203125 
L 18.109375 -20.796875 
L 9.078125 -20.796875 
L 9.078125 54.6875 
L 18.109375 54.6875 
L 18.109375 46.390625 
Q 20.953125 51.265625 25.265625 53.625 
Q 29.59375 56 35.59375 56 
Q 45.5625 56 51.78125 48.09375 
Q 58.015625 40.1875 58.015625 27.296875 
Q 58.015625 14.40625 51.78125 6.484375 
Q 45.5625 -1.421875 35.59375 -1.421875 
Q 29.59375 -1.421875 25.265625 0.953125 
Q 20.953125 3.328125 18.109375 8.203125 
z
M 48.6875 27.296875 
Q 48.6875 37.203125 44.609375 42.84375 
Q 40.53125 48.484375 33.40625 48.484375 
Q 26.265625 48.484375 22.1875 42.84375 
Q 18.109375 37.203125 18.109375 27.296875 
Q 18.109375 17.390625 22.1875 11.75 
Q 26.265625 6.109375 33.40625 6.109375 
Q 40.53125 6.109375 44.609375 11.75 
Q 48.6875 17.390625 48.6875 27.296875 
z
" id="DejaVuSans-112"/>
      <path d="M 8.5 21.578125 
L 8.5 54.6875 
L 17.484375 54.6875 
L 17.484375 21.921875 
Q 17.484375 14.15625 20.5 10.265625 
Q 23.53125 6.390625 29.59375 6.390625 
Q 36.859375 6.390625 41.078125 11.03125 
Q 45.3125 15.671875 45.3125 23.6875 
L 45.3125 54.6875 
L 54.296875 54.6875 
L 54.296875 0 
L 45.3125 0 
L 45.3125 8.40625 
Q 42.046875 3.421875 37.71875 1 
Q 33.40625 -1.421875 27.6875 -1.421875 
Q 18.265625 -1.421875 13.375 4.4375 
Q 8.5 10.296875 8.5 21.578125 
z
M 31.109375 56 
z
" id="DejaVuSans-117"/>
      <path d="M 56.203125 29.59375 
L 56.203125 25.203125 
L 14.890625 25.203125 
Q 15.484375 15.921875 20.484375 11.0625 
Q 25.484375 6.203125 34.421875 6.203125 
Q 39.59375 6.203125 44.453125 7.46875 
Q 49.3125 8.734375 54.109375 11.28125 
L 54.109375 2.78125 
Q 49.265625 0.734375 44.1875 -0.34375 
Q 39.109375 -1.421875 33.890625 -1.421875 
Q 20.796875 -1.421875 13.15625 6.1875 
Q 5.515625 13.8125 5.515625 26.8125 
Q 5.515625 40.234375 12.765625 48.109375 
Q 20.015625 56 32.328125 56 
Q 43.359375 56 49.78125 48.890625 
Q 56.203125 41.796875 56.203125 29.59375 
z
M 47.21875 32.234375 
Q 47.125 39.59375 43.09375 43.984375 
Q 39.0625 48.390625 32.421875 48.390625 
Q 24.90625 48.390625 20.390625 44.140625 
Q 15.875 39.890625 15.1875 32.171875 
z
" id="DejaVuSans-101"/>
      <path d="M 45.40625 46.390625 
L 45.40625 75.984375 
L 54.390625 75.984375 
L 54.390625 0 
L 45.40625 0 
L 45.40625 8.203125 
Q 42.578125 3.328125 38.25 0.953125 
Q 33.9375 -1.421875 27.875 -1.421875 
Q 17.96875 -1.421875 11.734375 6.484375 
Q 5.515625 14.40625 5.515625 27.296875 
Q 5.515625 40.1875 11.734375 48.09375 
Q 17.96875 56 27.875 56 
Q 33.9375 56 38.25 53.625 
Q 42.578125 51.265625 45.40625 46.390625 
z
M 14.796875 27.296875 
Q 14.796875 17.390625 18.875 11.75 
Q 22.953125 6.109375 30.078125 6.109375 
Q 37.203125 6.109375 41.296875 11.75 
Q 45.40625 17.390625 45.40625 27.296875 
Q 45.40625 37.203125 41.296875 42.84375 
Q 37.203125 48.484375 30.078125 48.484375 
Q 22.953125 48.484375 18.875 42.84375 
Q 14.796875 37.203125 14.796875 27.296875 
z
" id="DejaVuSans-100"/>
      <path d="M 37.109375 75.984375 
L 37.109375 68.5 
L 28.515625 68.5 
Q 23.6875 68.5 21.796875 66.546875 
Q 19.921875 64.59375 19.921875 59.515625 
L 19.921875 54.6875 
L 34.71875 54.6875 
L 34.71875 47.703125 
L 19.921875 47.703125 
L 19.921875 0 
L 10.890625 0 
L 10.890625 47.703125 
L 2.296875 47.703125 
L 2.296875 54.6875 
L 10.890625 54.6875 
L 10.890625 58.5 
Q 10.890625 67.625 15.140625 71.796875 
Q 19.390625 75.984375 28.609375 75.984375 
z
" id="DejaVuSans-102"/>
      <path d="M 9.421875 75.984375 
L 18.40625 75.984375 
L 18.40625 0 
L 9.421875 0 
z
" id="DejaVuSans-108"/>
     </defs>
     <g transform="translate(14.798438 195.163031)rotate(-90)scale(0.1 -0.1)">
      <use xlink:href="#DejaVuSans-110"/>
      <use x="63.378906" xlink:href="#DejaVuSans-111"/>
      <use x="124.544922" xlink:href="#DejaVuSans-46"/>
      <use x="156.332031" xlink:href="#DejaVuSans-32"/>
      <use x="188.119141" xlink:href="#DejaVuSans-115"/>
      <use x="240.21875" xlink:href="#DejaVuSans-99"/>
      <use x="295.199219" xlink:href="#DejaVuSans-114"/>
      <use x="336.3125" xlink:href="#DejaVuSans-105"/>
      <use x="364.095703" xlink:href="#DejaVuSans-112"/>
      <use x="427.572266" xlink:href="#DejaVuSans-116"/>
      <use x="466.78125" xlink:href="#DejaVuSans-115"/>
      <use x="518.880859" xlink:href="#DejaVuSans-32"/>
      <use x="550.667969" xlink:href="#DejaVuSans-117"/>
      <use x="614.046875" xlink:href="#DejaVuSans-115"/>
      <use x="666.146484" xlink:href="#DejaVuSans-101"/>
      <use x="727.669922" xlink:href="#DejaVuSans-100"/>
      <use x="791.146484" xlink:href="#DejaVuSans-32"/>
      <use x="822.933594" xlink:href="#DejaVuSans-105"/>
      <use x="850.716797" xlink:href="#DejaVuSans-110"/>
      <use x="914.095703" xlink:href="#DejaVuSans-32"/>
      <use x="945.882812" xlink:href="#DejaVuSans-102"/>
      <use x="981.087891" xlink:href="#DejaVuSans-105"/>
      <use x="1008.871094" xlink:href="#DejaVuSans-108"/>
      <use x="1036.654297" xlink:href="#DejaVuSans-101"/>
     </g>
    </g>
   </g>
   <g id="line2d_11">
    <path clip-path="url(#pb79c0da1d9)" d="M 63.198352 261.216 
L 63.198352 250.269394 
L 63.233596 261.216 
L 63.550789 261.216 
L 63.550789 261.216 
L 63.621277 211.956271 
L 63.660045 261.216 
L 63.68824 261.216 
L 63.68824 261.216 
L 63.695289 237.133466 
L 63.730532 261.216 
L 63.896178 261.216 
L 63.896178 261.216 
L 63.903227 206.482968 
L 64.005433 260.121339 
L 64.008958 246.985412 
L 64.02658 261.216 
L 64.942916 261.216 
L 64.942916 261.216 
L 65.045123 242.606769 
L 65.052172 261.216 
L 65.126184 211.956271 
L 65.140281 261.216 
L 68.449666 259.026679 
L 68.449666 261.216 
L 68.48491 251.364054 
L 68.558922 259.026679 
L 68.65408 261.216 
L 68.636458 250.269394 
L 68.65408 261.216 
L 68.675226 219.618896 
L 68.763335 261.216 
L 68.76686 261.216 
L 68.76686 261.216 
L 68.858493 237.133466 
L 68.876115 261.216 
L 68.879639 261.216 
L 68.879639 261.216 
L 68.928981 241.512109 
L 68.988895 261.216 
L 68.992419 261.216 
L 69.062907 137.519348 
L 69.101675 259.026679 
L 69.203882 261.216 
L 69.140443 249.174733 
L 69.203882 259.026679 
L 69.203882 249.174733 
L 69.207406 261.216 
L 69.313137 261.216 
L 69.316661 261.216 
L 69.316661 261.216 
L 69.341332 246.985412 
L 69.425917 261.216 
L 69.432966 261.216 
L 69.450588 254.648036 
L 69.542221 260.121339 
L 69.651477 261.216 
L 69.566892 254.648036 
L 69.651477 260.121339 
L 69.676147 241.512109 
L 69.655001 261.216 
L 69.760732 261.216 
L 69.764257 261.216 
L 69.764257 261.216 
L 69.795976 254.648036 
L 69.873512 261.216 
L 69.877037 261.216 
L 69.877037 261.216 
L 69.954573 243.70143 
L 69.986292 261.216 
L 69.989816 261.216 
L 70.032109 254.648036 
L 70.099072 259.026679 
L 70.211852 261.216 
L 70.120218 251.364054 
L 70.211852 261.216 
L 70.215376 261.216 
L 70.314059 236.038805 
L 70.324632 261.216 
L 70.384546 238.228127 
L 70.433887 261.216 
L 70.440936 261.216 
L 70.440936 261.216 
L 70.44446 253.553376 
L 70.550192 261.216 
L 70.553716 261.216 
L 70.553716 261.216 
L 70.571338 228.376181 
L 70.662971 259.026679 
L 70.72641 246.985412 
L 70.775751 261.216 
L 70.786324 261.216 
L 70.786324 261.216 
L 70.810995 249.174733 
L 70.89558 261.216 
L 70.899104 261.216 
L 70.899104 261.216 
L 70.966067 254.648036 
L 71.00836 261.216 
L 71.011884 261.216 
L 71.068274 251.364054 
L 71.12114 256.837357 
L 71.23392 261.216 
L 71.17753 254.648036 
L 71.23392 261.216 
L 71.279737 255.742697 
L 71.3467 259.026679 
L 71.3467 261.216 
L 71.350224 245.890751 
L 71.448906 261.216 
L 71.512345 250.269394 
L 71.561686 256.837357 
L 71.561686 261.216 
L 71.632174 253.553376 
L 71.670942 261.216 
L 71.677991 261.216 
L 71.752002 254.648036 
L 71.787246 257.932018 
L 71.868307 261.216 
L 71.833063 252.458715 
L 71.868307 261.216 
L 77.295839 261.216 
L 77.295839 261.216 
L 77.355753 257.932018 
L 77.405094 259.026679 
L 77.412143 253.553376 
L 77.517874 261.216 
L 77.521399 261.216 
L 77.62713 253.553376 
L 77.62713 261.216 
L 77.648276 261.216 
L 77.658849 255.742697 
L 77.711715 261.216 
L 77.711715 241.512109 
L 77.817446 261.216 
L 77.828019 261.216 
L 77.838592 254.648036 
L 77.937275 261.216 
L 77.940799 261.216 
L 77.940799 261.216 
L 78.053579 259.026679 
L 78.117018 256.837357 
L 78.152261 261.216 
L 78.229797 261.216 
L 78.229797 261.216 
L 78.236846 255.742697 
L 78.332004 256.837357 
L 78.448309 261.216 
L 78.448309 261.216 
L 78.511747 261.216 
L 78.511747 261.216 
L 78.599856 249.174733 
L 78.613954 261.216 
L 78.66682 261.216 
L 78.709112 255.742697 
L 78.772551 261.216 
L 78.839514 261.216 
L 78.839514 261.216 
L 78.867709 249.174733 
L 78.945245 261.216 
L 78.952294 261.216 
L 78.952294 261.216 
L 78.962867 251.364054 
L 79.058025 261.216 
L 79.124988 261.216 
L 79.163756 246.985412 
L 79.234243 261.216 
L 79.244817 261.216 
L 79.251865 241.512109 
L 79.354072 260.121339 
L 79.382267 251.364054 
L 79.463328 261.216 
L 79.477425 261.216 
L 79.554961 255.742697 
L 79.583156 261.216 
L 79.632497 261.216 
L 79.713558 220.713557 
L 79.741753 261.216 
L 79.81224 252.458715 
L 79.851008 261.216 
L 79.886252 261.216 
L 79.967313 260.121339 
L 79.995508 261.216 
L 80.009605 261.216 
L 80.009605 261.216 
L 80.009605 259.026679 
L 80.115336 261.216 
L 80.122385 253.553376 
L 80.210494 261.216 
L 80.242214 261.216 
L 80.245738 252.458715 
L 80.347945 261.216 
L 80.460725 257.932018 
L 80.471298 257.932018 
L 80.481871 261.216 
L 80.478347 255.742697 
L 80.580553 261.216 
L 80.6017 252.458715 
L 80.68276 259.026679 
L 80.802589 261.216 
L 80.802589 261.216 
L 80.823735 261.216 
L 80.823735 238.228127 
L 80.932991 261.216 
L 80.96471 261.216 
L 81.010527 251.364054 
L 81.073965 261.216 
L 81.091587 261.216 
L 81.123307 229.470842 
L 81.123307 259.026679 
L 81.123307 216.334914 
L 81.13388 261.216 
L 81.225513 261.216 
L 81.257233 261.216 
L 81.281903 238.228127 
L 81.362964 261.216 
L 81.387634 261.216 
L 81.458122 257.932018 
L 81.479268 261.216 
L 81.500414 261.216 
L 81.500414 261.216 
L 81.500414 241.512109 
L 81.60967 261.216 
L 81.736547 257.932018 
L 81.845803 261.216 
L 81.785888 253.553376 
L 81.845803 261.216 
L 81.8599 261.216 
L 81.8599 261.216 
L 81.958583 256.837357 
L 81.962107 261.216 
L 82.007924 257.932018 
L 82.071363 261.216 
L 82.113655 261.216 
L 82.194716 254.648036 
L 82.222911 261.216 
L 82.25463 261.216 
L 82.258154 257.932018 
L 82.360361 261.216 
L 82.381507 261.216 
L 82.444946 242.606769 
L 82.490763 261.216 
L 82.533055 261.216 
L 82.533055 261.216 
L 82.554202 254.648036 
L 82.638786 261.216 
L 82.666981 261.216 
L 82.762139 249.174733 
L 82.772713 261.216 
L 82.783286 261.216 
L 82.78681 257.932018 
L 82.892541 260.121339 
L 82.89959 260.121339 
L 83.022943 261.216 
L 83.107528 255.742697 
L 83.128674 261.216 
L 83.252027 261.216 
L 83.252027 259.026679 
L 83.357758 261.216 
L 83.407099 261.216 
L 83.407099 261.216 
L 83.414148 256.837357 
L 83.505782 261.216 
L 83.54455 261.216 
L 83.593891 249.174733 
L 83.653805 261.216 
L 83.682 261.216 
L 83.685525 251.364054 
L 83.787732 260.121339 
L 83.858219 257.932018 
L 83.886414 261.216 
L 83.900511 257.932018 
L 83.988621 261.216 
L 83.999194 261.216 
L 84.027389 259.026679 
L 84.07673 261.216 
L 84.07673 245.890751 
L 84.185986 261.216 
L 84.288192 256.837357 
L 84.295241 261.216 
L 84.35868 261.216 
L 84.408021 256.837357 
L 84.467935 261.216 
L 84.474984 261.216 
L 84.474984 261.216 
L 84.510228 255.742697 
L 84.587764 260.121339 
L 84.626532 248.080072 
L 84.689971 261.216 
L 84.742836 261.216 
L 84.742836 261.216 
L 84.742836 259.026679 
L 84.83447 260.121339 
L 84.883811 261.216 
L 84.887336 252.458715 
L 84.989542 261.216 
L 85.0847 251.364054 
L 85.098798 261.216 
L 85.112895 261.216 
L 85.112895 261.216 
L 85.215102 257.932018 
L 85.218626 261.216 
L 85.239773 261.216 
L 85.239773 261.216 
L 85.334931 255.742697 
L 85.341979 261.216 
L 85.363126 261.216 
L 85.408943 240.417448 
L 85.468857 260.121339 
L 85.490003 261.216 
L 85.564015 256.837357 
L 85.715563 261.216 
L 85.715563 261.216 
L 85.881208 261.216 
L 85.89883 257.932018 
L 85.98694 261.216 
L 86.064476 261.216 
L 86.071524 254.648036 
L 86.170207 259.026679 
L 86.279462 261.216 
L 86.381669 244.79609 
L 86.388718 261.216 
L 86.423962 257.932018 
L 86.501498 260.121339 
L 86.501498 261.216 
L 86.526168 257.932018 
L 86.607229 261.216 
L 86.614278 214.145593 
L 86.716484 261.216 
L 86.730582 259.026679 
L 86.801069 261.216 
L 86.871557 261.216 
L 86.88213 260.121339 
L 86.980812 261.216 
L 87.030154 261.216 
L 87.030154 261.216 
L 87.100641 246.985412 
L 87.121787 261.216 
L 87.142933 261.216 
L 87.142933 261.216 
L 87.252189 256.837357 
L 87.259238 252.458715 
L 87.364969 261.216 
L 87.375542 261.216 
L 87.400213 260.121339 
L 87.403737 261.216 
L 87.407261 254.648036 
L 87.502419 261.216 
L 87.622248 261.216 
L 87.692735 253.553376 
L 87.72093 261.216 
L 87.784369 261.216 
L 87.784369 261.216 
L 87.876003 260.121339 
L 87.879527 261.216 
L 87.988783 261.216 
L 87.988783 261.216 
L 87.988783 257.932018 
L 88.076892 261.216 
L 88.112136 255.742697 
L 88.182623 261.216 
L 88.203769 261.216 
L 88.239013 257.932018 
L 88.316549 260.121339 
L 88.429329 261.216 
L 88.51039 256.837357 
L 88.53506 261.216 
L 88.573828 261.216 
L 88.602023 192.25238 
L 88.644316 249.174733 
L 88.802912 261.216 
L 88.802912 261.216 
L 88.908644 260.121339 
L 88.975607 261.216 
L 88.950936 259.026679 
L 88.98618 260.121339 
L 88.989704 256.837357 
L 88.989704 261.216 
L 89.084862 260.121339 
L 89.120106 259.026679 
L 89.215264 261.216 
L 89.254032 261.216 
L 89.313946 259.026679 
L 89.328044 261.216 
L 89.454921 261.216 
L 89.532457 259.026679 
L 89.627615 261.216 
L 89.715725 248.080072 
L 89.719249 252.458715 
L 89.835553 261.216 
L 89.895468 261.216 
L 89.898992 260.121339 
L 89.948333 261.216 
L 90.015296 261.216 
L 90.099881 254.648036 
L 90.113979 261.216 
L 90.135125 260.121339 
L 90.156271 261.216 
L 90.177417 236.038805 
L 90.265527 261.216 
L 90.290197 261.216 
L 90.290197 252.458715 
L 90.395928 261.216 
L 90.52633 261.216 
L 90.579196 256.837357 
L 90.632061 261.216 
L 90.727219 261.216 
L 90.843524 257.932018 
L 90.896389 261.216 
L 90.896389 259.026679 
L 90.956304 255.742697 
L 90.963352 261.216 
L 90.97745 261.216 
L 90.97745 261.216 
L 91.037364 259.026679 
L 91.079657 261.216 
L 91.128998 261.216 
L 91.14662 257.932018 
L 91.238253 261.216 
L 91.245302 261.216 
L 91.287595 259.026679 
L 91.34046 261.216 
L 91.375704 261.216 
L 91.39685 259.026679 
L 91.484959 261.216 
L 91.50963 261.216 
L 91.50963 257.932018 
L 91.615361 261.216 
L 91.657654 261.216 
L 91.766909 260.121339 
L 91.886738 261.216 
L 91.900835 261.216 
L 91.900835 261.216 
L 91.907884 260.121339 
L 91.981896 261.216 
L 92.031237 261.216 
L 92.055908 248.080072 
L 92.136968 261.216 
L 92.193358 261.216 
L 92.23565 255.742697 
L 92.277943 261.216 
L 92.309662 261.216 
L 92.334333 256.837357 
L 92.401296 261.216 
L 92.521125 261.216 
L 92.545795 259.026679 
L 92.63038 261.216 
L 92.834794 261.216 
L 92.866513 256.837357 
L 92.937 259.026679 
L 92.958147 261.216 
L 92.96872 249.174733 
L 93.056829 261.216 
L 93.077975 256.837357 
L 93.151987 257.932018 
L 93.289438 261.216 
L 93.307059 255.742697 
L 93.398693 261.216 
L 93.426888 261.216 
L 93.426888 261.216 
L 93.455083 248.080072 
L 93.518522 261.216 
L 93.543192 261.216 
L 93.543192 261.216 
L 93.553765 260.121339 
L 93.652448 261.216 
L 93.655972 261.216 
L 93.673594 255.742697 
L 93.761703 259.026679 
L 93.874483 261.216 
L 94.092994 261.216 
L 94.117665 260.121339 
L 94.14586 261.216 
L 94.293884 261.216 
L 94.307981 256.837357 
L 94.39609 261.216 
L 94.406663 261.216 
L 94.515919 257.932018 
L 94.632223 261.216 
L 94.656894 261.216 
L 94.656894 261.216 
L 94.670991 253.553376 
L 94.759101 260.121339 
L 94.773198 259.026679 
L 94.794344 261.216 
L 94.850734 261.216 
L 94.914173 261.216 
L 94.914173 261.216 
L 94.938844 254.648036 
L 95.019904 261.216 
L 95.051623 261.216 
L 95.051623 256.837357 
L 95.15383 259.026679 
L 95.291281 261.216 
L 95.291281 261.216 
L 95.308903 261.216 
L 95.308903 261.216 
L 95.368817 260.121339 
L 95.389963 261.216 
L 95.478072 261.216 
L 95.478072 241.512109 
L 95.587328 259.026679 
L 95.664864 261.216 
L 95.707157 256.837357 
L 95.770595 261.216 
L 95.8869 261.216 
L 95.8869 261.216 
L 95.936241 257.932018 
L 95.964436 261.216 
L 96.031399 261.216 
L 96.031399 260.121339 
L 96.13713 260.121339 
L 96.175898 257.932018 
L 96.179422 261.216 
L 96.21819 261.216 
L 96.292202 261.216 
L 96.302775 254.648036 
L 96.394409 261.216 
L 96.574152 261.216 
L 96.574152 261.216 
L 96.595298 249.174733 
L 96.683408 261.216 
L 96.715127 261.216 
L 96.789139 260.121339 
L 96.810285 261.216 
L 96.827907 261.216 
L 96.898394 256.837357 
L 96.930114 257.932018 
L 96.990028 261.216 
L 97.014698 260.121339 
L 97.162722 260.121339 
L 97.215588 259.026679 
L 97.264929 261.216 
L 97.303697 256.837357 
L 97.374184 261.216 
L 97.395331 261.216 
L 97.515159 260.121339 
L 97.550403 261.216 
L 97.550403 256.837357 
L 97.557452 259.026679 
L 97.680805 261.216 
L 97.680805 261.216 
L 97.680805 88.25962 
L 97.786536 260.121339 
L 97.857023 261.216 
L 97.857023 261.216 
L 98.005047 260.121339 
L 98.142497 261.216 
L 98.26585 261.216 
L 98.308143 260.121339 
L 98.375106 261.216 
L 98.484361 261.216 
L 98.537227 250.269394 
L 98.572471 261.216 
L 98.657056 261.216 
L 98.657056 252.458715 
L 98.745165 261.216 
L 98.857945 261.216 
L 98.857945 261.216 
L 98.875567 239.322787 
L 98.91081 248.080072 
L 99.115224 261.216 
L 99.291443 261.216 
L 99.368979 260.121339 
L 99.368979 232.754824 
L 99.379552 261.216 
L 99.446515 261.216 
L 99.502905 255.742697 
L 99.534624 261.216 
L 99.629782 261.216 
L 99.777806 260.121339 
L 99.777806 261.216 
L 99.876488 259.026679 
L 99.880013 261.216 
L 99.925829 261.216 
L 99.978695 259.026679 
L 99.999841 261.216 
L 100.06328 261.216 
L 100.070329 259.026679 
L 100.112621 261.216 
L 100.190157 261.216 
L 100.190157 261.216 
L 100.25712 260.121339 
L 100.299413 261.216 
L 100.391047 261.216 
L 100.591936 249.174733 
L 100.591936 250.269394 
L 100.59546 261.216 
L 100.591936 237.133466 
L 100.630704 261.216 
L 100.736435 261.216 
L 100.803398 260.121339 
L 100.824544 261.216 
L 100.940849 261.216 
L 100.940849 261.216 
L 100.961995 239.322787 
L 101.050104 252.458715 
L 101.180506 261.216 
L 101.191079 256.837357 
L 101.191079 261.216 
L 101.328529 261.216 
L 101.328529 254.648036 
L 101.406066 260.121339 
L 101.54704 261.216 
L 101.853661 261.216 
L 101.853661 261.216 
L 101.924148 260.121339 
L 101.931197 261.216 
L 102.043977 261.216 
L 102.117989 256.837357 
L 102.146184 261.216 
L 102.315353 261.216 
L 102.315353 261.216 
L 102.385841 253.553376 
L 102.421085 261.216 
L 102.470426 261.216 
L 102.477475 259.026679 
L 102.526816 260.121339 
L 102.685413 261.216 
L 102.710083 261.216 
L 102.710083 261.216 
L 102.7559 257.932018 
L 102.815814 261.216 
L 102.872204 261.216 
L 102.921545 259.026679 
L 102.94974 261.216 
L 103.104813 261.216 
L 103.161203 255.742697 
L 103.256361 260.121339 
L 103.298653 253.553376 
L 103.316275 261.216 
L 103.319799 261.216 
L 103.393811 261.216 
L 103.446677 256.837357 
L 103.503067 261.216 
L 103.658139 261.216 
L 103.742724 260.121339 
L 103.781492 261.216 
L 103.785016 257.932018 
L 103.880175 261.216 
L 103.982381 256.837357 
L 104.190319 261.216 
L 104.331294 261.216 
L 104.345392 257.932018 
L 104.405306 261.216 
L 104.447598 260.121339 
L 104.539232 261.216 
L 104.574476 260.121339 
L 104.718975 261.216 
L 104.91634 261.216 
L 104.91634 256.837357 
L 104.944535 261.216 
L 105.043217 261.216 
L 105.099607 255.742697 
L 105.1419 261.216 
L 105.332216 261.216 
L 105.406227 257.932018 
L 105.430898 261.216 
L 105.487288 261.216 
L 105.50491 185.684416 
L 105.593019 261.216 
L 106.125199 261.216 
L 106.128724 243.70143 
L 106.128724 253.553376 
L 106.128724 199.915005 
L 106.135772 261.216 
L 106.234455 261.216 
L 106.273223 261.216 
L 106.273223 261.216 
L 106.410673 259.026679 
L 106.452966 261.216 
L 106.417722 257.932018 
L 106.452966 261.216 
L 106.62566 255.742697 
L 106.756062 261.216 
L 106.861793 260.121339 
L 106.964 261.216 
L 107.002768 257.932018 
L 107.059158 261.216 
L 107.196608 261.216 
L 107.291766 259.026679 
L 107.330534 260.121339 
L 107.478558 261.216 
L 107.668874 260.121339 
L 107.72174 250.269394 
L 107.725264 261.216 
L 108.042457 261.216 
L 108.053031 259.026679 
L 108.151713 261.216 
L 108.204579 261.216 
L 108.211627 241.512109 
L 108.239822 259.026679 
L 108.408992 261.216 
L 108.408992 257.932018 
L 108.514723 261.216 
L 108.659222 261.216 
L 108.659222 259.026679 
L 108.772002 261.216 
L 108.934123 261.216 
L 109.03633 256.837357 
L 109.082147 261.216 
L 109.152635 257.932018 
L 109.180829 261.216 
L 109.244268 261.216 
L 109.251317 246.985412 
L 109.307707 257.932018 
L 109.526218 261.216 
L 109.783497 261.216 
L 109.861033 257.932018 
L 109.882179 261.216 
L 109.910374 261.216 
L 109.910374 261.216 
L 110.093642 256.837357 
L 110.24519 261.216 
L 110.322726 261.216 
L 110.393213 259.026679 
L 110.548286 261.216 
L 111.052271 261.216 
L 111.179148 259.026679 
L 111.179148 261.216 
L 111.203819 261.216 
L 111.306026 261.216 
L 111.306026 261.216 
L 111.439952 255.742697 
L 111.513964 261.216 
L 111.513964 254.648036 
L 111.513964 261.216 
L 111.64789 260.121339 
L 111.697231 248.080072 
L 111.700755 261.216 
L 111.70428 261.216 
L 111.781816 257.932018 
L 111.810011 261.216 
L 112.007376 261.216 
L 112.007376 253.553376 
L 112.081387 261.216 
L 112.37391 261.216 
L 112.377435 260.121339 
L 112.451446 261.216 
L 112.514885 261.216 
L 112.539556 259.026679 
L 112.54308 261.216 
L 112.743969 261.216 
L 112.743969 261.216 
L 112.743969 260.121339 
L 112.839127 261.216 
L 112.909615 261.216 
L 112.941334 259.026679 
L 113.071736 261.216 
L 113.265576 261.216 
L 113.314917 260.121339 
L 113.332539 261.216 
L 113.378356 261.216 
L 113.378356 259.026679 
L 113.670879 260.121339 
L 113.758988 251.364054 
L 113.875293 261.216 
L 113.899963 257.932018 
L 113.981024 260.121339 
L 113.991597 261.216 
L 113.991597 257.932018 
L 114.097328 253.553376 
L 114.206584 261.216 
L 114.206584 261.216 
L 114.329937 256.837357 
L 114.407473 261.216 
L 114.523777 259.026679 
L 114.675325 261.216 
L 114.696471 260.121339 
L 114.879738 261.216 
L 114.904409 260.121339 
L 114.932604 261.216 
L 115.239224 261.216 
L 115.433065 260.121339 
L 115.433065 261.216 
L 115.457735 261.216 
L 115.877136 261.216 
L 115.922953 257.932018 
L 116.152037 261.216 
L 116.529144 261.216 
L 116.529144 261.216 
L 116.564388 257.932018 
L 116.589059 261.216 
L 116.680692 260.121339 
L 116.698314 261.216 
L 116.80757 260.121339 
L 116.941496 261.216 
L 117.008459 256.837357 
L 117.322128 261.216 
L 117.322128 260.121339 
L 117.417286 261.216 
L 117.745053 261.216 
L 117.804967 254.648036 
L 117.840211 261.216 
L 117.907174 261.216 
L 117.907174 259.026679 
L 117.981186 260.121339 
L 118.09749 261.216 
L 118.09749 246.985412 
L 118.400586 261.216 
L 118.74245 261.216 
L 119.034973 253.553376 
L 119.285203 255.742697 
L 119.482568 261.216 
L 119.627067 257.932018 
L 119.701079 261.216 
L 119.796237 257.932018 
L 119.845578 259.026679 
L 120.106382 261.216 
L 120.148674 255.742697 
L 120.166296 260.121339 
L 120.455294 261.216 
L 121.15312 261.216 
L 121.167218 260.121339 
L 121.230656 261.216 
L 121.424497 261.216 
L 121.424497 261.216 
L 121.45974 249.174733 
L 121.523179 261.216 
L 121.618337 261.216 
L 121.889714 256.837357 
L 121.928482 261.216 
L 122.122322 261.216 
L 122.146993 260.121339 
L 122.36198 237.133466 
L 122.414845 261.216 
L 122.802526 261.216 
L 122.971696 250.269394 
L 123.013988 261.216 
L 123.013988 261.216 
L 123.331182 261.216 
L 123.560266 260.121339 
L 123.736485 261.216 
L 123.736485 261.216 
L 124.124165 261.216 
L 124.169982 260.121339 
L 124.215799 261.216 
L 124.293335 261.216 
L 124.293335 261.216 
L 124.406115 260.121339 
L 124.536517 260.121339 
L 124.617577 261.216 
L 124.617577 261.216 
L 124.959441 261.216 
L 124.984112 260.121339 
L 125.040502 261.216 
L 125.290732 261.216 
L 125.311879 260.121339 
L 125.734803 260.121339 
L 125.766523 261.216 
L 126.027326 261.216 
L 126.210593 254.648036 
L 126.407958 261.216 
L 126.407958 261.216 
L 126.753347 261.216 
L 126.753347 257.932018 
L 126.866127 261.216 
L 126.894322 254.648036 
L 126.975382 261.216 
L 127.440599 261.216 
L 127.511087 250.269394 
L 127.888194 261.216 
L 128.004499 261.216 
L 128.043267 256.837357 
L 128.085559 260.121339 
L 128.268826 261.216 
L 128.607166 261.216 
L 128.64241 257.932018 
L 128.670605 261.216 
L 128.744617 260.121339 
L 128.77986 261.216 
L 128.860921 261.216 
L 128.860921 261.216 
L 128.920835 259.026679 
L 129.072383 261.216 
L 129.072383 261.216 
L 129.294419 260.121339 
L 129.294419 261.216 
L 129.361382 261.216 
L 129.639807 261.216 
L 129.664478 260.121339 
L 129.724392 261.216 
L 131.021361 261.216 
L 131.021361 261.216 
L 131.02841 255.742697 
L 131.098897 261.216 
L 131.257494 261.216 
L 131.271591 253.553376 
L 131.349127 260.121339 
L 131.394944 259.026679 
L 131.627553 260.121339 
L 131.627553 260.121339 
L 131.666321 261.216 
L 131.676894 260.121339 
L 131.800247 261.216 
L 132.00466 260.121339 
L 132.131538 261.216 
L 132.480451 261.216 
L 132.501597 260.121339 
L 132.713059 261.216 
L 134.781865 261.216 
L 134.947511 257.932018 
L 135.000376 249.174733 
L 135.194217 261.216 
L 135.194217 261.216 
L 135.247082 257.932018 
L 135.247082 261.216 
L 135.557227 261.216 
L 135.557227 261.216 
L 135.557227 238.228127 
L 135.560751 260.121339 
L 135.79336 260.121339 
L 136.050639 261.216 
L 137.583741 261.216 
L 137.618985 257.932018 
L 137.685948 261.216 
L 138.03486 261.216 
L 138.144116 259.026679 
L 138.17936 261.216 
L 138.422541 260.121339 
L 138.634004 261.216 
L 139.345927 261.216 
L 139.539767 260.121339 
L 140.410287 261.216 
L 141.418257 261.216 
L 141.46055 260.121339 
L 141.520464 261.216 
L 141.54161 261.216 
L 141.54161 260.121339 
L 141.781267 261.216 
L 143.920561 261.216 
L 144.093255 254.648036 
L 144.093255 261.216 
L 144.297669 261.216 
L 144.297669 261.216 
L 144.674777 260.121339 
L 144.858044 261.216 
L 145.280969 261.216 
L 145.633406 251.364054 
L 145.633406 261.216 
L 145.633406 253.553376 
L 146.006989 261.216 
L 146.465157 261.216 
L 146.518023 259.026679 
L 146.944472 260.121339 
L 147.205275 261.216 
L 147.205275 261.216 
L 147.275763 260.121339 
L 147.783272 257.932018 
L 147.857284 261.216 
L 148.586829 261.216 
L 148.586829 261.216 
L 148.586829 260.121339 
L 149.432678 260.121339 
L 149.584226 261.216 
L 150.564002 261.216 
L 150.564002 259.026679 
L 151.38518 260.121339 
L 151.38518 261.216 
L 151.483863 259.026679 
L 151.483863 261.216 
L 151.776386 261.216 
L 151.776386 246.985412 
L 151.811629 261.216 
L 152.280371 252.458715 
L 152.280371 261.216 
L 152.495357 261.216 
L 152.661003 257.932018 
L 152.812551 261.216 
L 153.697168 261.216 
L 154.05313 259.026679 
L 155.043478 261.216 
L 156.037351 261.216 
L 156.326349 257.932018 
L 156.336922 261.216 
L 157.929938 261.216 
L 157.951085 260.121339 
L 158.197791 261.216 
L 159.057737 261.216 
L 159.251578 259.026679 
L 160.16439 237.133466 
L 160.16439 261.216 
L 160.925654 261.216 
L 161.323908 257.932018 
L 161.404969 260.121339 
L 161.644626 261.216 
L 161.782077 261.216 
L 161.782077 261.216 
L 161.782077 260.121339 
L 161.845515 261.216 
L 161.968868 261.216 
L 161.968868 260.121339 
L 162.698413 257.932018 
L 162.698413 261.216 
L 163.960138 261.216 
L 163.960138 261.216 
L 165.151376 256.837357 
L 165.225388 261.216 
L 165.41218 261.216 
L 165.41218 257.932018 
L 165.891494 261.216 
L 165.993701 259.026679 
L 166.543503 261.216 
L 166.712673 261.216 
L 166.938232 259.026679 
L 167.06511 261.216 
L 167.308292 260.121339 
L 167.308292 260.121339 
L 167.308292 261.216 
L 167.491559 261.216 
L 168.178811 253.553376 
L 168.710991 261.216 
L 168.710991 261.216 
L 168.922454 260.121339 
L 169.41939 261.216 
L 172.453874 261.216 
L 172.453874 261.216 
L 173.338491 254.648036 
L 173.62749 261.216 
L 180.175772 261.216 
L 180.47182 19.296 
L 180.47182 261.216 
L 185.529293 261.216 
L 185.529293 261.216 
L 186.015656 260.121339 
L 186.843884 250.269394 
L 187.291479 261.216 
L 188.440424 261.216 
L 188.440424 261.216 
L 189.05014 256.837357 
L 189.05014 261.216 
L 189.05014 261.216 
L 189.300371 257.932018 
L 189.384956 261.216 
L 189.384956 261.216 
L 189.568223 175.832471 
L 189.568223 253.553376 
L 189.927709 261.216 
L 190.325963 260.121339 
L 193.261765 261.216 
L 195.866275 261.216 
L 196.729746 257.932018 
L 198.548322 260.121339 
L 200.3528 261.216 
L 201.050626 260.121339 
L 201.39249 255.742697 
L 201.39249 261.216 
L 201.39249 251.364054 
L 201.39249 261.216 
L 202.56963 261.216 
L 202.855104 257.932018 
L 202.953787 261.216 
L 209.600752 261.216 
L 209.600752 260.121339 
L 210.164651 259.026679 
L 210.164651 261.216 
L 210.305626 251.364054 
L 210.305626 261.216 
L 210.305626 261.216 
L 211.239584 238.228127 
L 211.239584 261.216 
L 215.497025 261.216 
L 216.836287 260.121339 
L 217.872452 261.216 
L 217.872452 261.216 
L 219.581772 261.216 
L 219.581772 198.820344 
L 219.67693 261.216 
L 223.888554 261.216 
L 227.219086 256.837357 
L 228.671127 259.026679 
L 228.671127 261.216 
L 253.380497 261.216 
L 254.071273 259.026679 
L 257.281976 260.121339 
L 259.985169 261.216 
L 259.985169 249.174733 
L 259.985169 261.216 
L 261.289187 256.837357 
L 263.59765 261.216 
L 263.59765 241.512109 
L 266.061186 261.216 
L 266.061186 261.216 
L 268.017212 261.216 
L 273.398928 254.648036 
L 277.515394 259.026679 
L 278.636144 261.216 
L 300.628223 261.216 
L 300.628223 261.216 
L 300.628223 260.121339 
L 306.809971 261.216 
L 309.213593 260.121339 
L 329.542168 261.216 
L 329.542168 261.216 
L 340.481818 261.216 
L 346.363994 257.932018 
L 360.947844 239.322787 
L 383.151386 256.837357 
L 387.852898 261.216 
L 387.852898 261.216 
" style="fill:none;stroke:#1f77b4;stroke-linecap:square;stroke-width:1.5;"/>
   </g>
   <g id="patch_3">
    <path d="M 46.965625 273.312 
L 46.965625 7.2 
" style="fill:none;stroke:#000000;stroke-linecap:square;stroke-linejoin:miter;stroke-width:0.8;"/>
   </g>
   <g id="patch_4">
    <path d="M 404.085625 273.312 
L 404.085625 7.2 
" style="fill:none;stroke:#000000;stroke-linecap:square;stroke-linejoin:miter;stroke-width:0.8;"/>
   </g>
   <g id="patch_5">
    <path d="M 46.965625 273.312 
L 404.085625 273.312 
" style="fill:none;stroke:#000000;stroke-linecap:square;stroke-linejoin:miter;stroke-width:0.8;"/>
   </g>
   <g id="patch_6">
    <path d="M 46.965625 7.2 
L 404.085625 7.2 
" style="fill:none;stroke:#000000;stroke-linecap:square;stroke-linejoin:miter;stroke-width:0.8;"/>
   </g>
   <g id="legend_1">
    <g id="patch_7">
     <path d="M 393.085625 20.2 
L 397.085625 20.2 
Q 399.085625 20.2 399.085625 18.2 
L 399.085625 14.2 
Q 399.085625 12.2 397.085625 12.2 
L 393.085625 12.2 
Q 391.085625 12.2 391.085625 14.2 
L 391.085625 18.2 
Q 391.085625 20.2 393.085625 20.2 
z
" style="fill:#ffffff;opacity:0.8;stroke:#cccccc;stroke-linejoin:miter;"/>
    </g>
   </g>
  </g>
 </g>
 <defs>
  <clipPath id="pb79c0da1d9">
   <rect height="266.112" width="357.12" x="46.965625" y="7.2"/>
  </clipPath>
 </defs>
</svg>
